<?xml version="1.0" encoding="UTF-8"?>
<!DOCTYPE svg PUBLIC "-//W3C//DTD SVG 1.1//EN" "http://www.w3.org/Graphics/SVG/1.1/DTD/svg11.dtd">
<svg version="1.1" xmlns="http://www.w3.org/2000/svg" xmlns:xlink="http://www.w3.org/1999/xlink" x="0" y="0" width="905.976" height="360" viewBox="0, 0, 905.976, 360">
  <g id="Layer_1">
    <path d="M164.988,244.5 L187.988,244.5 L187.988,296.5 L164.988,296.5 L164.988,244.5 z" fill="#444444"/>
    <path d="M193.988,275.5 L217.988,275.5 L217.988,296.5 L193.988,296.5 L193.988,275.5 z" fill="#444444"/>
    <path d="M225.988,263.5 L261.988,263.5 L261.988,296.5 L225.988,296.5 L225.988,263.5 z" fill="#444444"/>
    <path d="M272.988,255.5 L302.988,255.5 L302.988,296.5 L272.988,296.5 L272.988,255.5 z" fill="#444444"/>
    <path d="M316.988,229.5 L342.988,229.5 L342.988,296.5 L316.988,296.5 L316.988,229.5 z" fill="#444444"/>
    <path d="M349.988,261.5 L398.988,261.5 L398.988,296.5 L349.988,296.5 L349.988,261.5 z" fill="#444444"/>
    <path d="M410.988,275.5 L432.988,275.5 L432.988,296.5 L410.988,296.5 L410.988,275.5 z" fill="#444444"/>
    <path d="M443.988,220.5 L472.988,220.5 L472.988,296.5 L443.988,296.5 L443.988,220.5 z" fill="#444444"/>
    <path d="M479.988,240.5 L531.988,240.5 L531.988,296.5 L479.988,296.5 L479.988,240.5 z" fill="#444444"/>
    <path d="M541.988,246.5 L570.988,246.5 L570.988,296.5 L541.988,296.5 L541.988,246.5 z" fill="#444444"/>
    <path d="M580.988,220.5 L607.988,220.5 L607.988,296.5 L580.988,296.5 L580.988,220.5 z" fill="#444444"/>
    <path d="M618.988,173.5 L658.988,173.5 L658.988,296.5 L618.988,296.5 L618.988,173.5 z" fill="#444444"/>
    <path d="M665.988,208.5 L705.988,208.5 L705.988,296.5 L665.988,296.5 L665.988,208.5 z" fill="#444444"/>
    <path d="M712.988,220.5 L766.988,220.5 L766.988,296.5 L712.988,296.5 L712.988,220.5 z" fill="#444444"/>
    <path d="M773.988,208.5 L794.988,208.5 L794.988,296.5 L773.988,296.5 L773.988,208.5 z" fill="#444444"/>
    <path d="M804.988,246.5 L840.988,246.5 L840.988,296.5 L804.988,296.5 L804.988,246.5 z" fill="#444444"/>
    <path d="M848.988,220.5 L863.988,220.5 L863.988,296.5 L848.988,296.5 L848.988,220.5 z" fill="#444444"/>
    <path d="M870.988,228.5 L905.988,228.5 L905.988,296.5 L870.988,296.5 L870.988,228.5 z" fill="#444444"/>
    <path d="M125.988,216.5 L157.988,216.5 L157.988,296.5 L125.988,296.5 L125.988,216.5 z" fill="#444444"/>
    <path d="M76.988,255.5 L117.988,255.5 L117.988,296.5 L76.988,296.5 L76.988,255.5 z" fill="#444444"/>
    <path d="M-0.012,222.5 L66.988,222.5 L66.988,296.5 L-0.012,296.5 L-0.012,222.5 z" fill="#444444"/>
    <path d="M-0.012,295.5 L905.964,295.5 L905.964,360 L-0.012,360 L-0.012,295.5 z" fill="#444444"/>
  </g>
</svg>
