<?xml version="1.0" encoding="UTF-8"?>
<!DOCTYPE svg PUBLIC "-//W3C//DTD SVG 1.1//EN" "http://www.w3.org/Graphics/SVG/1.1/DTD/svg11.dtd">
<svg version="1.1" xmlns="http://www.w3.org/2000/svg" xmlns:xlink="http://www.w3.org/1999/xlink" x="0" y="0" width="905.976" height="360" viewBox="0, 0, 905.976, 360">
  <g id="Layer_2">
    <path d="M81.5,118.146 L81.5,130.144 L84.387,130.144 L84.387,130.144 L84.531,130.144 L82.979,146.552 C86.172,146.754 84.689,146.529 87.441,147.14 C88.699,147.523 88.555,147.424 88.899,148.14 C88.937,150.271 88.861,150.164 88.899,152.342 C88.517,153.379 86.955,153.407 86.062,153.563 L86.062,154.145 C87.397,154.201 88.705,154.5 90.016,154.735 C90.652,154.884 91.816,155.158 92.004,155.966 C91.937,158.646 92.005,179.268 92.005,179.268 L85.333,179.268 L85.333,179.719 C87.229,179.803 87.789,179.805 89.987,180.06 C90.021,180.064 91.739,180.178 92.005,180.61 C92,181.708 92.009,181.521 92.005,182.583 C91.38,183.279 86.437,183.268 85.333,183.294 L85.333,183.782 L91.319,183.782 L91.319,186.162 L85.333,186.162 L85.333,190.626 L87.025,190.626 C85.969,189.57 86.24,190.16 86,188.97 C86,187.848 86.909,186.938 88.031,186.938 C89.153,186.938 90.062,187.848 90.062,188.97 C89.822,190.16 90.093,189.57 89.037,190.626 L91.319,190.626 L91.319,193.006 L85.333,193.006 L85.333,197.47 L87.167,197.47 C85.965,196.267 86.249,196.925 85.995,195.667 C85.995,194.545 86.905,193.635 88.026,193.635 C89.148,193.635 90.058,194.545 90.058,195.667 C89.803,196.925 90.088,196.267 88.886,197.47 L91.319,197.47 L91.319,199.85 L85.333,199.85 L85.333,204.313 L86.958,204.313 C85.965,203.32 86.23,203.881 85.995,202.72 C85.995,201.598 86.905,200.688 88.026,200.688 C89.148,200.688 90.058,201.598 90.058,202.72 C89.823,203.881 90.088,203.32 89.095,204.313 L91.319,204.313 L91.319,206.694 L85.333,206.694 L85.333,211.157 L86.989,211.157 C85.965,210.133 86.233,210.708 85.995,209.532 C85.995,208.41 86.905,207.501 88.026,207.501 C89.148,207.501 90.058,208.41 90.058,209.532 C89.82,210.708 90.088,210.133 89.064,211.157 L91.319,211.157 L91.319,213.537 L85.333,213.537 L85.333,216.944 L92.04,216.944 C92.041,216.944 92.081,278.272 92.041,281.219 C91.671,282.514 89.756,282.628 88.667,282.831 L88.666,310.5 L73.333,310.5 L73.333,282.799 C72.229,282.583 70.53,282.449 70.086,281.219 C69.667,278.167 70.086,216.944 70.086,216.944 L76.666,216.944 L76.666,213.537 L71.17,213.537 L71.17,211.157 L72.989,211.157 C71.965,210.133 72.233,210.708 71.995,209.532 C71.995,208.41 72.905,207.501 74.026,207.501 C75.148,207.501 76.058,208.41 76.058,209.532 C75.82,210.708 76.088,210.133 75.064,211.157 L76.666,211.157 L76.666,206.694 L71.17,206.694 L71.17,204.313 L72.958,204.313 C71.965,203.32 72.23,203.881 71.995,202.72 C71.995,201.598 72.905,200.688 74.026,200.688 C75.148,200.688 76.058,201.598 76.058,202.72 C75.823,203.881 76.088,203.32 75.095,204.313 L76.666,204.313 L76.666,199.85 L71.17,199.85 L71.17,197.47 L73.167,197.47 C71.965,196.267 72.249,196.925 71.995,195.667 C71.995,194.545 72.905,193.635 74.026,193.635 C75.148,193.635 76.058,194.545 76.058,195.667 C75.803,196.925 76.088,196.267 74.886,197.47 L76.666,197.47 L76.666,193.006 L71.17,193.006 L71.17,190.626 L73.025,190.626 C71.969,189.57 72.24,190.16 72,188.97 C72,187.848 72.909,186.938 74.031,186.938 C75.153,186.938 76.062,187.848 76.062,188.97 C75.822,190.16 76.093,189.57 75.037,190.626 L76.666,190.626 L76.666,186.162 L71.17,186.162 L71.17,183.782 L76.666,183.782 L76.666,183.279 C74.859,183.231 74.294,183.234 72.154,183.046 C72.117,183.042 70.404,182.975 70.097,182.583 C70,181.583 70.069,182.261 70.097,180.61 C70.345,180.034 71.874,179.933 72.129,179.902 C74.229,179.65 74.866,179.664 76.667,179.623 L76.666,179.268 L70.169,179.268 C70.169,179.268 70.15,158.724 70.169,155.966 C71.133,154.296 74.508,154.176 76.062,154.099 L76.062,153.499 C75.069,153.27 73.752,153.368 73.234,152.342 C73.25,150.396 73.219,150.571 73.235,148.14 C73.294,147.998 73.29,147.807 73.413,147.715 C75.048,146.567 77.093,146.567 79.013,146.471 L77.469,130.144 L77.738,130.144 L77.738,130.144 L81,130.144 L81,118.146 L81.5,118.146 z M82.529,146.021 L79.471,146.021 L79.511,146.446 L79.6,146.441 C81.872,146.466 80.912,146.421 82.482,146.52 L82.529,146.021 z M82.86,142.521 L79.14,142.521 L79.329,144.521 L82.671,144.521 L82.86,142.521 z M83.36,137.233 L78.639,137.233 L78.879,139.771 L83.12,139.771 L83.36,137.233 z M78.202,132.616 L78.412,134.833 L83.588,134.833 L83.795,132.644 L78.202,132.616 z" fill="#666666" id="bt_tower"/>
    <path d="M746.851,314.823 C703.471,316.086 701.395,313.467 701.395,313.397 C699.292,295.404 686.622,185.269 721.875,142.637 C721.621,142.383 725.675,142.383 725.675,142.383 C762.835,179.827 748.658,314.612 746.851,314.823 z" fill="#666666" id="gerkin"/>
    <path d="M632.885,313.5 L632.885,120.297 L639.638,120.297 L639.638,105.549 L653.973,105.549 L691.464,313.5 L632.885,313.5 z" fill="#666666" id="cheesegrater"/>
    <path d="M544.857,172.108 C552.756,157.853 616.873,160.808 623.377,172.108 C607.58,190.377 604.793,313.5 604.793,313.5 L549.503,313.5 C549.503,313.5 536.959,186.362 544.857,172.108 z" fill="#666666"/>
    <path d="M830.877,113.051 L833.377,113.051 L833.377,111.301 L855.127,94.551 L874.877,111.301 L874.877,113.051 L877.377,113.051 L877.377,125.051 L883.627,125.051 L883.627,313.049 L824.627,313.049 L824.627,125.051 L830.877,125.051 L830.877,113.051 z" fill="#666666" id="canary_wharf"/>
    <path d="M493.06,313.5 L493.06,155.495 L500.212,155.495 L500.212,133.493 L519.682,133.493 L519.682,147.151 L530.013,147.151 L530.013,164.635 L532,164.635 L532,313.5 L493.06,313.5 z" fill="#666666"/>
    <path d="M-0,310.5 L905.976,310.5 L905.976,360 L-0,360 L-0,310.5 z" fill="#666666"/>
    <path d="M448,225.5 L480,225.5 L480,319.5 L448,319.5 L448,225.5 z" fill="#666666"/>
    <path d="M771,208.5 L815,208.5 L815,319.5 L771,319.5 L771,208.5 z" fill="#666666"/>
    <path d="M405,265.5 L438,265.5 L438,310.5 L405,310.5 L405,265.5 z" fill="#666666"/>
    <path d="M357,286.5 L395,286.5 L395,312.5 L357,312.5 L357,286.5 z" fill="#666666"/>
  </g>
</svg>
