<?xml version="1.0" encoding="UTF-8"?>
<!DOCTYPE svg PUBLIC "-//W3C//DTD SVG 1.1//EN" "http://www.w3.org/Graphics/SVG/1.1/DTD/svg11.dtd">
<svg version="1.1" xmlns="http://www.w3.org/2000/svg" xmlns:xlink="http://www.w3.org/1999/xlink" x="0" y="0" width="905.976" height="360" viewBox="0, 0, 905.976, 360">
  <g id="Layer_2">
    <path d="M825.852,272.642 L826.629,277.638 L827.3,297.43 L831.365,297.579 L831.552,284.079 L832.213,279.141 L832.978,284.139 L833.404,297.654 C840.894,297.98 837.415,297.712 843.846,298.368 L846.001,279.096 L847.14,274.245 L847.415,279.294 L846.138,298.601 C852.946,299.271 849.074,298.785 857.728,300.265 L861.973,282.969 L863.729,278.306 L863.35,283.348 L860.344,298.536 L864.886,280.033 L866.642,275.37 L866.263,280.412 L862.138,301.257 C868.119,302.812 865.23,301.911 870.815,303.93 L877.462,283.027 L879.526,278.493 L878.81,283.498 L873.097,304.755 C877.086,306.198 874.782,305.324 879.976,307.458 C886.016,310.488 892.725,315.058 893.221,322.416 C893.128,323.791 893.246,323.287 893.064,323.961 C891.328,321.736 888.826,320.445 886.1,319.894 L886.1,321.557 L875.661,321.557 C873.81,322.292 872.702,324.008 871.709,325.613 C870.849,323.904 869.517,322.424 867.792,321.557 L853.239,321.557 C851.238,322.365 850.042,324.223 849.009,326 C848.101,324.108 846.628,322.554 844.785,321.557 L830.261,321.557 C828.41,322.292 827.302,324.008 826.309,325.613 C825.45,323.904 824.117,322.424 822.392,321.557 L807.791,321.557 C805.872,322.324 804.721,324.107 803.709,325.791 C802.827,323.997 801.426,322.483 799.646,321.557 L785.002,321.557 C783.229,322.258 782.18,323.891 781.21,325.404 C780.382,323.8 779.124,322.352 777.473,321.557 L767.321,321.557 L767.321,319.792 C764.39,320.169 761.955,321.713 760.021,323.875 C761.847,311.622 772.49,306.862 781.899,303.854 L776.065,281.608 L775.331,276.29 L777.563,281.259 L784.353,303.069 L784.537,303.01 L779.362,283.278 L778.681,278.342 L780.753,282.954 L786.782,302.321 C790.517,301.378 789.211,301.646 790.663,301.352 L786.255,279.875 L785.841,274.91 L787.661,279.627 L793.035,300.871 C799.08,299.646 796.233,300.172 801.569,299.26 L799.167,283.054 L799.028,278.074 L800.584,282.884 L803.711,298.924 L805.617,298.692 L803.329,277.809 L803.38,272.827 L804.752,277.693 L807.977,298.404 C813.613,297.682 819.301,297.582 824.975,297.452 L825.202,277.582 L825.852,272.642 z" fill="#999999" id="dome"/>
    <path d="M-0,324 L905.976,324 L905.976,360 L-0,360 L-0,324 z" fill="#999999"/>
    <path d="M491.472,215.84 L488.267,229.84 L488.267,240.717 C479.757,242.363 475.068,250.233 474.687,258.405 L474.672,265.712 L470.353,265.712 L470.353,290.239 L413.907,290.239 L413.907,269.524 L408.157,254.524 L402.438,269.524 L402.438,290.239 L398.057,290.239 L398.057,325 L564.25,325 L564.25,290.239 L512.404,290.239 L512.404,265.712 L508.085,265.712 L508.071,258.404 C507.958,250.081 502.783,242.549 494.491,240.717 L494.491,229.84 L491.472,215.84 z" fill="#999999" id="st_pauls"/>
    <path d="M315.5,228.927 L318.125,238.927 L318.125,242.627 L320.625,246.682 L321.5,246.682 L321.5,248.607 L323.236,248.607 L323.236,260.499 L321.5,260.499 L321.5,298.335 L322.736,298.335 L322.736,325 L-0,325 L-0,298.335 L0,298.335 L0,276.751 L2.125,271.064 L4.438,276.751 L4.438,281.064 L11.688,281.064 L11.688,276.751 L13.813,271.064 L16.125,276.751 L16.125,293.801 L17.438,293.801 L17.438,290.807 L17.984,289.245 L18.557,290.807 L18.557,293.801 L22.438,293.801 L22.438,290.807 L22.984,289.245 L23.557,290.807 L23.557,293.801 L25,293.801 L25,276.751 L27,271.398 L27,257.876 L26.939,257.876 L26.939,232.823 L29.25,229.198 L31.75,232.823 L31.75,249.001 L32.212,249.001 L34.969,244.137 L37.72,244.137 L37.72,239.698 L40.03,236.073 L42.53,239.698 L42.53,244.137 L45.625,244.137 L48.383,249.001 L48.439,249.001 L48.439,232.823 L50.75,229.198 L53.25,232.823 L53.25,298.335 L57.438,298.335 L57.438,295.182 L57.984,293.62 L58.557,295.182 L58.557,298.335 L62.438,298.335 L62.438,295.182 L62.984,293.62 L63.557,295.182 L63.557,298.335 L67.438,298.335 L67.438,295.182 L67.984,293.62 L68.557,295.182 L68.557,298.335 L72.438,298.335 L72.438,295.182 L72.984,293.62 L73.557,295.182 L73.557,298.335 L77.438,298.335 L77.438,295.182 L77.984,293.62 L78.557,295.182 L78.557,298.335 L82.438,298.335 L82.438,295.182 L82.984,293.62 L83.557,295.182 L83.557,298.335 L87.438,298.335 L87.438,295.182 L87.984,293.62 L88.557,295.182 L88.557,298.335 L92.438,298.335 L92.438,295.182 L92.984,293.62 L93.557,295.182 L93.557,298.335 L97.438,298.335 L97.438,295.182 L97.984,293.62 L98.557,295.182 L98.557,298.335 L102.438,298.335 L102.438,295.182 L102.984,293.62 L103.557,295.182 L103.557,298.335 L107,298.335 L107,294.576 L107,294.576 L107,276.751 L109.125,271.064 L111.438,276.751 L111.438,281.064 L118.688,281.064 L118.688,276.751 L120.813,271.064 L123.125,276.751 L123.125,294.076 L127.438,294.076 L127.438,290.807 L127.984,289.245 L128.557,290.807 L128.557,294.076 L132.438,294.076 L132.438,290.807 L132.984,289.245 L133.557,290.807 L133.557,294.076 L137.438,294.076 L137.438,290.807 L137.984,289.245 L138.557,290.807 L138.557,294.076 L142.438,294.076 L142.438,290.807 L142.984,289.245 L143.557,290.807 L143.557,294.076 L146.239,294.076 L146.239,277.166 L148.866,271.352 L148.866,265.397 L153.455,247.018 L158.25,265.397 L158.25,271.355 L160.813,277.166 L160.813,294.076 L164.438,294.076 L164.438,290.807 L164.984,289.245 L165.557,290.807 L165.557,294.076 L169.438,294.076 L169.438,290.807 L169.984,289.245 L170.557,290.807 L170.557,294.076 L174.438,294.076 L174.438,290.807 L174.984,289.245 L175.557,290.807 L175.557,294.076 L179.438,294.076 L179.438,290.807 L179.984,289.245 L180.557,290.807 L180.557,294.076 L184,294.076 L184,276.751 L186.125,271.064 L188.438,276.751 L188.438,281.064 L195.688,281.064 L195.688,276.751 L197.813,271.064 L200.125,276.751 L200.125,295.001 L200.125,295.001 L200.125,298.335 L202.438,298.335 L202.438,295.182 L202.984,293.62 L203.557,295.182 L203.557,298.335 L207.438,298.335 L207.438,295.182 L207.984,293.62 L208.557,295.182 L208.557,298.335 L212.438,298.335 L212.438,295.182 L212.984,293.62 L213.557,295.182 L213.557,298.335 L217.438,298.335 L217.438,295.182 L217.984,293.62 L218.557,295.182 L218.557,298.335 L222.438,298.335 L222.438,295.182 L222.984,293.62 L223.557,295.182 L223.557,298.335 L227.438,298.335 L227.438,295.182 L227.984,293.62 L228.557,295.182 L228.557,298.335 L232.438,298.335 L232.438,295.182 L232.984,293.62 L233.557,295.182 L233.557,298.335 L237.438,298.335 L237.438,295.182 L237.984,293.62 L238.557,295.182 L238.557,298.335 L242.438,298.335 L242.438,295.182 L242.984,293.62 L243.557,295.182 L243.557,298.335 L247.438,298.335 L247.438,295.182 L247.984,293.62 L248.557,295.182 L248.557,298.335 L252.438,298.335 L252.438,295.182 L252.984,293.62 L253.557,295.182 L253.557,298.335 L257.438,298.335 L257.438,295.182 L257.984,293.62 L258.557,295.182 L258.557,298.335 L262.438,298.335 L262.438,295.182 L262.984,293.62 L263.557,295.182 L263.557,298.335 L266,298.335 L266,276.751 L268.125,271.064 L270.438,276.751 L270.438,281.064 L277.688,281.064 L277.688,276.751 L279.813,271.064 L282.125,276.751 L282.125,294.001 L283.438,294.001 L283.438,290.807 L283.984,289.245 L284.557,290.807 L284.557,294.001 L288.438,294.001 L288.438,290.807 L288.984,289.245 L289.557,290.807 L289.557,294.001 L291,294.001 L291,276.751 L293.125,271.064 L295.438,276.751 L295.438,281.064 L302.688,281.064 L302.688,276.751 L304.813,271.064 L307.125,276.751 L307.125,298.335 L309.334,298.335 L309.334,260.499 L307.53,260.499 L307.53,248.607 L309.334,248.607 L309.334,246.682 L310.115,246.682 L312.615,242.627 L312.615,238.927 L315.5,228.927 z M315.375,249.627 C312.683,249.627 310.5,251.809 310.5,254.502 C310.5,257.194 312.683,259.377 315.375,259.377 C318.068,259.377 320.25,257.194 320.25,254.502 C320.25,251.809 318.068,249.627 315.375,249.627 z" fill="#999999" id="parliament"/>
    <path d="M361.818,250.726 L361.899,250.752 C361.918,250.767 361.925,251.01 361.925,251.01 C361.925,251.01 362.18,251.183 362.308,251.354 C362.295,251.281 362.524,251.7 362.524,251.7 C362.524,251.7 362.654,251.715 362.665,251.724 C362.697,251.748 362.664,251.964 362.652,251.994 C362.647,252.011 362.334,252.069 362.334,252.069 L362.141,252.167 L362.052,252.215 L362.026,252.843 L362.333,252.991 L362.385,253.089 C362.385,253.089 362.665,253.06 362.845,253.089 C362.883,253.096 363.048,253.361 362.997,253.618 C362.971,253.878 363.112,254.271 363.112,254.271 L363.292,254.665 L363.407,255.145 L363.675,255.206 L363.777,255.39 L363.764,255.551 L363.457,255.674 L362.781,258.454 L362.576,258.381 L363.317,255.612 C363.317,255.613 363.151,255.625 363.074,255.551 C362.997,255.477 362.665,254.739 362.678,254.578 C362.652,254.554 362.55,254.541 362.55,254.541 L362.55,254.873 L362.64,254.922 L362.627,256.486 L362.436,257.31 L362.064,257.347 C362.064,257.347 361.951,257.618 362.026,257.692 C362.026,257.716 362.55,257.741 362.537,258.27 C362.161,258.299 362.291,258.284 362.144,258.301 C362.665,258.648 363.147,259.336 363.16,259.647 C363.172,259.958 364.599,260.501 364.599,260.501 L364.599,261.442 L363.711,262.424 C363.725,263.59 363.5,264.559 362.957,265.585 L363.64,265.585 L363.903,307.301 L364.578,307.301 L364.578,317.033 L365.704,317.033 L365.704,321.071 L367.485,321.073 L367.485,322.841 L369.036,322.844 L369.036,325 L353.652,325 L353.652,322.844 L355.203,322.841 L355.203,321.073 L356.984,321.071 L356.984,317.033 L358.11,317.033 L358.11,307.301 L358.785,307.301 L359.048,265.585 L359.731,265.585 C359.099,264.655 359.035,263.51 358.977,262.424 L358.089,261.442 L358.089,260.501 C359.272,260.21 359.341,259.942 359.447,259.691 C359.637,259.239 359.943,258.847 360.306,258.49 L359.037,258.479 C359.037,258.479 359.446,257.951 359.497,257.63 C359.574,257.31 360.021,257.249 360.085,257.016 C360.085,257.088 360.468,254.702 360.635,254.603 C360.8,254.504 360.481,254.467 360.481,254.467 C360.481,254.467 360.379,254.727 360.212,254.739 C360.06,254.751 359.919,254.024 359.919,254.024 L359.906,253.212 L360.021,253.138 L360.047,252.893 L360.455,252.806 C360.455,252.806 360.622,252.831 360.762,252.955 C360.774,252.955 360.941,252.769 361.095,252.806 C361.234,252.819 361.145,252.314 361.145,252.314 L360.71,252.289 C360.71,252.289 360.992,251.022 361.643,250.936 C361.656,250.936 361.627,250.768 361.669,250.752 L361.818,250.726 z" fill="#999999" id="nelson"/>
    <path d="M703.847,280.783 L704.561,285.644 C706.107,286.058 706.994,287.098 707.303,288.637 L708.097,288.637 L708.097,290.699 L707.441,290.699 L707.441,298.591 L708.269,298.591 L708.269,299.669 L709.847,299.669 L709.847,298.591 L711.222,298.591 L711.238,299.669 L712.753,299.669 L712.753,298.591 L713.667,298.591 L713.667,325 L660.604,325 L660.604,298.591 L660.644,298.591 L660.644,290.699 L659.988,290.699 L659.988,288.637 L660.782,288.637 C660.939,286.973 662.105,286.214 663.525,285.669 L664.363,280.783 L665.077,285.644 C666.623,286.058 667.509,287.098 667.819,288.637 L668.613,288.637 L668.613,290.699 L667.956,290.699 L667.956,298.591 L668.316,298.591 L668.316,299.669 L669.941,299.669 L669.941,298.591 L670.994,298.591 L670.994,293.902 L670.41,293.902 L670.41,292.065 L671.117,292.065 C671.257,290.583 672.295,289.907 673.561,289.422 L674.307,285.069 L674.943,289.399 C676.32,289.768 677.11,290.694 677.386,292.065 L678.093,292.065 L678.093,293.902 L677.508,293.902 L677.508,298.591 L678.175,298.591 L678.175,299.669 L679.894,299.669 L679.91,298.591 L681.488,298.591 L681.472,299.669 L682.956,299.669 L682.956,298.591 L684.644,298.591 L684.644,299.669 L686.16,299.669 L686.16,298.591 L687.691,298.591 L687.706,299.669 L689.113,299.669 L689.113,298.591 L690.588,298.591 L690.588,292.902 L690.003,292.902 L690.003,291.065 L690.711,291.065 C690.851,289.583 691.889,288.907 693.154,288.422 L693.901,284.069 L694.537,288.399 C695.914,288.768 696.703,289.694 696.979,291.065 L697.686,291.065 L697.686,292.902 L697.102,292.902 L697.102,298.591 L697.686,298.591 L697.686,299.669 L699.472,299.669 L699.472,298.591 L700.128,298.591 L700.128,290.699 L699.472,290.699 L699.472,288.637 L700.266,288.637 C700.423,286.973 701.589,286.214 703.009,285.669 L703.847,280.783 z" fill="#999999" id="tower_of_london"/>
  </g>
</svg>
