<svg xmlns="http://www.w3.org/2000/svg" width="905.976" height="360" viewBox="0, 0, 905.976, 360"><g fill="#999"><path d="M825.852 272.642l.777 4.996.671 19.792 4.065.149.187-13.5.661-4.938.765 4.998.426 13.515c7.49.326 4.011.058 10.442.714l2.155-19.272 1.139-4.851.275 5.049-1.277 19.307c6.808.67 2.936.184 11.59 1.664l4.245-17.296 1.756-4.663-.379 5.042-3.006 15.188 4.542-18.503 1.756-4.663-.379 5.042-4.125 20.845c5.981 1.555 3.092.654 8.677 2.673l6.647-20.903 2.064-4.534-.716 5.005-5.713 21.257c3.989 1.443 1.685.569 6.879 2.703 6.04 3.03 12.749 7.6 13.245 14.958-.093 1.375.025.871-.157 1.545-1.736-2.225-4.238-3.516-6.964-4.067v1.663h-10.439c-1.851.735-2.959 2.451-3.952 4.056-.86-1.709-2.192-3.189-3.917-4.056h-14.553c-2.001.808-3.197 2.666-4.23 4.443a9.922 9.922 0 0 0-4.224-4.443h-14.524c-1.851.735-2.959 2.451-3.952 4.056-.859-1.709-2.192-3.189-3.917-4.056h-14.601c-1.919.767-3.07 2.55-4.082 4.234-.882-1.794-2.283-3.308-4.063-4.234h-14.644c-1.773.701-2.822 2.334-3.792 3.847-.828-1.604-2.086-3.052-3.737-3.847h-10.152v-1.765c-2.931.377-5.366 1.921-7.3 4.083 1.826-12.253 12.469-17.013 21.878-20.021l-5.834-22.246-.734-5.318 2.232 4.969 6.79 21.81.184-.059-5.175-19.732-.681-4.936 2.072 4.612 6.029 19.367c3.735-.943 2.429-.675 3.881-.969l-4.408-21.477-.414-4.965 1.82 4.717 5.374 21.244c6.045-1.225 3.198-.699 8.534-1.611l-2.402-16.206-.139-4.98 1.556 4.81 3.127 16.04 1.906-.232-2.288-20.883.051-4.982 1.372 4.866 3.225 20.711c5.636-.722 11.324-.822 16.998-.952l.227-19.87.65-4.94z"/><path d="M0 324h905.976v36H0v-36z"/><path d="M491.472 215.84l-3.205 14v10.877c-8.51 1.646-13.199 9.516-13.58 17.688l-.015 7.307h-4.319v24.527h-56.446v-20.715l-5.75-15-5.719 15v20.715h-4.381V325H564.25v-34.761h-51.846v-24.527h-4.319l-.014-7.308c-.113-8.323-5.288-15.855-13.58-17.687V229.84l-3.019-14zM315.5 228.927l2.625 10v3.7l2.5 4.055h.875v1.925h1.736v11.892H321.5v37.836h1.236V325H0V276.751l2.125-5.687 2.313 5.687v4.313h7.25v-4.313l2.125-5.687 2.312 5.687v17.05h1.313v-2.994l.546-1.562.573 1.562v2.994h3.881v-2.994l.546-1.562.573 1.562v2.994H25v-17.05l2-5.353v-13.522h-.061v-25.053l2.311-3.625 2.5 3.625v16.178h.462l2.757-4.864h2.751v-4.439l2.31-3.625 2.5 3.625v4.439h3.095l2.758 4.864h.056v-16.178l2.311-3.625 2.5 3.625v65.512h4.188v-3.153l.546-1.562.573 1.562v3.153h3.881v-3.153l.546-1.562.573 1.562v3.153h3.881v-3.153l.546-1.562.573 1.562v3.153h3.881v-3.153l.546-1.562.573 1.562v3.153h3.881v-3.153l.546-1.562.573 1.562v3.153h3.881v-3.153l.546-1.562.573 1.562v3.153h3.881v-3.153l.546-1.562.573 1.562v3.153h3.881v-3.153l.546-1.562.573 1.562v3.153h3.881v-3.153l.546-1.562.573 1.562v3.153h3.881v-3.153l.546-1.562.573 1.562v3.153H107v-21.584l2.125-5.687 2.313 5.687v4.313h7.25v-4.313l2.125-5.687 2.312 5.687v17.325h4.313v-3.269l.546-1.562.573 1.562v3.269h3.881v-3.269l.546-1.562.573 1.562v3.269h3.881v-3.269l.546-1.562.573 1.562v3.269h3.881v-3.269l.546-1.562.573 1.562v3.269h2.682v-16.91l2.627-5.814v-5.955l4.589-18.379 4.795 18.379v5.958l2.563 5.811v16.91h3.625v-3.269l.546-1.562.573 1.562v3.269h3.881v-3.269l.546-1.562.573 1.562v3.269h3.881v-3.269l.546-1.562.573 1.562v3.269h3.881v-3.269l.546-1.562.573 1.562v3.269H184v-17.325l2.125-5.687 2.313 5.687v4.313h7.25v-4.313l2.125-5.687 2.312 5.687v21.584h2.313v-3.153l.546-1.562.573 1.562v3.153h3.881v-3.153l.546-1.562.573 1.562v3.153h3.881v-3.153l.546-1.562.573 1.562v3.153h3.881v-3.153l.546-1.562.573 1.562v3.153h3.881v-3.153l.546-1.562.573 1.562v3.153h3.881v-3.153l.546-1.562.573 1.562v3.153h3.881v-3.153l.546-1.562.573 1.562v3.153h3.881v-3.153l.546-1.562.573 1.562v3.153h3.881v-3.153l.546-1.562.573 1.562v3.153h3.881v-3.153l.546-1.562.573 1.562v3.153h3.881v-3.153l.546-1.562.573 1.562v3.153h3.881v-3.153l.546-1.562.573 1.562v3.153h3.881v-3.153l.546-1.562.573 1.562v3.153H266v-21.584l2.125-5.687 2.313 5.687v4.313h7.25v-4.313l2.125-5.687 2.312 5.687v17.25h1.313v-3.194l.546-1.562.573 1.562v3.194h3.881v-3.194l.546-1.562.573 1.562v3.194H291v-17.25l2.125-5.687 2.313 5.687v4.313h7.25v-4.313l2.125-5.687 2.312 5.687v21.584h2.209v-37.836h-1.804v-11.892h1.804v-1.925h.781l2.5-4.055v-3.7l2.885-10zm-.125 20.7a4.875 4.875 0 1 0 0 9.75 4.875 4.875 0 0 0 0-9.75zM361.818 250.726l.081.026c.019.015.026.258.026.258s.255.173.383.344c-.013-.073.216.346.216.346s.13.015.141.024c.032.024-.001.24-.013.27-.005.017-.318.075-.318.075l-.193.098-.089.048-.026.628.307.148.052.098s.28-.029.46 0c.038.007.203.272.152.529-.026.26.115.653.115.653l.18.394.115.48.268.061.102.184-.013.161-.307.123-.676 2.78-.205-.073.741-2.769c0 .001-.166.013-.243-.061-.077-.074-.409-.812-.396-.973-.026-.024-.128-.037-.128-.037v.332l.09.049-.013 1.564-.191.824-.372.037s-.113.271-.038.345c0 .024.524.049.511.578-.376.029-.246.014-.393.031.521.347 1.003 1.035 1.016 1.346.012.311 1.439.854 1.439.854v.941l-.888.982c.014 1.166-.211 2.135-.754 3.161h.683l.263 41.716h.675v9.732h1.126v4.038l1.781.002v1.768l1.551.003V325h-15.384v-2.156l1.551-.003v-1.768l1.781-.002v-4.038h1.126v-9.732h.675l.263-41.716h.683c-.632-.93-.696-2.075-.754-3.161l-.888-.982v-.941c1.183-.291 1.252-.559 1.358-.81.19-.452.496-.844.859-1.201l-1.269-.011s.409-.528.46-.849c.077-.32.524-.381.588-.614 0 .072.383-2.314.55-2.413.165-.099-.154-.136-.154-.136s-.102.26-.269.272c-.152.012-.293-.715-.293-.715l-.013-.812.115-.074.026-.245.408-.087s.167.025.307.149c.012 0 .179-.186.333-.149.139.013.05-.492.05-.492l-.435-.025s.282-1.267.933-1.353c.013 0-.016-.168.026-.184l.149-.026zM703.847 280.783l.714 4.861c1.546.414 2.433 1.454 2.742 2.993h.794v2.062h-.656v7.892h.828v1.078h1.578v-1.078h1.375l.016 1.078h1.515v-1.078h.914V325h-53.063v-26.409h.04v-7.892h-.656v-2.062h.794c.157-1.664 1.323-2.423 2.743-2.968l.838-4.886.714 4.861c1.546.414 2.432 1.454 2.742 2.993h.794v2.062h-.657v7.892h.36v1.078h1.625v-1.078h1.053v-4.689h-.584v-1.837h.707c.14-1.482 1.178-2.158 2.444-2.643l.746-4.353.636 4.33c1.377.369 2.167 1.295 2.443 2.666h.707v1.837h-.585v4.689h.667v1.078h1.719l.016-1.078h1.578l-.016 1.078h1.484v-1.078h1.688v1.078h1.516v-1.078h1.531l.015 1.078h1.407v-1.078h1.475v-5.689h-.585v-1.837h.708c.14-1.482 1.178-2.158 2.443-2.643l.747-4.353.636 4.33c1.377.369 2.166 1.295 2.442 2.666h.707v1.837h-.584v5.689h.584v1.078h1.786v-1.078h.656v-7.892h-.656v-2.062h.794c.157-1.664 1.323-2.423 2.743-2.968l.838-4.886z"/></g></svg>