<svg xmlns="http://www.w3.org/2000/svg" width="905.976" height="360" viewBox="0, 0, 905.976, 360"><g fill="#BBB"><path d="M268.915 198.692a4.5 4.5 0 0 1 4.5 4.5c-.002 1.099-.397 2.144-1.174 2.921 7.17.727 3.972.203 9.625 1.358-.69-.912-.558-2.09-.387-3.141.95-2.602 2.08-2.981 4.611-3.329l.9.147a4.5 4.5 0 0 1 3.182 5.511 4.115 4.115 0 0 1-1.928 2.54c3.124.864 6.1 2.197 8.943 3.742-.425-1.054.011-2.151.445-3.116.55-.764.29-.556.604-.794.179-.235.057-.113.414-.314 1.362-1.033.54-.588 2.566-1.131.517.149 1.229.002 1.722.216l.01.002.212.096c.342.148.135.057.619.278a4.5 4.5 0 0 1 1.647 6.147 4.116 4.116 0 0 1-2.53 1.957c4.797 3.241 2.185 1.33 7.715 5.893-.128-1.109.58-2.038 1.236-2.841.532-.454.316-.321.591-.482.156-.128.069-.076.262-.154.707-.416.356-.298 1.028-.419.399-.165.194-.087.615-.231.516.013 1.029.043 1.545.051.536.223 1.09.394 1.607.655a.03.03 0 0 1 .01.004l.185.151c.286.228.112.087.521.425l.576.706c0 .582.547 1.046.66 1.617.311 1.575-.275 2.865-1.236 4.041-.781.778-1.801 1.236-2.903 1.236 4.371 5.296 2.446 2.691 5.863 7.75.158-1.129 1.084-1.865 1.945-2.486 1.362-.613.53-.336 2.564-.592 1.617.177 2.669.97 3.583 2.24a4.5 4.5 0 0 1-1.647 6.147c-1.079.564-1.919.765-3.133.439 1.655 2.811 2.701 5.915 3.664 9.012.445-1.052 1.53-1.526 2.525-1.903l.9-.146c.912.078.563-.012 1.07.147.825.113.467-.021 1.092.34.165.051.071.011.266.154 1.184.465 1.76 1.568 2.184 2.687a4.502 4.502 0 0 1-3.182 5.512c-1.27.269-2.022.259-3.18-.409.731 3.39 1.204 5.919 1.299 9.622.693-.872 1.849-1.028 2.879-1.131a4.5 4.5 0 1 1 0 9c-1.097-.003-2.142-.395-2.918-1.171-.728 7.181-.204 3.997-1.347 9.587 1.64-.439.891-.291 2.238-.498l.899.147a4.5 4.5 0 1 1-2.329 8.693 4.116 4.116 0 0 1-2.539-1.926c-.848 3.044-2.114 5.962-3.621 8.737l.557-.142c.517.149 1.23.002 1.722.217l.01.001.213.096c.341.148.135.057.618.278a4.5 4.5 0 1 1-4.5 7.794c-.964-.556-1.663-1.434-1.95-2.505-3.334 4.934-1.419 2.332-5.863 7.718l.539.016c.535.224 1.089.394 1.606.655l.01.004.186.152c.286.227.111.087.52.425l.577.706c0 .582.546 1.045.659 1.616.311 1.575-.275 2.866-1.236 4.042a4.5 4.5 0 0 1-6.364 0c-.764-.772-1.235-1.779-1.235-2.869-5.409 4.463-2.816 2.559-7.681 5.845 2.055 1.328 1.298.595 2.459 1.986a4.5 4.5 0 0 1-7.794 4.5c-.561-1.073-.766-1.915-.442-3.123-2.812 1.65-5.898 2.749-8.998 3.713 1.038.449 1.503 1.56 1.919 2.532.536 2.388-.668 4.559-2.941 5.42l-.241.091a4.5 4.5 0 0 1-5.511-3.181c-.265-1.251-.264-2.014.398-3.161l-1.097.226 1.836 9.962h-6.35l-.986-9.147c-2.187.206-1.179.108-3.024.292.403.402.312.215.417.465.308.344.101.078.393.934.366.871.227.378.34 1.498a4.5 4.5 0 0 1-9 0c.075-.808-.022-.55.083-.823.035-.346-.002-.058.315-.812.254-.656.103-.458.29-.689.149-.356.031-.143.457-.569-1.868-.186-.84-.086-3.085-.298l-.968 9.149h-6.35l1.836-9.962c-.435-.091-.084-.018-1.052-.217.698.919.572 2.102.4 3.164a4.5 4.5 0 0 1-8.694-2.329c.391-1.15.865-1.881 1.881-2.542-3.048-.851-5.991-2.079-8.771-3.589.43 1.059-.003 2.162-.44 3.133a4.5 4.5 0 0 1-7.794-4.5c.55-.764.291-.556.604-.794.18-.236.057-.114.414-.314.448-.371.864-.725 1.438-.857-5.029-3.397-2.433-1.48-7.721-5.843.139 1.131-.564 2.081-1.235 2.902a4.5 4.5 0 1 1-6.364-6.363c.532-.455.316-.322.59-.483.156-.128.07-.075.262-.154.707-.415.356-.298 1.028-.419.4-.165.195-.087.616-.231l.311.011c-4.53-5.49-2.628-2.893-5.859-7.676-.155 1.148-1.081 1.9-1.958 2.531a4.5 4.5 0 0 1-4.499-7.794c1.361-.614.529-.337 2.563-.593l.536.119c-1.64-2.802-2.776-5.861-3.737-8.951-.446 1.063-1.534 1.545-2.539 1.926a4.5 4.5 0 1 1-2.329-8.693l.899-.147c.912.079.563-.011 1.07.147.825.114.468-.02 1.093.341l.077.023c-1.145-5.603-.621-2.414-1.349-9.6-.7.894-1.867 1.065-2.918 1.171a4.5 4.5 0 0 1 0-9c1.071.009 2.116.368 2.879 1.131.028-3.729.603-6.219 1.299-9.622-.923.704-2.111.582-3.18.408a4.5 4.5 0 0 1-3.182-5.511c.95-2.601 2.081-2.981 4.612-3.328l.899.146c1.069.287 1.974.947 2.526 1.903.9-3.308 2.281-6.466 3.915-9.474-1.054.424-2.151-.011-3.114-.445a4.5 4.5 0 0 1-1.647-6.147c.55-.764.29-.556.604-.794.179-.236.056-.114.414-.314 1.362-1.033.539-.589 2.565-1.132.517.15 1.23.003 1.722.217l.01.001.214.096c.34.149.134.057.618.279a4.12 4.12 0 0 1 1.958 2.534c3.226-4.776 1.316-2.165 5.895-7.713-1.107.127-2.035-.581-2.836-1.236a4.5 4.5 0 0 1 0-6.364c.532-.454.316-.321.591-.482.156-.128.069-.075.262-.154.707-.416.356-.298 1.028-.419.399-.165.194-.087.616-.231.515.013 1.028.043 1.544.051.536.223 1.09.394 1.607.655a.03.03 0 0 1 .01.004l.185.151c.287.228.112.087.521.425.78.782 1.236 1.805 1.236 2.908 5.277-4.356 2.673-2.429 7.752-5.861-1.127-.158-1.862-1.084-2.481-1.944a4.5 4.5 0 0 1 1.647-6.147c1.361-.613.529-.336 2.563-.592 1.617.177 2.669.969 3.584 2.239.565 1.08.764 1.921.439 3.134 2.811-1.655 5.918-2.693 9.014-3.656-1.051-.445-1.524-1.53-1.901-2.524a4.5 4.5 0 0 1 3.182-5.511l.9-.147c.912.078.563-.011 1.07.147.824.113.467-.02 1.092.341.165.051.071.01.266.153 1.184.465 1.76 1.569 2.184 2.687.27 1.273.258 2.023-.411 3.183 3.292-.727 6.112-1.203 9.625-1.293-.872-.692-1.027-1.848-1.131-2.877a4.5 4.5 0 0 1 4.5-4.5zm-5.901 124.446l-.467 4.42c4.036.409 2.01.281 6.078.384 4.06-.103 2.042.025 6.054-.382l-.477-4.419c-3.688.374-1.829.256-5.577.351-3.759-.095-1.889.023-5.611-.354zm5.611-113.947c-32.792.001-59.375 26.584-59.375 59.376.093 28.371 20.434 52.578 48.056 58.225l.806-4.372c-25.997-4.84-43.757-27.94-44.412-53.853 0-30.335 24.591-54.925 54.925-54.925 30.334 0 54.925 24.59 54.925 54.925-.087 26.214-18.877 48.632-44.412 53.853l.805 4.372c28.42-5.526 47.335-29.685 48.057-58.226 0-32.791-26.583-59.374-59.375-59.374zm.201 64.079l-.467.047-.072-.008-4.977 47.039c3.523.357 1.751.245 5.315.335 3.551-.09 1.792.022 5.277-.331l-5.076-47.082zm.44-8.862c2.213.647 3.366 2.158 3.593 4.409-.092 1.991-1.031 3.33-2.845 4.093l8.615 46.75c24.656-4.596 41.49-26.521 42.112-51.093 0-28.783-23.333-52.117-52.116-52.117s-52.116 23.334-52.116 52.117c.084 24.852 17.893 46.141 42.112 51.093l8.576-46.542c-2.095-.62-3.126-2.2-3.338-4.301a4.5 4.5 0 0 1 4.5-4.5l.907.091zM615.049 266.196l3.437 12 .884-3.062h-.259v-1.625h.728l.849-2.942.608 2.942h1.253v1.625h-.916l1.228 5.937v10.961c6.773 8.631 19.311 14.855 29.125 19.158 20.154 8.526 44.149 14.978 65.021 4.946v-.918h-.701v-1.056h.701v-4.767l.64-1.349h1.398l2.74-4.553h-.447v-.536h.562v-1.582c-.216-.09-.094-.009-.242-.366a.453.453 0 0 1 .906 0c-.147.357-.026.276-.242.366v1.582h.563v.536h-.461l2.753 4.553h1.392l.647 1.349v4.767h.909v1.056h-.909v10.994l1.093 2.313V340.9h-12.396v-9.579h-88.614v9.463h-24.438v-3.081c-2.84-4.479-28.92-19.629-28.92-19.63l.822-1.741-.822-.487 1.318-2.255 27.602 13.481h4.625v-33.316h-74.722v33.316h4.625l27.603-13.481 1.317 2.255-.821.487.821 1.741c0 .001-26.079 15.151-28.92 19.63v3.081h-24.437v-9.463h-88.614v9.579h-12.397v-12.375l1.094-2.313v-10.994h-.91v-1.056h.91v-4.767l.646-1.349h1.393l2.753-4.553h-.461v-.536h.562v-1.582c-.216-.09-.094-.009-.242-.366a.453.453 0 0 1 .907 0c-.148.357-.026.276-.243.366v1.582h.563v.536h-.447l2.739 4.553h1.398l.641 1.349v4.767h.7v1.056h-.7v.917c20.872 10.033 44.866 3.581 65.02-4.945 9.814-4.303 22.353-10.527 29.125-19.158v-10.961l1.229-5.937h-.916v-1.625h1.252l.609-2.942.849 2.942h.727v1.625h-.258l.883 3.062 3.438-12 3.562 12 .712-3.062h-.774v-1.625h1.152l.723-3.115.638 3.115h.924v1.625h-.591l1.216 5.937v6.888h35.147v-.301c-.61-.586-.489-.301-.612-.913 0-.545.442-.988.988-.988h-.001a.99.99 0 0 1 .989.988c-.119.616-.013.321-.613.913l-.001.301h1.259v-1.261c-.61-.586-.489-.301-.613-.913a.99.99 0 0 1 .989-.988l.384.078c.618.618.477.283.604.91-.119.615-.013.321-.613.913v1.261h1.256v-.262c-.61-.585-.489-.3-.613-.912 0-.545.443-.988.988-.988l.385.078c.618.618.477.283.603.91-.118.615-.013.321-.613.913v.261h34.809v-6.888l1.216-5.937h-.591v-1.625h.924l.638-3.115.724 3.115h1.152v1.625h-.775l.712 3.062 3.563-12zm-105.66 39.775c-1.945 1.78-.592.56-4.125 3.585v17.515h4.125v-21.1zm-12 9.519c-1.863 1.331-.513.385-4.125 2.727v8.854h4.125V315.49zm-12 6.818c-2.341 1.077-.975.483-4.125 1.719v3.044h4.125v-4.763zm-52.125 2.015v2.748h12.808c-7.49-1.262-3.205-.425-12.808-2.748zm-6-1.764v4.512h4.125v-3.235l-4.125-1.277zm46.125 3.944l-3.438.568h3.438v-.568zm6-1.781c-2.013.746-.654.269-4.125 1.289v1.06h4.125v-2.349zm12-5.348l-4.125 2.072v5.625h4.125v-7.697zm12-8.299l-4.125 3.075v12.921h4.125v-15.996zm14-13.338c-1.768 2.421-3.922 4.504-6.125 6.519v22.815h6.125v-29.334zm-94.145 23.492v4.983l.406.859h1.739v-5.133l-2.145-.709zm293.763 0l-2.146.709v5.133h1.739l.407-.859v-4.983zm-94.146-23.492v29.334h6.125v-22.815c-2.203-2.015-4.356-4.098-6.125-6.519zm14 13.338v15.996h4.125V314.15l-4.125-3.075zm12 8.299v7.697h4.125v-5.625l-4.125-2.072zm12 5.348v2.349h4.125v-1.061c-3.47-1.019-2.111-.542-4.125-1.288zm6 1.781v.568h3.438l-3.438-.568zm46.125-3.944l-4.125 1.277v3.235h4.125v-4.512zm-6 1.764c-9.603 2.323-5.317 1.486-12.807 2.748h12.807v-2.748zm-52.125-2.015v4.763h4.125v-3.044c-3.149-1.236-1.783-.642-4.125-1.719zm-12-6.818v11.581h4.125v-8.854c-3.611-2.342-2.261-1.396-4.125-2.727zm-12-9.519v21.1h4.125v-17.515c-3.533-3.025-2.18-1.805-4.125-3.585z"/><path d="M0 339h905.976v21H0v-21z"/><path d="M104.178 306.884c.633-.059 1.022.187 1.404.65 0 0 1.722 3.968 2.011 4.51.289.543 1.065 1.054 2.379.592 1.315-.461 10.108-3.465 10.108-3.465l13.78-4.724c.613-.21 1.28.116 1.49.729l13.069 20.426.721-.459a1.172 1.172 0 0 1 1.619.358l1.971 3.091a1.173 1.173 0 0 1-.359 1.62l-16.633 10.604a1.173 1.173 0 0 1-1.62-.359l-1.97-3.091a1.173 1.173 0 0 1 .358-1.619l2.616-1.668-.009-.016-14.09-20.809-.017-.02c-.752-1.072-2.809.072-3.242.776-5.274 6.428-10.695 12.737-16.087 19.067l.632.509c.505.406.585 1.144.179 1.649l-2.299 2.856a1.173 1.173 0 0 1-1.649.178l-15.367-12.368a1.172 1.172 0 0 1-.178-1.649l2.298-2.856a1.175 1.175 0 0 1 1.65-.178l2.416 1.945.013-.014 13.702-15.732c.593-.409.237-.209 1.104-.533z"/><path d="M124.455 267.421a1.203 1.203 0 0 1 1.534.735l.353 1.037 11.321 5.584 12.301 12.369 4.878.943-.004.004c1.608.31 2.775 1.441 3.829 2.608a7.222 7.222 0 0 1-1.709 10.069c-.346.245-1.237.052-1.29-.912-.092-1.691 1.126-4.752.08-4.818-1.836-.115-4.347-.428-6.117-.523-.767-.041-.728 2.724-1.082 4.618-.177.946-1.46.208-1.66-.074a7.334 7.334 0 0 1-1.282-3.311l-.032-1.389v-.004l-1.548-1.921-7.31-6.363-5.088-2.447-.985 3.508 3.66 14.92a1.204 1.204 0 0 1-.761 1.521l-23.782 8.153a1.203 1.203 0 0 1-1.534-.734l-6.574-16.156-1.565-.125-4.518 3.099-10.288 3.449-3.747.32c-.353.76-1.001 1.326-1.613 1.873a7.222 7.222 0 0 1-10.155-1.086c-.266-.33-.128-1.231.831-1.343 1.683-.197 4.812.831 4.813-.218.003-1.839.16-4.365.146-6.137-.006-.768-2.763-.559-4.675-.796-.955-.118-.298-1.444-.029-1.661 3.224-2.36 6.498-2.08 9.512.41l2.363.058 9.709-3.328 2.648-4.073-.029-6.909c-.114-.621.397-.909.808-1.147l28.591-9.803zm-11.75 37.614a1.584 1.584 0 1 0 1.029 2.996 1.584 1.584 0 0 0-1.029-2.996zm-1.902-5.548a1.584 1.584 0 1 0 1.029 2.996 1.584 1.584 0 0 0-1.029-2.996zm-1.902-5.548a1.584 1.584 0 1 0 1.028 2.996 1.584 1.584 0 0 0-1.028-2.996zm-1.902-5.548a1.584 1.584 0 1 0 1.028 2.997 1.584 1.584 0 0 0-1.028-2.997zm-1.864-5.437a1.583 1.583 0 1 0 1.025 2.996 1.583 1.583 0 0 0-1.025-2.996zm-1.902-5.549a1.585 1.585 0 1 0 1.028 2.998 1.585 1.585 0 0 0-1.028-2.998zM115.822 267.841a.916.916 0 1 1 .594 1.733l-13.731 4.708a.917.917 0 0 1-.595-1.734l13.732-4.707zM116.759 264.923a.916.916 0 0 1 .595 1.734l-17.2 5.896a.916.916 0 1 1-.594-1.733l17.199-5.897zM112.36 246.188a4.692 4.692 0 0 1 5.961 2.917l4.489 13.093-28.944 9.846-4.465-13.024a4.69 4.69 0 0 1 2.916-5.96l20.043-6.872zm-16.002 10.323a3.313 3.313 0 1 0 2.148 6.268 3.313 3.313 0 0 0-2.148-6.268zM100.148 237.714l.393-.11a2.016 2.016 0 0 1 2.335 1.637c.086.698-.109 1.493-.735 1.896l1.275 7.496-1.817.613-1.365-7.777c-.75-.157-1.142-.86-1.33-1.531-.127-1.18.323-1.631 1.244-2.224zM774.145 59.172l7.706 19.356 7.326-44.628 23.812 259.78 23.344.258-.101 45.962h-96.604z"/></g></svg>