<svg xmlns="http://www.w3.org/2000/svg" width="905.976" height="360" viewBox="0, 0, 905.976, 360"><g fill="#444"><path d="M164.988 244.5h23v52h-23v-52zM193.988 275.5h24v21h-24v-21zM225.988 263.5h36v33h-36v-33zM272.988 255.5h30v41h-30v-41zM316.988 229.5h26v67h-26v-67zM349.988 261.5h49v35h-49v-35zM410.988 275.5h22v21h-22v-21zM443.988 220.5h29v76h-29v-76zM479.988 240.5h52v56h-52v-56zM541.988 246.5h29v50h-29v-50zM580.988 220.5h27v76h-27v-76zM618.988 173.5h40v123h-40v-123zM665.988 208.5h40v88h-40v-88zM712.988 220.5h54v76h-54v-76zM773.988 208.5h21v88h-21v-88zM804.988 246.5h36v50h-36v-50zM848.988 220.5h15v76h-15v-76zM870.988 228.5h35v68h-35v-68zM125.988 216.5h32v80h-32v-80zM76.988 255.5h41v41h-41v-41zM-.012 222.5h67v74h-67v-74z"/><path d="M-.012 295.5h905.976V360H-.012v-64.5z"/></g></svg>