<svg xmlns="http://www.w3.org/2000/svg" width="905.976" height="360" viewBox="0, 0, 905.976, 360"><g fill="#666"><path d="M81.5 118.146v11.998h3.031l-1.552 16.408c3.193.202 1.71-.023 4.462.588 1.258.383 1.114.284 1.458 1 .038 2.131-.038 2.024 0 4.202-.382 1.037-1.944 1.065-2.837 1.221v.582c1.335.056 2.643.355 3.954.59.636.149 1.8.423 1.988 1.231-.067 2.68.001 23.302.001 23.302h-6.672v.451c1.896.084 2.456.086 4.654.341.034.004 1.752.118 2.018.55-.005 1.098.004.911 0 1.973-.625.696-5.568.685-6.672.711v.488h5.986v2.38h-5.986v4.464h1.692c-1.056-1.056-.785-.466-1.025-1.656a2.031 2.031 0 1 1 4.062 0c-.24 1.19.031.6-1.025 1.656h2.282v2.38h-5.986v4.464h1.834c-1.202-1.203-.918-.545-1.172-1.803a2.032 2.032 0 0 1 4.063 0c-.255 1.258.03.6-1.172 1.803h2.433v2.38h-5.986v4.463h1.625c-.993-.993-.728-.432-.963-1.593a2.032 2.032 0 0 1 4.063 0c-.235 1.161.03.6-.963 1.593h2.224v2.381h-5.986v4.463h1.656c-1.024-1.024-.756-.449-.994-1.625a2.031 2.031 0 0 1 4.063 0c-.238 1.176.03.601-.994 1.625h2.255v2.38h-5.986v3.407h6.707c.001 0 .041 61.328.001 64.275-.37 1.295-2.285 1.409-3.374 1.612l-.001 27.669H73.333v-27.701c-1.104-.216-2.803-.35-3.247-1.58-.419-3.052 0-64.275 0-64.275h6.58v-3.407H71.17v-2.38h1.819c-1.024-1.024-.756-.449-.994-1.625a2.031 2.031 0 0 1 4.063 0c-.238 1.176.03.601-.994 1.625h1.602v-4.463H71.17v-2.381h1.788c-.993-.993-.728-.432-.963-1.593a2.032 2.032 0 0 1 4.063 0c-.235 1.161.03.6-.963 1.593h1.571v-4.463H71.17v-2.38h1.997c-1.202-1.203-.918-.545-1.172-1.803a2.032 2.032 0 0 1 4.063 0c-.255 1.258.03.6-1.172 1.803h1.78v-4.464H71.17v-2.38h1.855c-1.056-1.056-.785-.466-1.025-1.656a2.031 2.031 0 1 1 4.062 0c-.24 1.19.031.6-1.025 1.656h1.629v-4.464H71.17v-2.38h5.496v-.503c-1.807-.048-2.372-.045-4.512-.233-.037-.004-1.75-.071-2.057-.463-.097-1-.028-.322 0-1.973.248-.576 1.777-.677 2.032-.708 2.1-.252 2.737-.238 4.538-.279l-.001-.355h-6.497s-.019-20.544 0-23.302c.964-1.67 4.339-1.79 5.893-1.867v-.6c-.993-.229-2.31-.131-2.828-1.157.016-1.946-.015-1.771.001-4.202.059-.142.055-.333.178-.425 1.635-1.148 3.68-1.148 5.6-1.244l-1.544-16.327H81v-11.998h.5zm1.029 27.875h-3.058l.04.425.089-.005c2.272.025 1.312-.02 2.882.079l.047-.499zm.331-3.5h-3.72l.189 2h3.342l.189-2zm.5-5.288h-4.721l.24 2.538h4.241l.24-2.538zm-5.158-4.617l.21 2.217h5.176l.207-2.189-5.593-.028zM746.851 314.823c-43.38 1.263-45.456-1.356-45.456-1.426-2.103-17.993-14.773-128.128 20.48-170.76-.254-.254 3.8-.254 3.8-.254 37.16 37.444 22.983 172.229 21.176 172.44zM632.885 313.5V120.297h6.753v-14.748h14.335L691.464 313.5h-58.579zM544.857 172.108c7.899-14.255 72.016-11.3 78.52 0C607.58 190.377 604.793 313.5 604.793 313.5h-55.29s-12.544-127.138-4.646-141.392zM830.877 113.051h2.5v-1.75l21.75-16.75 19.75 16.75v1.75h2.5v12h6.25v187.998h-59V125.051h6.25v-12zM493.06 313.5V155.495h7.152v-22.002h19.47v13.658h10.331v17.484H532V313.5h-38.94z"/><path d="M0 310.5h905.976V360H0v-49.5z"/><path d="M448 225.5h32v94h-32v-94zM771 208.5h44v111h-44v-111zM405 265.5h33v45h-33v-45zM357 286.5h38v26h-38v-26z"/></g></svg>