<?xml version="1.0" encoding="UTF-8"?>
<!DOCTYPE svg PUBLIC "-//W3C//DTD SVG 1.1//EN" "http://www.w3.org/Graphics/SVG/1.1/DTD/svg11.dtd">
<svg version="1.1" xmlns="http://www.w3.org/2000/svg" xmlns:xlink="http://www.w3.org/1999/xlink" x="0" y="0" width="905.976" height="360" viewBox="0, 0, 905.976, 360">
  <g id="Layer_2"/>
  <g id="Layer_1">
    <path d="M268.915,198.692 C271.4,198.692 273.415,200.706 273.415,203.192 C273.413,204.291 273.018,205.336 272.241,206.113 C279.411,206.84 276.213,206.316 281.866,207.471 C281.176,206.559 281.308,205.381 281.479,204.33 C282.429,201.728 283.559,201.349 286.09,201.001 L286.99,201.148 C289.391,201.791 290.815,204.258 290.172,206.659 C289.884,207.742 289.209,208.642 288.244,209.199 C291.368,210.063 294.344,211.396 297.187,212.941 C296.762,211.887 297.198,210.79 297.632,209.825 C298.182,209.061 297.922,209.269 298.236,209.031 C298.415,208.796 298.293,208.918 298.65,208.717 C300.012,207.684 299.19,208.129 301.216,207.586 C301.733,207.735 302.445,207.588 302.938,207.802 C302.941,207.803 302.944,207.803 302.948,207.804 C303.019,207.836 303.09,207.868 303.16,207.9 C303.502,208.048 303.295,207.957 303.779,208.178 C305.931,209.421 306.669,212.173 305.426,214.325 C304.866,215.302 303.976,215.993 302.896,216.282 C307.693,219.523 305.081,217.612 310.611,222.175 C310.483,221.066 311.191,220.137 311.847,219.334 C312.379,218.88 312.163,219.013 312.438,218.852 C312.594,218.724 312.507,218.776 312.7,218.698 C313.407,218.282 313.056,218.4 313.728,218.279 C314.127,218.114 313.922,218.192 314.343,218.048 C314.859,218.061 315.372,218.091 315.888,218.099 C316.424,218.322 316.978,218.493 317.495,218.754 C317.499,218.755 317.502,218.756 317.505,218.758 C317.566,218.808 317.628,218.858 317.69,218.909 C317.976,219.137 317.802,218.996 318.211,219.334 L318.787,220.04 C318.787,220.622 319.334,221.086 319.447,221.657 C319.758,223.232 319.172,224.522 318.211,225.698 C317.43,226.476 316.41,226.934 315.308,226.934 C319.679,232.23 317.754,229.625 321.171,234.684 C321.329,233.555 322.255,232.819 323.116,232.198 C324.478,231.585 323.646,231.862 325.68,231.606 C327.297,231.783 328.349,232.576 329.263,233.846 C330.506,235.998 329.769,238.75 327.616,239.993 C326.537,240.557 325.697,240.758 324.483,240.432 C326.138,243.243 327.184,246.347 328.147,249.444 C328.592,248.392 329.677,247.918 330.672,247.541 L331.572,247.395 C332.484,247.473 332.135,247.383 332.642,247.542 C333.467,247.655 333.109,247.521 333.734,247.882 C333.899,247.933 333.805,247.893 334,248.036 C335.184,248.501 335.76,249.604 336.184,250.723 C336.827,253.124 335.402,255.591 333.002,256.235 C331.732,256.504 330.98,256.494 329.822,255.826 C330.553,259.216 331.026,261.745 331.121,265.448 C331.814,264.576 332.97,264.42 334,264.317 C336.485,264.317 338.5,266.331 338.5,268.817 C338.5,271.302 336.485,273.317 334,273.317 C332.903,273.314 331.858,272.922 331.082,272.146 C330.354,279.327 330.878,276.143 329.735,281.733 C331.375,281.294 330.626,281.442 331.973,281.235 L332.872,281.382 C335.273,282.025 336.698,284.493 336.054,286.893 C335.411,289.294 332.944,290.718 330.543,290.075 C329.461,289.787 328.561,289.113 328.004,288.149 C327.156,291.193 325.89,294.111 324.383,296.886 L324.94,296.744 C325.457,296.893 326.17,296.746 326.662,296.961 C326.665,296.961 326.669,296.961 326.672,296.962 C326.743,296.994 326.814,297.026 326.885,297.058 C327.226,297.206 327.02,297.115 327.503,297.336 C329.656,298.579 330.393,301.331 329.151,303.483 C327.908,305.636 325.156,306.373 323.003,305.13 C322.039,304.574 321.34,303.696 321.053,302.625 C317.719,307.559 319.634,304.957 315.19,310.343 L315.729,310.359 C316.264,310.583 316.818,310.753 317.335,311.014 C317.339,311.015 317.342,311.017 317.345,311.018 C317.407,311.069 317.469,311.119 317.531,311.17 C317.817,311.397 317.642,311.257 318.051,311.595 L318.628,312.301 C318.628,312.883 319.174,313.346 319.287,313.917 C319.598,315.492 319.012,316.783 318.051,317.959 C316.294,319.716 313.444,319.716 311.687,317.959 C310.923,317.187 310.452,316.18 310.452,315.09 C305.043,319.553 307.636,317.649 302.771,320.935 C304.826,322.263 304.069,321.53 305.23,322.921 C306.473,325.073 305.736,327.826 303.583,329.068 C301.431,330.311 298.679,329.573 297.436,327.421 C296.875,326.348 296.67,325.506 296.994,324.298 C294.182,325.948 291.096,327.047 287.996,328.011 C289.034,328.46 289.499,329.571 289.915,330.543 C290.451,332.931 289.247,335.102 286.974,335.963 L286.733,336.054 C284.333,336.698 281.865,335.273 281.222,332.873 C280.957,331.622 280.958,330.859 281.62,329.712 C280.633,329.915 280.999,329.839 280.523,329.938 L282.359,339.9 L276.009,339.9 L275.023,330.753 C272.836,330.959 273.844,330.861 271.999,331.045 C272.402,331.447 272.311,331.26 272.416,331.51 C272.724,331.854 272.517,331.588 272.809,332.444 C273.175,333.315 273.036,332.822 273.149,333.942 C273.149,336.427 271.134,338.442 268.649,338.442 C266.164,338.442 264.149,336.427 264.149,333.942 C264.224,333.134 264.127,333.392 264.232,333.119 C264.267,332.773 264.23,333.061 264.547,332.307 C264.801,331.651 264.65,331.849 264.837,331.618 C264.986,331.262 264.868,331.475 265.294,331.049 C263.426,330.863 264.454,330.963 262.209,330.751 L261.241,339.9 L254.891,339.9 L256.727,329.938 C256.292,329.847 256.643,329.92 255.675,329.721 C256.373,330.64 256.247,331.823 256.075,332.885 C255.431,335.286 252.964,336.71 250.563,336.067 C248.163,335.424 246.738,332.956 247.381,330.556 C247.772,329.406 248.246,328.675 249.262,328.014 C246.214,327.163 243.271,325.935 240.491,324.425 C240.921,325.484 240.488,326.587 240.051,327.558 C238.808,329.71 236.056,330.448 233.904,329.205 C231.752,327.963 231.014,325.21 232.257,323.058 C232.807,322.294 232.548,322.502 232.861,322.264 C233.041,322.028 232.918,322.15 233.275,321.95 C233.723,321.579 234.139,321.225 234.713,321.093 C229.684,317.696 232.28,319.613 226.992,315.25 C227.131,316.381 226.428,317.331 225.757,318.152 C223.999,319.91 221.15,319.91 219.393,318.153 C217.635,316.395 217.635,313.546 219.393,311.789 C219.925,311.334 219.709,311.467 219.983,311.306 C220.139,311.178 220.053,311.231 220.245,311.152 C220.952,310.737 220.601,310.854 221.273,310.733 C221.673,310.568 221.468,310.646 221.889,310.502 L222.2,310.513 C217.67,305.023 219.572,307.62 216.341,302.837 C216.186,303.985 215.26,304.737 214.383,305.368 C212.231,306.61 209.479,305.873 208.236,303.721 C206.994,301.568 207.731,298.816 209.884,297.574 C211.245,296.96 210.413,297.237 212.447,296.981 L212.983,297.1 C211.343,294.298 210.207,291.239 209.246,288.149 C208.8,289.212 207.712,289.694 206.707,290.075 C204.306,290.718 201.839,289.294 201.196,286.893 C200.552,284.493 201.977,282.025 204.378,281.382 L205.277,281.235 C206.189,281.314 205.84,281.224 206.347,281.382 C207.172,281.496 206.815,281.362 207.44,281.723 L207.517,281.746 C206.372,276.143 206.896,279.332 206.168,272.146 C205.468,273.04 204.301,273.211 203.25,273.317 C200.765,273.317 198.75,271.302 198.75,268.817 C198.75,266.331 200.765,264.317 203.25,264.317 C204.321,264.326 205.366,264.685 206.129,265.448 C206.157,261.719 206.732,259.229 207.428,255.826 C206.505,256.53 205.317,256.408 204.248,256.234 C201.848,255.591 200.423,253.124 201.066,250.723 C202.016,248.122 203.147,247.742 205.678,247.395 L206.577,247.541 C207.646,247.828 208.551,248.488 209.103,249.444 C210.003,246.136 211.384,242.978 213.018,239.97 C211.964,240.394 210.867,239.959 209.904,239.525 C207.751,238.282 207.014,235.53 208.257,233.378 C208.807,232.614 208.547,232.822 208.861,232.584 C209.04,232.348 208.917,232.47 209.275,232.27 C210.637,231.237 209.814,231.681 211.84,231.138 C212.357,231.288 213.07,231.141 213.562,231.355 C213.566,231.356 213.569,231.356 213.572,231.356 C213.644,231.388 213.715,231.42 213.786,231.452 C214.126,231.601 213.92,231.509 214.404,231.731 C215.382,232.291 216.072,233.183 216.362,234.265 C219.588,229.489 217.678,232.1 222.257,226.552 C221.15,226.679 220.222,225.971 219.421,225.316 C217.664,223.559 217.664,220.71 219.421,218.952 C219.953,218.498 219.737,218.631 220.012,218.47 C220.168,218.342 220.081,218.395 220.274,218.316 C220.981,217.9 220.63,218.018 221.302,217.897 C221.701,217.732 221.496,217.81 221.918,217.666 C222.433,217.679 222.946,217.709 223.462,217.717 C223.998,217.94 224.552,218.111 225.069,218.372 C225.073,218.373 225.076,218.374 225.079,218.376 C225.141,218.426 225.202,218.476 225.264,218.527 C225.551,218.755 225.376,218.614 225.785,218.952 C226.565,219.734 227.021,220.757 227.021,221.86 C232.298,217.504 229.694,219.431 234.773,215.999 C233.646,215.841 232.911,214.915 232.292,214.055 C231.049,211.903 231.786,209.151 233.939,207.908 C235.3,207.295 234.468,207.572 236.502,207.316 C238.119,207.493 239.171,208.285 240.086,209.555 C240.651,210.635 240.85,211.476 240.525,212.689 C243.336,211.034 246.443,209.996 249.539,209.033 C248.488,208.588 248.015,207.503 247.638,206.509 C246.995,204.108 248.42,201.641 250.82,200.998 L251.72,200.851 C252.632,200.929 252.283,200.84 252.79,200.998 C253.614,201.111 253.257,200.978 253.882,201.339 C254.047,201.39 253.953,201.349 254.148,201.492 C255.332,201.957 255.908,203.061 256.332,204.179 C256.602,205.452 256.59,206.202 255.921,207.362 C259.213,206.635 262.033,206.159 265.546,206.069 C264.674,205.377 264.519,204.221 264.415,203.192 C264.415,200.706 266.43,198.692 268.915,198.692 z M263.014,323.138 L262.547,327.558 C266.583,327.967 264.557,327.839 268.625,327.942 C272.685,327.839 270.667,327.967 274.679,327.56 L274.202,323.141 C270.514,323.515 272.373,323.397 268.625,323.492 C264.866,323.397 266.736,323.515 263.014,323.138 z M268.625,209.191 C235.833,209.192 209.25,235.775 209.25,268.567 C209.343,296.938 229.684,321.145 257.306,326.792 L258.112,322.42 C232.115,317.58 214.355,294.48 213.7,268.567 C213.7,238.232 238.291,213.642 268.625,213.642 L268.625,213.642 C298.959,213.642 323.55,238.232 323.55,268.567 C323.463,294.781 304.673,317.199 279.138,322.42 L279.943,326.792 C308.363,321.266 327.278,297.107 328,268.566 C328,235.775 301.417,209.192 268.625,209.192 z M268.826,273.27 L268.359,273.317 L268.287,273.309 L263.31,320.348 C266.833,320.705 265.061,320.593 268.625,320.683 C272.176,320.593 270.417,320.705 273.902,320.352 L268.826,273.27 z M269.266,264.408 C271.479,265.055 272.632,266.566 272.859,268.817 C272.767,270.808 271.828,272.147 270.014,272.91 L278.629,319.66 C303.285,315.064 320.119,293.139 320.741,268.567 C320.741,239.784 297.408,216.45 268.625,216.45 C239.842,216.45 216.509,239.784 216.509,268.567 C216.593,293.419 234.402,314.708 258.621,319.66 L267.197,273.118 C265.102,272.498 264.071,270.918 263.859,268.817 C263.859,266.331 265.874,264.317 268.359,264.317 L269.266,264.408 z" fill="#BBBBBB" id="london_eye"/>
    <path d="M615.049,266.196 L618.486,278.196 L619.37,275.134 L619.111,275.134 L619.111,273.509 L619.839,273.509 L620.688,270.567 L621.296,273.509 L622.549,273.509 L622.549,275.134 L621.633,275.134 L622.861,281.071 L622.861,292.032 C629.634,300.663 642.172,306.887 651.986,311.19 C672.14,319.716 696.135,326.168 717.007,316.136 L717.007,315.218 L716.306,315.218 L716.306,314.162 L717.007,314.162 L717.007,309.395 L717.647,308.046 L719.045,308.046 L721.785,303.493 L721.338,303.493 L721.338,302.957 L721.9,302.957 L721.9,301.375 C721.684,301.285 721.806,301.366 721.658,301.009 C721.658,300.759 721.861,300.556 722.111,300.556 C722.361,300.556 722.564,300.759 722.564,301.009 C722.417,301.366 722.538,301.285 722.322,301.375 L722.322,302.957 L722.885,302.957 L722.885,303.493 L722.424,303.493 L725.177,308.046 L726.569,308.046 L727.216,309.395 L727.216,314.162 L728.125,314.162 L728.125,315.218 L727.216,315.218 L727.216,326.212 L728.309,328.525 L728.309,340.9 L715.913,340.9 L715.913,331.321 L627.299,331.321 L627.299,340.784 L602.861,340.784 L602.861,337.703 C600.021,333.224 573.941,318.074 573.941,318.073 L574.763,316.332 L573.941,315.845 L575.259,313.59 L602.861,327.071 L607.486,327.071 L607.486,293.755 L532.764,293.755 L532.764,327.071 L537.389,327.071 L564.992,313.59 L566.309,315.845 L565.488,316.332 L566.309,318.073 C566.309,318.074 540.23,333.224 537.389,337.703 L537.389,340.784 L512.952,340.784 L512.952,331.321 L424.338,331.321 L424.338,340.9 L411.941,340.9 L411.941,328.525 L413.035,326.212 L413.035,315.218 L412.125,315.218 L412.125,314.162 L413.035,314.162 L413.035,309.395 L413.681,308.046 L415.074,308.046 L417.827,303.493 L417.366,303.493 L417.366,302.957 L417.928,302.957 L417.928,301.375 C417.712,301.285 417.834,301.366 417.686,301.009 C417.686,300.759 417.889,300.556 418.139,300.556 C418.39,300.556 418.593,300.759 418.593,301.009 C418.445,301.366 418.567,301.285 418.35,301.375 L418.35,302.957 L418.913,302.957 L418.913,303.493 L418.466,303.493 L421.205,308.046 L422.603,308.046 L423.244,309.395 L423.244,314.162 L423.944,314.162 L423.944,315.218 L423.244,315.218 L423.244,316.135 C444.116,326.168 468.11,319.716 488.264,311.19 C498.078,306.887 510.617,300.663 517.389,292.032 L517.389,281.071 L518.618,275.134 L517.702,275.134 L517.702,273.509 L518.954,273.509 L519.563,270.567 L520.412,273.509 L521.139,273.509 L521.139,275.134 L520.881,275.134 L521.764,278.196 L525.202,266.196 L528.764,278.196 L529.476,275.134 L528.702,275.134 L528.702,273.509 L529.854,273.509 L530.577,270.394 L531.215,273.509 L532.139,273.509 L532.139,275.134 L531.548,275.134 L532.764,281.071 L532.764,287.959 L567.911,287.959 L567.911,287.658 C567.301,287.072 567.422,287.357 567.299,286.745 C567.299,286.2 567.741,285.757 568.287,285.757 L568.286,285.757 C568.832,285.757 569.275,286.2 569.275,286.745 C569.156,287.361 569.262,287.066 568.662,287.658 L568.661,287.959 L569.92,287.959 L569.92,286.698 C569.31,286.112 569.431,286.397 569.307,285.785 C569.308,285.24 569.75,284.797 570.296,284.797 L570.296,284.797 L570.68,284.875 C571.298,285.493 571.157,285.158 571.284,285.785 C571.165,286.4 571.271,286.106 570.671,286.698 L570.671,287.959 L571.927,287.959 L571.927,287.697 C571.317,287.112 571.438,287.397 571.314,286.785 C571.314,286.24 571.757,285.797 572.302,285.797 L572.302,285.797 L572.687,285.875 C573.305,286.493 573.164,286.158 573.29,286.785 C573.172,287.4 573.277,287.106 572.677,287.698 L572.677,287.959 L607.486,287.959 L607.486,281.071 L608.702,275.134 L608.111,275.134 L608.111,273.509 L609.035,273.509 L609.673,270.394 L610.397,273.509 L611.549,273.509 L611.549,275.134 L610.774,275.134 L611.486,278.196 L615.049,266.196 z M509.389,305.971 C507.444,307.751 508.797,306.531 505.264,309.556 L505.264,327.071 L509.389,327.071 L509.389,305.971 z M497.389,315.49 C495.526,316.821 496.876,315.875 493.264,318.217 L493.264,327.071 L497.389,327.071 L497.389,315.49 z M485.389,322.308 C483.048,323.385 484.414,322.791 481.264,324.027 L481.264,327.071 L485.389,327.071 L485.389,322.308 z M433.264,324.323 L433.264,327.071 L446.072,327.071 C438.582,325.809 442.867,326.646 433.264,324.323 z M427.264,322.559 L427.264,327.071 L431.389,327.071 L431.389,323.836 L427.264,322.559 z M473.389,326.503 L469.951,327.071 L473.389,327.071 L473.389,326.503 z M479.389,324.722 C477.376,325.468 478.735,324.991 475.264,326.011 L475.264,327.071 L479.389,327.071 L479.389,324.722 z M491.389,319.374 L487.264,321.446 L487.264,327.071 L491.389,327.071 L491.389,319.374 z M503.389,311.075 L499.264,314.15 L499.264,327.071 L503.389,327.071 L503.389,311.075 z M517.389,297.737 C515.621,300.158 513.467,302.241 511.264,304.256 L511.264,327.071 L517.389,327.071 L517.389,297.737 z M423.244,321.229 L423.244,326.212 L423.65,327.071 L425.389,327.071 L425.389,321.938 L423.244,321.229 z M717.007,321.229 L714.861,321.938 L714.861,327.071 L716.6,327.071 L717.007,326.212 L717.007,321.229 z M622.861,297.737 L622.861,327.071 L628.986,327.071 L628.986,304.256 C626.783,302.241 624.63,300.158 622.861,297.737 z M636.861,311.075 L636.861,327.071 L640.986,327.071 L640.986,314.15 L636.861,311.075 z M648.861,319.374 L648.861,327.071 L652.986,327.071 L652.986,321.446 L648.861,319.374 z M660.861,324.722 L660.861,327.071 L664.986,327.071 L664.986,326.01 C661.516,324.991 662.875,325.468 660.861,324.722 z M666.861,326.503 L666.861,327.071 L670.299,327.071 L666.861,326.503 z M712.986,322.559 L708.861,323.836 L708.861,327.071 L712.986,327.071 L712.986,322.559 z M706.986,324.323 C697.383,326.646 701.669,325.809 694.179,327.071 L706.986,327.071 L706.986,324.323 z M654.861,322.308 L654.861,327.071 L658.986,327.071 L658.986,324.027 C655.837,322.791 657.203,323.385 654.861,322.308 z M642.861,315.49 L642.861,327.071 L646.986,327.071 L646.986,318.217 C643.375,315.875 644.725,316.821 642.861,315.49 z M630.861,305.971 L630.861,327.071 L634.986,327.071 L634.986,309.556 C631.453,306.531 632.806,307.751 630.861,305.971 z" fill="#BBBBBB" id="tower_bridge"/>
    <path d="M-0,339 L905.976,339 L905.976,360 L-0,360 L-0,339 z" fill="#BBBBBB"/>
    <g id="robot">
      <path d="M104.178,306.884 C104.811,306.825 105.2,307.071 105.582,307.534 C105.582,307.534 107.304,311.502 107.593,312.044 C107.882,312.587 108.658,313.098 109.972,312.636 C111.287,312.175 120.08,309.171 120.08,309.171 L133.86,304.447 C134.473,304.237 135.14,304.563 135.35,305.176 L148.419,325.602 L149.14,325.143 C149.686,324.794 150.411,324.955 150.759,325.501 L152.73,328.592 C153.078,329.139 152.918,329.864 152.371,330.212 L135.738,340.816 C135.192,341.164 134.467,341.004 134.118,340.457 L132.148,337.366 C131.8,336.82 131.96,336.095 132.506,335.747 L135.122,334.079 L135.113,334.063 L121.023,313.254 L121.006,313.234 C120.254,312.162 118.197,313.306 117.764,314.01 C112.49,320.438 107.069,326.747 101.677,333.077 L102.309,333.586 C102.814,333.992 102.894,334.73 102.488,335.235 L100.189,338.091 C99.783,338.595 99.045,338.675 98.54,338.269 L83.173,325.901 C82.668,325.495 82.589,324.757 82.995,324.252 L85.293,321.396 C85.699,320.892 86.438,320.812 86.943,321.218 L89.359,323.163 L89.372,323.149 L103.074,307.417 C103.667,307.008 103.311,307.208 104.178,306.884 z" fill="#BBBBBB"/>
      <path d="M124.455,267.421 C125.089,267.204 125.775,267.533 125.989,268.156 L126.342,269.193 L137.663,274.777 L149.964,287.146 L154.842,288.089 L154.838,288.093 C156.446,288.403 157.613,289.534 158.667,290.701 C160.975,293.954 160.21,298.462 156.958,300.77 C156.612,301.015 155.721,300.822 155.668,299.858 C155.576,298.167 156.794,295.106 155.748,295.04 C153.912,294.925 151.401,294.612 149.631,294.517 C148.864,294.476 148.903,297.241 148.549,299.135 C148.372,300.081 147.089,299.343 146.889,299.061 C146.201,298.076 145.753,296.946 145.607,295.75 C145.596,295.287 145.586,294.824 145.575,294.361 C145.575,294.36 145.575,294.358 145.575,294.357 L144.027,292.436 L136.717,286.073 L131.629,283.626 L130.644,287.134 L134.304,302.054 C134.517,302.676 134.177,303.357 133.543,303.575 L109.761,311.728 C109.127,311.945 108.441,311.617 108.227,310.994 L101.653,294.838 L100.088,294.713 L95.57,297.812 L85.282,301.261 L81.535,301.581 C81.182,302.341 80.534,302.907 79.922,303.454 C76.818,305.958 72.271,305.472 69.767,302.368 C69.501,302.038 69.639,301.137 70.598,301.025 C72.281,300.828 75.41,301.856 75.411,300.807 C75.414,298.968 75.571,296.442 75.557,294.67 C75.551,293.902 72.794,294.111 70.882,293.874 C69.927,293.756 70.584,292.43 70.853,292.213 C74.077,289.853 77.351,290.133 80.365,292.623 L82.728,292.681 L92.437,289.353 L95.085,285.28 L95.056,278.371 C94.942,277.75 95.453,277.462 95.864,277.224 L124.455,267.421 z M112.705,305.035 C111.878,305.319 111.437,306.22 111.721,307.047 C112.005,307.874 112.905,308.315 113.733,308.032 C114.56,307.748 115.001,306.847 114.717,306.02 C114.433,305.193 113.533,304.752 112.705,305.035 z M110.803,299.487 C109.976,299.771 109.535,300.672 109.819,301.499 C110.103,302.326 111.003,302.767 111.83,302.483 C112.658,302.2 113.099,301.299 112.815,300.472 C112.531,299.644 111.631,299.204 110.803,299.487 z M108.901,293.939 C108.074,294.223 107.633,295.123 107.917,295.951 C108.2,296.778 109.101,297.219 109.928,296.935 C110.756,296.651 111.196,295.751 110.913,294.924 C110.629,294.096 109.728,293.655 108.901,293.939 z M106.999,288.391 C106.172,288.675 105.731,289.575 106.014,290.402 C106.298,291.23 107.199,291.671 108.026,291.387 C108.853,291.103 109.294,290.203 109.01,289.375 C108.727,288.548 107.826,288.107 106.999,288.391 z M105.135,282.954 C104.307,283.237 103.867,284.138 104.15,284.965 C104.434,285.793 105.335,286.233 106.162,285.95 C106.989,285.666 107.43,284.765 107.146,283.938 C106.863,283.111 105.962,282.67 105.135,282.954 z M103.233,277.405 C102.405,277.689 101.965,278.59 102.248,279.417 C102.532,280.244 103.432,280.685 104.26,280.401 C105.087,280.118 105.528,279.217 105.244,278.39 C104.961,277.563 104.06,277.122 103.233,277.405 z" fill="#BBBBBB"/>
      <path d="M115.822,267.841 C116.301,267.676 116.822,267.932 116.986,268.41 C117.15,268.889 116.895,269.41 116.416,269.574 L102.685,274.282 C102.206,274.446 101.685,274.191 101.521,273.713 C101.356,273.234 101.611,272.713 102.09,272.548 L115.822,267.841 z" fill="#BBBBBB"/>
      <path d="M116.759,264.923 C117.238,264.759 117.759,265.014 117.923,265.493 C118.088,265.971 117.832,266.492 117.354,266.657 L100.154,272.553 C99.675,272.718 99.154,272.462 98.99,271.984 C98.826,271.505 99.081,270.984 99.56,270.82 L116.759,264.923 z" fill="#BBBBBB"/>
      <path d="M112.36,246.188 C114.812,245.347 117.48,246.653 118.321,249.105 L122.81,262.198 L93.866,272.044 L89.401,259.02 C88.56,256.568 89.866,253.9 92.317,253.06 L112.36,246.188 z M96.358,256.511 C94.627,257.104 93.704,258.989 94.298,260.72 C94.892,262.451 96.776,263.374 98.507,262.78 C100.239,262.186 101.161,260.302 100.567,258.571 C99.974,256.839 98.089,255.917 96.358,256.511 z" fill="#BBBBBB"/>
      <path d="M100.148,237.714 L100.541,237.604 C101.638,237.411 102.683,238.144 102.876,239.241 C102.962,239.939 102.767,240.734 102.141,241.137 L103.416,248.633 L101.599,249.246 L100.234,241.469 C99.484,241.312 99.092,240.609 98.904,239.938 C98.777,238.758 99.227,238.307 100.148,237.714 z" fill="#BBBBBB"/>
    </g>
    <path d="M774.145,59.172 L781.851,78.528 L789.177,33.9 L812.989,293.68 L836.333,293.938 L836.232,339.9 L739.628,339.9 z" fill="#BBBBBB" id="shard"/>
  </g>
</svg>
