<?xml version="1.0" encoding="UTF-8"?>
<!DOCTYPE svg PUBLIC "-//W3C//DTD SVG 1.1//EN" "http://www.w3.org/Graphics/SVG/1.1/DTD/svg11.dtd">
<svg version="1.1" xmlns="http://www.w3.org/2000/svg" xmlns:xlink="http://www.w3.org/1999/xlink" x="0" y="0" width="1560" height="1108" viewBox="0, 0, 1560, 1108">
  <g id="Layer_1">
    <g>
      <path d="M1500,0 C1533.137,0 1560,26.863 1560,60 L1560,1048 C1560,1081.137 1533.137,1108 1500,1108 L60,1108 C26.863,1108 0,1081.137 0,1048 L0,60 C0,26.863 26.863,0 60,0 L1500,0 z M1510,235.5 L50,235.5 L50,987.5 L1510,987.5 L1510,235.5 z" fill="#FFFFFF"/>
      <path d="M1500,0 C1533.137,0 1560,26.863 1560,60 L1560,1048 C1560,1081.137 1533.137,1108 1500,1108 L60,1108 C26.863,1108 0,1081.137 0,1048 L0,60 C0,26.863 26.863,0 60,0 L1500,0 z M1510,235.5 L50,235.5 L50,987.5 L1510,987.5 L1510,235.5 z" fill-opacity="0" stroke="#000000" stroke-width="1"/>
    </g>
    <path d="M109.5,581 Q109.5,546 111.5,476 Q135.5,468 159.5,468 L177.5,468 Q194.5,491 217.5,538 Q240.5,585 248.5,599 Q250.5,592 256.5,562.5 Q262.5,533 266.5,520 Q270.5,507 277.5,483.5 Q284.5,460 293,443 Q301.5,426 312.5,412 Q340.5,417 358.5,417 Q364.5,417 369.5,416 Q393.5,470 415,579 Q436.5,688 453.5,734 Q452.5,734 449.5,733 L446.5,732 Q437.5,732 420.5,737.5 Q403.5,743 398.5,744 Q358.5,643 336.5,541 Q321.5,567 321.5,630 Q321.5,693 310.5,718 L305.5,716 Q297.5,716 283.5,718 Q269.5,720 262.5,720 L244.5,720 Q217.5,672 187.5,631 Q184.5,637 184.5,646 Q184.5,655 187,672 Q189.5,689 189.5,697 L188.5,709 Q158.5,724 136.5,724 Q129.5,724 126.5,723 Q109.5,667 109.5,581 z M464.5,657 Q464.5,630 472.5,599.5 Q480.5,569 500.5,542.5 Q520.5,516 547.5,516 Q557.5,516 575.5,521 Q593.5,526 598.5,527 Q607.5,567 607.5,608 Q607.5,636 601.5,663 Q589.5,659 563.5,658.5 Q537.5,658 526.5,655 Q521.5,675 521.5,692 Q521.5,713 531.5,729 Q541.5,745 561.5,745 Q570.5,745 587.5,740 Q604.5,735 613.5,735 Q630.5,735 636.5,749 Q594.5,765 554.5,765 Q508.5,765 486.5,735 Q464.5,705 464.5,657 z M522.5,629 L530.5,628 Q533.5,628 538.5,630 Q543.5,632 545.5,632 L552.5,629 Q554.5,615 554.5,607 Q554.5,589 549.5,567 Q527.5,592 522.5,629 z M632.5,683 Q632.5,560 710.5,501 Q742.5,504 770.5,524 Q769.5,541 762.5,591 Q757.5,630 757.5,656 L757.5,670 Q737.5,672 728.5,672 Q720.5,672 685.5,667 Q680.5,679 680.5,690 Q680.5,712 697.5,727.5 Q714.5,743 736.5,743 Q762.5,743 777.5,720 Q795.5,726 798.5,737 Q776.5,758 735.5,758 Q698.5,758 665.5,738 Q632.5,718 632.5,683 z M688.5,640 Q692.5,646 702.5,646 L711.5,646 Q720.5,627 720.5,597 Q720.5,584 714.5,558 Q711.5,566 704.5,583 Q697.5,600 693,613.5 Q688.5,627 688.5,640 z M787.5,621 Q785.5,595 810.5,595 Q816.5,595 828.5,596 Q840.5,597 845.5,597 Q848.5,582 848.5,566 Q848.5,537 841,479.5 Q833.5,422 833.5,393 Q833.5,350 843.5,321 Q848.5,324 870,326.5 Q891.5,329 910.5,351 Q904.5,377 904.5,418 Q904.5,438 908.5,499 Q910.5,534 910.5,560 Q910.5,580 909.5,594 L915.5,594 Q922.5,594 924.5,588 Q926.5,582 926.5,575.5 Q926.5,569 930.5,569 Q938.5,569 949,577.5 Q959.5,586 971.5,599 Q983.5,612 986.5,615 Q977.5,622 946,624 Q914.5,626 907.5,628 Q906.5,640 906.5,664 Q906.5,680 907,697 Q907.5,714 908.5,735 Q909.5,756 909.5,768 Q901.5,769 886.5,770 Q871.5,771 864.5,772 L864.5,752 Q864.5,731 861.5,695 Q857.5,651 857.5,634 Q851.5,632 825.5,630.5 Q799.5,629 787.5,621 z M1002.5,613 Q1002.5,593 1004.5,555 Q1015.5,556 1024.5,560 Q1033.5,564 1045.5,570.5 Q1057.5,577 1063.5,580 L1062.5,607 Q1062.5,666 1071.5,723 Q1090.5,716 1102.5,700 Q1114.5,684 1119,658.5 Q1123.5,633 1124.5,616.5 Q1125.5,600 1126.5,572 L1126.5,561 Q1129.5,562 1135.5,562 Q1155.5,564 1184.5,587 Q1184.5,590 1185,596.5 Q1185.5,603 1185.5,606 Q1185.5,621 1181.5,636 Q1177.5,651 1174,658 Q1170.5,665 1159.5,683 Q1148.5,701 1145.5,706 Q1130.5,718 1111.5,748 Q1090.5,755 1073.5,755 Q1002.5,755 1002.5,613 z M1202.5,721 Q1209.5,715 1226.5,711 Q1226.5,708 1227.5,702 Q1231.5,667 1234.5,645.5 Q1237.5,624 1247,586.5 Q1256.5,549 1269,527 Q1281.5,505 1304.5,487.5 Q1327.5,470 1357.5,470 Q1391.5,470 1433.5,494 Q1450.5,531 1450.5,569 Q1450.5,635 1404,688 Q1357.5,741 1291.5,756 Q1289.5,788 1289.5,804 Q1289.5,877 1307.5,921 Q1299.5,919 1270.5,919 Q1255.5,919 1248.5,917 Q1239.5,896 1232,821 Q1224.5,746 1202.5,721 z M1292.5,696 Q1331.5,686 1358,648 Q1384.5,610 1384.5,569 Q1384.5,539 1369.5,513 Q1346.5,534 1330,568.5 Q1313.5,603 1307,628.5 Q1300.5,654 1292.5,696 z" fill="#FFFFFF"/>
  </g>
</svg>
