<svg xmlns="http://www.w3.org/2000/svg" width="1560" height="1108" viewBox="0, 0, 1560, 1108"><path d="M1500 0c33.137 0 60 26.863 60 60v988c0 33.137-26.863 60-60 60H60c-33.137 0-60-26.863-60-60V60C0 26.863 26.863 0 60 0h1440zm10 235.5H50v752h1460v-752z" fill="#FFF"/><path d="M1500 0c33.137 0 60 26.863 60 60v988c0 33.137-26.863 60-60 60H60c-33.137 0-60-26.863-60-60V60C0 26.863 26.863 0 60 0h1440zm10 235.5H50v752h1460v-752z" stroke="#000" fill="none"/><path d="M109.5 581q0-35 2-105 24-8 48-8h18q17 23 40 70t31 61q2-7 8-36.5t10-42.5q4-13 11-36.5T293 443q8.5-17 19.5-31 28 5 46 5 6 0 11-1 24 54 45.5 163t38.5 155q-1 0-4-1l-3-1q-9 0-26 5.5t-22 6.5q-40-101-62-203-15 26-15 89t-11 88l-5-2q-8 0-22 2t-21 2h-18q-27-48-57-89-3 6-3 15t2.5 26q2.5 17 2.5 25l-1 12q-30 15-52 15-7 0-10-1-17-56-17-142zm355 76q0-27 8-57.5t28-57q20-26.5 47-26.5 10 0 28 5t23 6q9 40 9 81 0 28-6 55-12-4-38-4.5t-37-3.5q-5 20-5 37 0 21 10 37t30 16q9 0 26-5t26-5q17 0 23 14-42 16-82 16-46 0-68-30t-22-78zm58-28l8-1q3 0 8 2t7 2l7-3q2-14 2-22 0-18-5-40-22 25-27 62zm110 54q0-123 78-182 32 3 60 23-1 17-8 67-5 39-5 65v14q-20 2-29 2-8 0-43-5-5 12-5 23 0 22 17 37.5t39 15.5q26 0 41-23 18 6 21 17-22 21-63 21-37 0-70-20t-33-55zm56-43q4 6 14 6h9q9-19 9-49 0-13-6-39-3 8-10 25T693 613.5q-4.5 13.5-4.5 26.5zm99-19q-2-26 23-26 6 0 18 1t17 1q3-15 3-31 0-29-7.5-86.5t-7.5-86.5q0-43 10-72 5 3 26.5 5.5t40.5 24.5q-6 26-6 67 0 20 4 81 2 35 2 61 0 20-1 34h6q7 0 9-6t2-12.5q0-6.5 4-6.5 8 0 18.5 8.5t22.5 21.5q12 13 15 16-9 7-40.5 9t-38.5 4q-1 12-1 36 0 16 .5 33t1.5 38q1 21 1 33-8 1-23 2t-22 2v-20q0-21-3-57-4-44-4-61-6-2-32-3.5t-38-9.5zm215-8q0-20 2-58 11 1 20 5t21 10.5q12 6.5 18 9.5l-1 27q0 59 9 116 19-7 31-23t16.5-41.5q4.5-25.5 5.5-42t2-44.5v-11q3 1 9 1 20 2 49 25 0 3 .5 9.5t.5 9.5q0 15-4 30t-7.5 22q-3.5 7-14.5 25t-14 23q-15 12-34 42-21 7-38 7-71 0-71-142zm200 108q7-6 24-10 0-3 1-9 4-35 7-56.5t12.5-59q9.5-37.5 22-59.5t35.5-39.5q23-17.5 53-17.5 34 0 76 24 17 37 17 75 0 66-46.5 119t-112.5 68q-2 32-2 48 0 73 18 117-8-2-37-2-15 0-22-2-9-21-16.5-96t-29.5-100zm90-25q39-10 65.5-48t26.5-79q0-30-15-56-23 21-39.5 55.5t-23 60q-6.5 25.5-14.5 67.5z" fill="#FFF"/></svg>