<?xml version="1.0" encoding="UTF-8"?>
<!DOCTYPE svg PUBLIC "-//W3C//DTD SVG 1.1//EN" "http://www.w3.org/Graphics/SVG/1.1/DTD/svg11.dtd">
<svg version="1.1" xmlns="http://www.w3.org/2000/svg" xmlns:xlink="http://www.w3.org/1999/xlink" x="0" y="0" width="484.488" height="325.44" viewBox="0, 0, 484.488, 325.44">
  <defs>
    <clipPath id="Clip_1">
      <path d="M-5.99,-5.821 L54.964,-5.821 L54.964,107.265 L-5.99,107.265 z M4.946,2.179 L0.01,2.179 L0.01,99.265 L3.026,99.265 L3.026,5.744 L3.301,5.744 L44.165,99.265 L48.964,99.265 L48.964,2.179 L45.947,2.179 L45.947,95.562 L45.673,95.562 L4.946,2.179 z"/>
    </clipPath>
    <filter id="Shadow_2">
      <feGaussianBlur in="SourceAlpha" stdDeviation="2.5"/>
      <feOffset dx="0" dy="2" result="offsetblur"/>
      <feFlood flood-color="#000000"/>
      <feComposite in2="offsetblur" operator="in"/>
    </filter>
    <clipPath id="Clip_3">
      <path d="M63.122,-8.015 L133.812,-8.015 L133.812,109.459 L63.122,109.459 z M98.467,2.728 Q104.912,2.728 109.848,6.499 Q114.785,10.269 118.076,16.714 Q121.367,23.159 123.081,31.936 Q124.795,40.712 124.795,50.722 Q124.795,60.732 123.149,69.44 Q121.504,78.147 118.213,84.661 Q114.922,91.174 109.985,94.945 Q105.049,98.716 98.467,98.716 Q91.747,98.716 86.811,94.945 Q81.874,91.174 78.583,84.661 Q75.292,78.147 73.715,69.44 Q72.138,60.732 72.138,50.722 Q72.138,40.712 73.715,31.936 Q75.292,23.159 78.583,16.714 Q81.874,10.269 86.811,6.499 Q91.747,2.728 98.467,2.727 z M98.467,-0.015 Q91.199,-0.015 85.714,3.756 Q80.229,7.527 76.526,14.246 Q72.824,20.965 70.973,30.29 Q69.122,39.615 69.122,50.722 Q69.122,61.829 71.11,71.154 Q73.098,80.478 76.869,87.198 Q80.64,93.917 86.057,97.688 Q91.473,101.459 98.467,101.459 Q105.46,101.459 110.877,97.688 Q116.293,93.917 120.064,87.198 Q123.835,80.478 125.823,71.154 Q127.812,61.829 127.812,50.722 Q127.812,39.615 125.823,30.29 Q123.835,20.965 120.064,14.246 Q116.293,7.527 110.877,3.756 Q105.46,-0.015 98.467,-0.015 z"/>
    </clipPath>
    <filter id="Shadow_4">
      <feGaussianBlur in="SourceAlpha" stdDeviation="2.5"/>
      <feOffset dx="0" dy="2" result="offsetblur"/>
      <feFlood flood-color="#000000"/>
      <feComposite in2="offsetblur" operator="in"/>
    </filter>
    <clipPath id="Clip_5">
      <path d="M141.969,-5.821 L204.021,-5.821 L204.021,107.265 L141.969,107.265 z M164.836,4.922 Q171.144,4.922 176.629,7.664 Q182.114,10.407 186.228,16.029 Q190.342,21.651 192.673,30.29 Q195.004,38.929 195.004,50.722 Q195.004,62.515 192.673,71.154 Q190.342,79.793 186.228,85.415 Q182.114,91.037 176.629,93.78 Q171.144,96.522 164.836,96.522 L150.986,96.522 L150.986,4.922 L164.836,4.922 z M165.385,2.179 L147.969,2.179 L147.969,99.265 L165.247,99.265 Q171.967,99.265 178,96.316 Q184.034,93.368 188.422,87.403 Q192.81,81.438 195.415,72.251 Q198.021,63.063 198.021,50.722 Q198.021,38.38 195.484,29.262 Q192.947,20.143 188.49,14.109 Q184.034,8.075 178.069,5.127 Q172.104,2.179 165.385,2.179 z"/>
    </clipPath>
    <filter id="Shadow_6">
      <feGaussianBlur in="SourceAlpha" stdDeviation="2.5"/>
      <feOffset dx="0" dy="2" result="offsetblur"/>
      <feFlood flood-color="#000000"/>
      <feComposite in2="offsetblur" operator="in"/>
    </filter>
    <clipPath id="Clip_7">
      <path d="M212.178,-5.821 L260.105,-5.821 L260.105,107.265 L212.178,107.265 z M253.146,2.179 L218.178,2.179 L218.178,99.265 L254.105,99.265 L254.105,96.522 L221.195,96.522 L221.195,50.31 L251.226,50.31 L251.226,47.568 L221.195,47.568 L221.195,4.922 L253.146,4.922 L253.146,2.179 z"/>
    </clipPath>
    <filter id="Shadow_8">
      <feGaussianBlur in="SourceAlpha" stdDeviation="2.5"/>
      <feOffset dx="0" dy="2" result="offsetblur"/>
      <feFlood flood-color="#000000"/>
      <feComposite in2="offsetblur" operator="in"/>
    </filter>
    <clipPath id="Clip_9">
      <path d="M266.343,-5.821 L322.361,-5.821 L322.361,107.265 L266.343,107.265 z M290.718,4.922 Q294.558,4.922 298.054,5.95 Q301.551,6.978 304.225,9.31 Q306.899,11.641 308.545,15.617 Q310.19,19.594 310.19,25.491 Q310.19,31.113 308.545,35.158 Q306.899,39.203 304.157,41.74 Q301.414,44.277 297.986,45.511 Q294.558,46.745 291.129,46.745 L275.36,46.745 L275.36,4.922 L290.718,4.922 z M293.735,49.488 Q297.026,49.488 300.454,50.79 Q303.882,52.093 306.762,54.973 Q309.642,57.852 311.493,62.515 Q313.344,67.177 313.344,73.759 Q313.344,79.793 311.836,84.112 Q310.327,88.432 307.585,91.174 Q304.842,93.917 301.071,95.219 Q297.3,96.522 292.775,96.522 L275.36,96.522 L275.36,49.488 L293.735,49.488 z M291.129,2.179 L272.343,2.179 L272.343,99.265 L293.735,99.265 Q297.3,99.265 301.277,98.099 Q305.254,96.934 308.613,94.054 Q311.973,91.174 314.167,86.169 Q316.361,81.164 316.361,73.348 Q316.361,66.903 314.578,62.24 Q312.796,57.578 310.122,54.561 Q307.448,51.545 304.362,49.968 Q301.277,48.391 298.672,47.979 L298.672,47.705 Q301.277,46.882 303.882,45.237 Q306.488,43.591 308.545,40.849 Q310.602,38.106 311.904,34.267 Q313.207,30.427 313.207,25.216 Q313.207,18.634 311.15,14.246 Q309.093,9.858 305.939,7.184 Q302.785,4.51 298.877,3.345 Q294.969,2.179 291.129,2.179 z"/>
    </clipPath>
    <filter id="Shadow_10">
      <feGaussianBlur in="SourceAlpha" stdDeviation="2.5"/>
      <feOffset dx="0" dy="2" result="offsetblur"/>
      <feFlood flood-color="#000000"/>
      <feComposite in2="offsetblur" operator="in"/>
    </filter>
    <clipPath id="Clip_11">
      <path d="M324.348,-8.015 L395.038,-8.015 L395.038,109.459 L324.348,109.459 z M359.693,2.728 Q366.138,2.728 371.074,6.499 Q376.011,10.269 379.302,16.714 Q382.593,23.159 384.307,31.936 Q386.021,40.712 386.021,50.722 Q386.021,60.732 384.376,69.44 Q382.73,78.147 379.439,84.661 Q376.148,91.174 371.212,94.945 Q366.275,98.716 359.693,98.716 Q352.974,98.716 348.037,94.945 Q343.101,91.174 339.81,84.661 Q336.518,78.147 334.942,69.44 Q333.365,60.732 333.365,50.722 Q333.365,40.712 334.942,31.936 Q336.518,23.159 339.81,16.714 Q343.101,10.269 348.037,6.499 Q352.974,2.728 359.693,2.727 z M359.693,-0.015 Q352.425,-0.015 346.94,3.756 Q341.455,7.527 337.753,14.246 Q334.05,20.965 332.199,30.29 Q330.348,39.615 330.348,50.722 Q330.348,61.829 332.336,71.154 Q334.324,80.478 338.095,87.198 Q341.866,93.917 347.283,97.688 Q352.699,101.459 359.693,101.459 Q366.686,101.459 372.103,97.688 Q377.519,93.917 381.29,87.198 Q385.061,80.478 387.05,71.154 Q389.038,61.829 389.038,50.722 Q389.038,39.615 387.05,30.29 Q385.061,20.965 381.29,14.246 Q377.519,7.527 372.103,3.756 Q366.686,-0.015 359.693,-0.015 z"/>
    </clipPath>
    <filter id="Shadow_12">
      <feGaussianBlur in="SourceAlpha" stdDeviation="2.5"/>
      <feOffset dx="0" dy="2" result="offsetblur"/>
      <feFlood flood-color="#000000"/>
      <feComposite in2="offsetblur" operator="in"/>
    </filter>
    <clipPath id="Clip_13">
      <path d="M386.878,-5.821 L440.29,-5.821 L440.29,107.265 L386.878,107.265 z M434.29,2.179 L392.878,2.179 L392.878,4.922 L412.075,4.922 L412.075,99.265 L415.092,99.265 L415.092,4.922 L434.29,4.922 L434.29,2.179 z"/>
    </clipPath>
    <filter id="Shadow_14">
      <feGaussianBlur in="SourceAlpha" stdDeviation="2.5"/>
      <feOffset dx="0" dy="2" result="offsetblur"/>
      <feFlood flood-color="#000000"/>
      <feComposite in2="offsetblur" operator="in"/>
    </filter>
    <clipPath id="Clip_15">
      <path d="M435.695,-8.015 L490.478,-8.015 L490.478,109.459 L435.695,109.459 z M464.869,-0.015 Q460.481,-0.015 456.504,1.562 Q452.528,3.139 449.511,6.224 Q446.494,9.31 444.711,13.903 Q442.929,18.497 442.929,24.531 Q442.929,30.153 444.643,34.404 Q446.357,38.655 449.1,41.877 Q451.842,45.1 455.476,47.499 Q459.11,49.899 462.949,51.819 Q466.24,53.464 469.531,55.658 Q472.822,57.852 475.496,60.801 Q478.17,63.749 479.816,67.588 Q481.461,71.428 481.461,76.365 Q481.461,81.712 479.884,85.895 Q478.308,90.077 475.771,92.888 Q473.234,95.699 469.874,97.208 Q466.515,98.716 462.812,98.716 Q457.601,98.716 452.528,95.974 Q447.454,93.231 444.163,87.746 L441.695,89.529 Q445.123,95.288 450.539,98.373 Q455.956,101.459 462.949,101.459 Q467.2,101.459 471.108,99.813 Q475.016,98.168 478.033,95.014 Q481.05,91.86 482.764,87.198 Q484.478,82.535 484.478,76.502 Q484.478,70.879 482.696,66.629 Q480.913,62.378 477.965,59.087 Q475.016,55.796 471.177,53.259 Q467.337,50.722 463.086,48.528 Q460.07,47.019 456.984,44.963 Q453.899,42.906 451.431,40.163 Q448.962,37.421 447.454,33.65 Q445.946,29.879 445.946,24.805 Q445.946,19.046 447.591,14.863 Q449.237,10.681 451.911,8.007 Q454.585,5.333 457.944,4.03 Q461.304,2.728 464.732,2.728 Q469.669,2.728 473.714,4.647 Q477.759,6.567 480.776,11.641 L482.97,9.858 Q479.953,4.51 475.222,2.248 Q470.491,-0.015 464.869,-0.015 z"/>
    </clipPath>
    <filter id="Shadow_16">
      <feGaussianBlur in="SourceAlpha" stdDeviation="2.5"/>
      <feOffset dx="0" dy="2" result="offsetblur"/>
      <feFlood flood-color="#000000"/>
      <feComposite in2="offsetblur" operator="in"/>
    </filter>
    <clipPath id="Clip_17">
      <path d="M43.101,218.175 L86.503,218.175 L86.503,331.261 L43.101,331.261 z M52.118,226.175 L49.101,226.175 L49.101,323.261 L80.503,323.261 L80.503,320.381 L52.118,320.381 L52.118,226.175 z"/>
    </clipPath>
    <filter id="Shadow_18">
      <feGaussianBlur in="SourceAlpha" stdDeviation="2.5"/>
      <feOffset dx="0" dy="2" result="offsetblur"/>
      <feFlood flood-color="#000000"/>
      <feComposite in2="offsetblur" operator="in"/>
    </filter>
    <clipPath id="Clip_19">
      <path d="M78.617,215.981 L149.307,215.981 L149.307,333.455 L78.617,333.455 z M113.962,226.724 Q120.407,226.724 125.343,230.495 Q130.28,234.266 133.571,240.711 Q136.862,247.156 138.576,255.932 Q140.29,264.708 140.29,274.718 Q140.29,284.728 138.645,293.436 Q136.999,302.143 133.708,308.657 Q130.417,315.171 125.481,318.941 Q120.544,322.712 113.962,322.712 Q107.243,322.712 102.306,318.941 Q97.37,315.171 94.079,308.657 Q90.788,302.143 89.211,293.436 Q87.634,284.728 87.634,274.718 Q87.634,264.708 89.211,255.932 Q90.788,247.156 94.079,240.711 Q97.37,234.266 102.306,230.495 Q107.243,226.724 113.962,226.724 z M113.962,223.981 Q106.694,223.981 101.209,227.752 Q95.724,231.523 92.022,238.242 Q88.319,244.962 86.468,254.286 Q84.617,263.611 84.617,274.718 Q84.617,285.825 86.605,295.15 Q88.593,304.475 92.364,311.194 Q96.135,317.913 101.552,321.684 Q106.968,325.455 113.962,325.455 Q120.955,325.455 126.372,321.684 Q131.788,317.913 135.559,311.194 Q139.33,304.475 141.319,295.15 Q143.307,285.825 143.307,274.718 Q143.307,263.611 141.319,254.286 Q139.33,244.962 135.559,238.242 Q131.788,231.523 126.372,227.752 Q120.955,223.981 113.962,223.981 z"/>
    </clipPath>
    <filter id="Shadow_20">
      <feGaussianBlur in="SourceAlpha" stdDeviation="2.5"/>
      <feOffset dx="0" dy="2" result="offsetblur"/>
      <feFlood flood-color="#000000"/>
      <feComposite in2="offsetblur" operator="in"/>
    </filter>
    <clipPath id="Clip_21">
      <path d="M157.465,218.175 L218.419,218.175 L218.419,331.261 L157.465,331.261 z M168.401,226.175 L163.465,226.175 L163.465,323.261 L166.482,323.261 L166.482,229.741 L166.756,229.741 L207.62,323.261 L212.419,323.261 L212.419,226.175 L209.402,226.175 L209.402,319.559 L209.128,319.559 L168.401,226.175 z"/>
    </clipPath>
    <filter id="Shadow_22">
      <feGaussianBlur in="SourceAlpha" stdDeviation="2.5"/>
      <feOffset dx="0" dy="2" result="offsetblur"/>
      <feFlood flood-color="#000000"/>
      <feComposite in2="offsetblur" operator="in"/>
    </filter>
    <clipPath id="Clip_23">
      <path d="M230.827,218.175 L292.879,218.175 L292.879,331.261 L230.827,331.261 z M253.694,228.918 Q260.002,228.918 265.487,231.66 Q270.972,234.403 275.086,240.025 Q279.2,245.647 281.531,254.286 Q283.862,262.925 283.862,274.718 Q283.862,286.511 281.531,295.15 Q279.2,303.789 275.086,309.411 Q270.972,315.033 265.487,317.776 Q260.002,320.518 253.694,320.518 L239.844,320.518 L239.844,228.918 L253.694,228.918 z M254.243,226.175 L236.827,226.175 L236.827,323.261 L254.106,323.261 Q260.825,323.261 266.858,320.313 Q272.892,317.365 277.28,311.4 Q281.668,305.435 284.273,296.247 Q286.879,287.06 286.879,274.718 Q286.879,262.377 284.342,253.258 Q281.805,244.139 277.348,238.105 Q272.892,232.072 266.927,229.124 Q260.962,226.175 254.243,226.175 z"/>
    </clipPath>
    <filter id="Shadow_24">
      <feGaussianBlur in="SourceAlpha" stdDeviation="2.5"/>
      <feOffset dx="0" dy="2" result="offsetblur"/>
      <feFlood flood-color="#000000"/>
      <feComposite in2="offsetblur" operator="in"/>
    </filter>
    <clipPath id="Clip_25">
      <path d="M296.785,215.981 L367.476,215.981 L367.476,333.455 L296.785,333.455 z M332.131,226.724 Q338.576,226.724 343.512,230.495 Q348.449,234.266 351.74,240.711 Q355.031,247.156 356.745,255.932 Q358.459,264.708 358.459,274.718 Q358.459,284.728 356.813,293.436 Q355.168,302.143 351.877,308.657 Q348.586,315.171 343.649,318.941 Q338.713,322.712 332.131,322.712 Q325.411,322.712 320.475,318.941 Q315.538,315.171 312.247,308.657 Q308.956,302.143 307.379,293.436 Q305.802,284.728 305.802,274.718 Q305.802,264.708 307.379,255.932 Q308.956,247.156 312.247,240.711 Q315.538,234.266 320.475,230.495 Q325.411,226.724 332.13,226.724 z M332.131,223.981 Q324.863,223.981 319.378,227.752 Q313.893,231.523 310.19,238.242 Q306.488,244.962 304.637,254.286 Q302.785,263.611 302.785,274.718 Q302.785,285.825 304.774,295.15 Q306.762,304.475 310.533,311.194 Q314.304,317.913 319.721,321.684 Q325.137,325.455 332.131,325.455 Q339.124,325.455 344.541,321.684 Q349.957,317.913 353.728,311.194 Q357.499,304.475 359.487,295.15 Q361.476,285.825 361.476,274.718 Q361.476,263.611 359.487,254.286 Q357.499,244.962 353.728,238.242 Q349.957,231.523 344.541,227.752 Q339.124,223.981 332.13,223.981 z"/>
    </clipPath>
    <filter id="Shadow_26">
      <feGaussianBlur in="SourceAlpha" stdDeviation="2.5"/>
      <feOffset dx="0" dy="2" result="offsetblur"/>
      <feFlood flood-color="#000000"/>
      <feComposite in2="offsetblur" operator="in"/>
    </filter>
    <clipPath id="Clip_27">
      <path d="M375.633,218.175 L436.587,218.175 L436.587,331.261 L375.633,331.261 z M386.57,226.175 L381.633,226.175 L381.633,323.261 L384.65,323.261 L384.65,229.741 L384.924,229.741 L425.788,323.261 L430.587,323.261 L430.587,226.175 L427.571,226.175 L427.571,319.559 L427.296,319.559 L386.57,226.175 z"/>
    </clipPath>
    <filter id="Shadow_28">
      <feGaussianBlur in="SourceAlpha" stdDeviation="2.5"/>
      <feOffset dx="0" dy="2" result="offsetblur"/>
      <feFlood flood-color="#000000"/>
      <feComposite in2="offsetblur" operator="in"/>
    </filter>
    <clipPath id="Clip_29">
      <path d="M209.634,143.704 L263.643,143.704 L263.643,186.855 L209.634,186.855 z M236.073,152.609 Q237.732,152.609 238.524,153.703 Q239.316,154.796 239.316,156.38 Q239.316,158.266 238.637,160.566 Q237.959,162.866 236.79,165.28 Q235.621,167.693 234.037,169.956 Q232.453,172.218 230.605,173.991 Q228.757,175.763 226.759,176.857 Q224.76,177.95 222.724,177.95 Q221.215,177.95 220.461,176.819 Q219.707,175.688 219.707,173.727 Q219.707,171.69 220.461,169.352 Q221.215,167.014 222.535,164.676 Q223.855,162.338 225.514,160.151 Q227.174,157.964 229.021,156.305 Q230.869,154.646 232.679,153.627 Q234.489,152.609 236.073,152.609 z M236.752,151.704 Q234.112,151.704 231.51,152.722 Q228.908,153.741 226.57,155.438 Q224.232,157.134 222.234,159.284 Q220.235,161.433 218.764,163.658 Q217.294,165.883 216.464,168.07 Q215.634,170.257 215.634,171.917 Q215.634,175.084 217.294,176.97 Q218.953,178.855 222.196,178.855 Q225.741,178.855 229.135,177.045 Q232.528,175.235 235.357,172.52 Q238.185,169.805 240.221,166.562 Q242.258,163.319 243.012,160.453 L243.163,160.453 Q243.992,161.735 245.501,162.678 Q247.009,163.621 249.121,163.621 Q251.308,163.621 253.57,162.414 Q255.833,161.207 257.643,159.171 L257.04,158.794 Q255.305,160.604 253.307,161.735 Q251.308,162.866 249.045,162.866 Q246.481,162.866 245.01,161.396 Q243.54,159.925 243.389,158.19 Q243.238,155.324 241.541,153.514 Q239.844,151.704 236.752,151.704 z"/>
    </clipPath>
    <filter id="Shadow_30">
      <feGaussianBlur in="SourceAlpha" stdDeviation="2.5"/>
      <feOffset dx="0" dy="2" result="offsetblur"/>
      <feFlood flood-color="#000000"/>
      <feComposite in2="offsetblur" operator="in"/>
    </filter>
    <clipPath id="Clip_31">
      <path d="M199.528,117.76 L298.261,117.76 L298.261,207.822 L199.528,207.822 z M286.831,125.76 Q282.758,125.76 279.062,128.136 Q275.367,130.511 271.973,134.32 Q268.579,138.129 265.487,142.88 Q262.395,147.632 259.453,152.308 L253.646,152.308 L253.646,153.213 L259.001,153.213 Q255.532,158.718 252.213,164.262 Q248.895,169.805 245.614,174.896 Q242.333,179.987 239.052,184.361 Q235.772,188.735 232.34,191.978 Q228.908,195.221 225.213,197.069 Q221.517,198.917 217.445,198.917 Q213.221,198.917 211.034,196.617 Q208.847,194.316 208.847,190.395 Q208.847,187.604 210.431,186.02 Q212.014,184.436 214.277,184.286 L214.277,183.682 L213.598,183.682 Q209.224,183.682 207.376,185.756 Q205.528,187.83 205.528,190.772 Q205.528,193.034 206.509,194.731 Q207.489,196.428 209.073,197.559 Q210.657,198.691 212.731,199.256 Q214.805,199.822 217.068,199.822 Q223.478,199.822 228.758,197.182 Q234.037,194.543 239.316,188.886 Q244.596,183.23 250.328,174.406 Q256.059,165.582 263.3,153.213 L280.797,153.213 L280.797,152.308 L263.752,152.308 Q266.166,148.386 268.843,143.898 Q271.521,139.411 274.349,135.564 Q277.177,131.718 280.081,129.192 Q282.984,126.665 285.775,126.665 Q287.509,126.665 288.226,127.57 Q288.942,128.475 288.942,129.983 Q288.942,131.266 288.754,132.208 Q288.565,133.151 288.264,134.207 Q289.998,134.056 291.13,132.887 Q292.261,131.718 292.261,129.908 Q292.261,127.796 290.753,126.778 Q289.244,125.76 286.831,125.76 z"/>
    </clipPath>
    <filter id="Shadow_32">
      <feGaussianBlur in="SourceAlpha" stdDeviation="2.5"/>
      <feOffset dx="0" dy="2" result="offsetblur"/>
      <feFlood flood-color="#000000"/>
      <feComposite in2="offsetblur" operator="in"/>
    </filter>
  </defs>
  <g id="Layer_1">
    <g>
      <path d="M4.946,2.179 L45.673,95.562 L45.947,95.562 L45.947,2.179 L48.964,2.179 L48.964,99.265 L44.165,99.265 L3.301,5.744 L3.026,5.744 L3.026,99.265 L0.01,99.265 L0.01,2.179 L4.946,2.179 z" clip-path="url(#Clip_1)" filter="url(#Shadow_2)" fill="rgba(0,0,0,0.75)"/>
      <path d="M44.165,99.265 L3.301,5.744 L3.027,5.744 L3.027,99.265 L0.01,99.265 L0.01,2.179 L4.946,2.179 L45.673,95.562 L45.947,95.562 L45.947,2.179 L48.964,2.179 L48.964,99.265 z" fill="#FFFFFF"/>
    </g>
    <g>
      <path d="M98.467,-0.015 Q105.46,-0.015 110.877,3.756 Q116.293,7.527 120.064,14.246 Q123.835,20.965 125.823,30.29 Q127.812,39.615 127.812,50.722 Q127.812,61.829 125.823,71.154 Q123.835,80.478 120.064,87.198 Q116.293,93.917 110.877,97.688 Q105.46,101.459 98.467,101.459 Q91.473,101.459 86.057,97.688 Q80.64,93.917 76.869,87.198 Q73.098,80.478 71.11,71.154 Q69.122,61.829 69.122,50.722 Q69.122,39.615 70.973,30.29 Q72.824,20.965 76.526,14.246 Q80.229,7.527 85.714,3.756 Q91.199,-0.015 98.467,-0.015 z M98.467,2.727 Q91.747,2.728 86.811,6.499 Q81.874,10.269 78.583,16.714 Q75.292,23.159 73.715,31.936 Q72.138,40.712 72.138,50.722 Q72.138,60.732 73.715,69.44 Q75.292,78.147 78.583,84.661 Q81.874,91.174 86.811,94.945 Q91.747,98.716 98.467,98.716 Q105.049,98.716 109.985,94.945 Q114.922,91.174 118.213,84.661 Q121.504,78.147 123.149,69.44 Q124.795,60.732 124.795,50.722 Q124.795,40.712 123.081,31.936 Q121.367,23.159 118.076,16.714 Q114.785,10.269 109.848,6.499 Q104.912,2.728 98.467,2.728 z" clip-path="url(#Clip_3)" filter="url(#Shadow_4)" fill="rgba(0,0,0,0.75)"/>
      <path d="M127.812,50.722 Q127.812,61.829 125.823,71.154 Q123.835,80.478 120.064,87.198 Q116.293,93.917 110.877,97.688 Q105.46,101.459 98.467,101.459 Q91.473,101.459 86.057,97.688 Q80.64,93.917 76.869,87.198 Q73.098,80.478 71.11,71.154 Q69.122,61.829 69.122,50.722 Q69.122,39.615 70.973,30.29 Q72.824,20.965 76.526,14.246 Q80.229,7.527 85.714,3.756 Q91.199,-0.015 98.467,-0.015 Q105.46,-0.015 110.877,3.756 Q116.293,7.527 120.064,14.246 Q123.835,20.965 125.823,30.29 Q127.812,39.615 127.812,50.722 z M124.795,50.722 Q124.795,40.712 123.081,31.936 Q121.367,23.159 118.076,16.714 Q114.785,10.269 109.848,6.499 Q104.912,2.728 98.467,2.728 Q91.747,2.728 86.811,6.499 Q81.874,10.269 78.583,16.714 Q75.292,23.159 73.715,31.936 Q72.138,40.712 72.138,50.722 Q72.138,60.732 73.715,69.44 Q75.292,78.147 78.583,84.661 Q81.874,91.174 86.811,94.945 Q91.747,98.716 98.467,98.716 Q105.049,98.716 109.985,94.945 Q114.922,91.174 118.213,84.661 Q121.504,78.147 123.149,69.44 Q124.795,60.732 124.795,50.722 z" fill="#FFFFFF"/>
    </g>
    <g>
      <path d="M165.385,2.179 Q172.104,2.179 178.069,5.127 Q184.034,8.075 188.49,14.109 Q192.947,20.143 195.484,29.262 Q198.021,38.38 198.021,50.722 Q198.021,63.063 195.415,72.251 Q192.81,81.438 188.422,87.403 Q184.034,93.368 178,96.316 Q171.967,99.265 165.247,99.265 L147.969,99.265 L147.969,2.179 L165.385,2.179 z M164.836,4.922 L150.986,4.922 L150.986,96.522 L164.836,96.522 Q171.144,96.522 176.629,93.78 Q182.114,91.037 186.228,85.415 Q190.342,79.793 192.673,71.154 Q195.004,62.515 195.004,50.722 Q195.004,38.929 192.673,30.29 Q190.342,21.651 186.228,16.029 Q182.114,10.407 176.629,7.664 Q171.144,4.922 164.836,4.922 z" clip-path="url(#Clip_5)" filter="url(#Shadow_6)" fill="rgba(0,0,0,0.75)"/>
      <path d="M198.021,50.722 Q198.021,63.063 195.415,72.251 Q192.81,81.438 188.422,87.403 Q184.034,93.368 178,96.316 Q171.967,99.265 165.247,99.265 L147.969,99.265 L147.969,2.179 L165.385,2.179 Q172.104,2.179 178.069,5.127 Q184.034,8.075 188.49,14.109 Q192.947,20.143 195.484,29.262 Q198.021,38.38 198.021,50.722 z M150.986,4.922 L150.986,96.522 L164.836,96.522 Q171.144,96.522 176.629,93.78 Q182.114,91.037 186.228,85.415 Q190.342,79.793 192.673,71.154 Q195.004,62.515 195.004,50.722 Q195.004,38.929 192.673,30.29 Q190.342,21.651 186.228,16.029 Q182.114,10.407 176.629,7.664 Q171.144,4.922 164.836,4.922 z" fill="#FFFFFF"/>
    </g>
    <g>
      <path d="M253.146,2.179 L253.146,4.922 L221.195,4.922 L221.195,47.568 L251.226,47.568 L251.226,50.31 L221.195,50.31 L221.195,96.522 L254.105,96.522 L254.105,99.265 L218.178,99.265 L218.178,2.179 L253.146,2.179 z" clip-path="url(#Clip_7)" filter="url(#Shadow_8)" fill="rgba(0,0,0,0.75)"/>
      <path d="M218.178,99.265 L218.178,2.179 L253.146,2.179 L253.146,4.922 L221.195,4.922 L221.195,47.568 L251.226,47.568 L251.226,50.31 L221.195,50.31 L221.195,96.522 L254.105,96.522 L254.105,99.265 z" fill="#FFFFFF"/>
    </g>
    <g>
      <path d="M291.129,2.179 Q294.969,2.179 298.877,3.345 Q302.785,4.51 305.939,7.184 Q309.093,9.858 311.15,14.246 Q313.207,18.634 313.207,25.216 Q313.207,30.427 311.904,34.267 Q310.602,38.106 308.545,40.849 Q306.488,43.591 303.882,45.237 Q301.277,46.882 298.672,47.705 L298.672,47.979 Q301.277,48.391 304.362,49.968 Q307.448,51.545 310.122,54.561 Q312.796,57.578 314.578,62.24 Q316.361,66.903 316.361,73.348 Q316.361,81.164 314.167,86.169 Q311.973,91.174 308.613,94.054 Q305.254,96.934 301.277,98.099 Q297.3,99.265 293.735,99.265 L272.343,99.265 L272.343,2.179 L291.129,2.179 z M293.735,49.488 L275.36,49.488 L275.36,96.522 L292.775,96.522 Q297.3,96.522 301.071,95.219 Q304.842,93.917 307.585,91.174 Q310.327,88.432 311.836,84.112 Q313.344,79.793 313.344,73.759 Q313.344,67.177 311.493,62.515 Q309.642,57.852 306.762,54.973 Q303.882,52.093 300.454,50.79 Q297.026,49.488 293.735,49.488 z M290.718,4.922 L275.36,4.922 L275.36,46.745 L291.129,46.745 Q294.558,46.745 297.986,45.511 Q301.414,44.277 304.157,41.74 Q306.899,39.203 308.545,35.158 Q310.19,31.113 310.19,25.491 Q310.19,19.594 308.545,15.617 Q306.899,11.641 304.225,9.31 Q301.551,6.978 298.054,5.95 Q294.558,4.922 290.718,4.922 z" clip-path="url(#Clip_9)" filter="url(#Shadow_10)" fill="rgba(0,0,0,0.75)"/>
      <path d="M316.361,73.348 Q316.361,81.164 314.167,86.169 Q311.973,91.174 308.613,94.054 Q305.254,96.934 301.277,98.099 Q297.3,99.265 293.735,99.265 L272.343,99.265 L272.343,2.179 L291.13,2.179 Q294.969,2.179 298.877,3.345 Q302.785,4.51 305.939,7.184 Q309.093,9.858 311.15,14.246 Q313.207,18.634 313.207,25.216 Q313.207,30.427 311.904,34.267 Q310.602,38.106 308.545,40.849 Q306.488,43.591 303.882,45.237 Q301.277,46.882 298.672,47.705 L298.672,47.979 Q301.277,48.391 304.362,49.968 Q307.448,51.545 310.122,54.561 Q312.796,57.578 314.578,62.24 Q316.361,66.903 316.361,73.348 z M310.19,25.491 Q310.19,19.594 308.545,15.617 Q306.899,11.641 304.225,9.31 Q301.551,6.978 298.054,5.95 Q294.558,4.922 290.718,4.922 L275.36,4.922 L275.36,46.745 L291.13,46.745 Q294.558,46.745 297.986,45.511 Q301.414,44.277 304.157,41.74 Q306.899,39.203 308.545,35.158 Q310.19,31.113 310.19,25.491 z M313.344,73.759 Q313.344,67.177 311.493,62.515 Q309.642,57.852 306.762,54.973 Q303.882,52.093 300.454,50.79 Q297.026,49.488 293.735,49.488 L275.36,49.488 L275.36,96.522 L292.775,96.522 Q297.3,96.522 301.071,95.219 Q304.842,93.917 307.585,91.174 Q310.327,88.432 311.836,84.112 Q313.344,79.793 313.344,73.759 z" fill="#FFFFFF"/>
    </g>
    <g>
      <path d="M359.693,-0.015 Q366.686,-0.015 372.103,3.756 Q377.519,7.527 381.29,14.246 Q385.061,20.965 387.05,30.29 Q389.038,39.615 389.038,50.722 Q389.038,61.829 387.05,71.154 Q385.061,80.478 381.29,87.198 Q377.519,93.917 372.103,97.688 Q366.686,101.459 359.693,101.459 Q352.699,101.459 347.283,97.688 Q341.866,93.917 338.095,87.198 Q334.324,80.478 332.336,71.154 Q330.348,61.829 330.348,50.722 Q330.348,39.615 332.199,30.29 Q334.05,20.965 337.753,14.246 Q341.455,7.527 346.94,3.756 Q352.425,-0.015 359.693,-0.015 z M359.693,2.727 Q352.974,2.728 348.037,6.499 Q343.101,10.269 339.81,16.714 Q336.518,23.159 334.942,31.936 Q333.365,40.712 333.365,50.722 Q333.365,60.732 334.942,69.44 Q336.518,78.147 339.81,84.661 Q343.101,91.174 348.037,94.945 Q352.974,98.716 359.693,98.716 Q366.275,98.716 371.212,94.945 Q376.148,91.174 379.439,84.661 Q382.73,78.147 384.376,69.44 Q386.021,60.732 386.021,50.722 Q386.021,40.712 384.307,31.936 Q382.593,23.159 379.302,16.714 Q376.011,10.269 371.074,6.499 Q366.138,2.728 359.693,2.728 z" clip-path="url(#Clip_11)" filter="url(#Shadow_12)" fill="rgba(0,0,0,0.75)"/>
      <path d="M389.038,50.722 Q389.038,61.829 387.05,71.154 Q385.061,80.478 381.29,87.198 Q377.519,93.917 372.103,97.688 Q366.686,101.459 359.693,101.459 Q352.699,101.459 347.283,97.688 Q341.866,93.917 338.095,87.198 Q334.324,80.478 332.336,71.154 Q330.348,61.829 330.348,50.722 Q330.348,39.615 332.199,30.29 Q334.05,20.965 337.753,14.246 Q341.455,7.527 346.94,3.756 Q352.425,-0.015 359.693,-0.015 Q366.686,-0.015 372.103,3.756 Q377.519,7.527 381.29,14.246 Q385.061,20.965 387.05,30.29 Q389.038,39.615 389.038,50.722 z M386.021,50.722 Q386.021,40.712 384.307,31.936 Q382.593,23.159 379.302,16.714 Q376.011,10.269 371.074,6.499 Q366.138,2.728 359.693,2.728 Q352.974,2.728 348.037,6.499 Q343.101,10.269 339.81,16.714 Q336.518,23.159 334.942,31.936 Q333.365,40.712 333.365,50.722 Q333.365,60.732 334.942,69.44 Q336.518,78.147 339.81,84.661 Q343.101,91.174 348.037,94.945 Q352.974,98.716 359.693,98.716 Q366.275,98.716 371.212,94.945 Q376.148,91.174 379.439,84.661 Q382.73,78.147 384.376,69.44 Q386.021,60.732 386.021,50.722 z" fill="#FFFFFF"/>
    </g>
    <g>
      <path d="M434.29,2.179 L434.29,4.922 L415.092,4.922 L415.092,99.265 L412.075,99.265 L412.075,4.922 L392.878,4.922 L392.878,2.179 L434.29,2.179 z" clip-path="url(#Clip_13)" filter="url(#Shadow_14)" fill="rgba(0,0,0,0.75)"/>
      <path d="M415.092,4.922 L415.092,99.265 L412.075,99.265 L412.075,4.922 L392.878,4.922 L392.878,2.179 L434.29,2.179 L434.29,4.922 z" fill="#FFFFFF"/>
    </g>
    <g>
      <path d="M464.869,-0.015 Q470.491,-0.015 475.222,2.248 Q479.953,4.51 482.97,9.858 L480.776,11.641 Q477.759,6.567 473.714,4.647 Q469.669,2.728 464.732,2.728 Q461.304,2.728 457.944,4.03 Q454.585,5.333 451.911,8.007 Q449.237,10.681 447.591,14.863 Q445.946,19.046 445.946,24.805 Q445.946,29.879 447.454,33.65 Q448.962,37.421 451.431,40.163 Q453.899,42.906 456.984,44.963 Q460.07,47.019 463.086,48.528 Q467.337,50.722 471.177,53.259 Q475.016,55.796 477.965,59.087 Q480.913,62.378 482.696,66.629 Q484.478,70.879 484.478,76.502 Q484.478,82.535 482.764,87.198 Q481.05,91.86 478.033,95.014 Q475.016,98.168 471.108,99.813 Q467.2,101.459 462.949,101.459 Q455.956,101.459 450.539,98.373 Q445.123,95.288 441.695,89.529 L444.163,87.746 Q447.454,93.231 452.528,95.974 Q457.601,98.716 462.812,98.716 Q466.515,98.716 469.874,97.208 Q473.234,95.699 475.771,92.888 Q478.308,90.077 479.884,85.895 Q481.461,81.712 481.461,76.365 Q481.461,71.428 479.816,67.588 Q478.17,63.749 475.496,60.801 Q472.822,57.852 469.531,55.658 Q466.24,53.464 462.949,51.819 Q459.11,49.899 455.476,47.499 Q451.842,45.1 449.1,41.877 Q446.357,38.655 444.643,34.404 Q442.929,30.153 442.929,24.531 Q442.929,18.497 444.711,13.903 Q446.494,9.31 449.511,6.224 Q452.528,3.139 456.504,1.562 Q460.481,-0.015 464.869,-0.015 z" clip-path="url(#Clip_15)" filter="url(#Shadow_16)" fill="rgba(0,0,0,0.75)"/>
      <path d="M484.478,76.502 Q484.478,82.535 482.764,87.198 Q481.05,91.86 478.033,95.014 Q475.016,98.168 471.108,99.813 Q467.2,101.459 462.949,101.459 Q455.956,101.459 450.539,98.373 Q445.123,95.288 441.695,89.529 L444.163,87.746 Q447.454,93.231 452.528,95.974 Q457.601,98.716 462.812,98.716 Q466.515,98.716 469.874,97.208 Q473.234,95.699 475.771,92.888 Q478.308,90.077 479.884,85.895 Q481.461,81.712 481.461,76.365 Q481.461,71.428 479.816,67.588 Q478.17,63.749 475.496,60.801 Q472.822,57.852 469.531,55.658 Q466.24,53.464 462.949,51.819 Q459.11,49.899 455.476,47.499 Q451.842,45.1 449.1,41.877 Q446.357,38.655 444.643,34.404 Q442.929,30.153 442.929,24.531 Q442.929,18.497 444.711,13.903 Q446.494,9.31 449.511,6.224 Q452.528,3.139 456.504,1.562 Q460.481,-0.015 464.869,-0.015 Q470.491,-0.015 475.222,2.248 Q479.953,4.51 482.97,9.858 L480.776,11.641 Q477.759,6.567 473.714,4.647 Q469.669,2.728 464.732,2.728 Q461.304,2.728 457.944,4.03 Q454.585,5.333 451.911,8.007 Q449.237,10.681 447.591,14.863 Q445.946,19.046 445.946,24.805 Q445.946,29.879 447.454,33.65 Q448.962,37.421 451.431,40.163 Q453.899,42.906 456.984,44.963 Q460.07,47.019 463.086,48.528 Q467.337,50.722 471.177,53.259 Q475.016,55.796 477.965,59.087 Q480.913,62.378 482.696,66.629 Q484.478,70.879 484.478,76.502 z" fill="#FFFFFF"/>
    </g>
    <g>
      <path d="M52.118,226.175 L52.118,320.381 L80.503,320.381 L80.503,323.261 L49.101,323.261 L49.101,226.175 L52.118,226.175 z" clip-path="url(#Clip_17)" filter="url(#Shadow_18)" fill="rgba(0,0,0,0.75)"/>
      <path d="M49.101,323.261 L49.101,226.175 L52.118,226.175 L52.118,320.381 L80.503,320.381 L80.503,323.261 z" fill="#FFFFFF"/>
    </g>
    <g>
      <path d="M113.962,223.981 Q120.955,223.981 126.372,227.752 Q131.788,231.523 135.559,238.242 Q139.33,244.962 141.319,254.286 Q143.307,263.611 143.307,274.718 Q143.307,285.825 141.319,295.15 Q139.33,304.475 135.559,311.194 Q131.788,317.913 126.372,321.684 Q120.955,325.455 113.962,325.455 Q106.968,325.455 101.552,321.684 Q96.135,317.913 92.364,311.194 Q88.593,304.475 86.605,295.15 Q84.617,285.825 84.617,274.718 Q84.617,263.611 86.468,254.286 Q88.319,244.962 92.022,238.242 Q95.724,231.523 101.209,227.752 Q106.694,223.981 113.962,223.981 z M113.962,226.724 Q107.243,226.724 102.306,230.495 Q97.37,234.266 94.079,240.711 Q90.788,247.156 89.211,255.932 Q87.634,264.708 87.634,274.718 Q87.634,284.728 89.211,293.436 Q90.788,302.143 94.079,308.657 Q97.37,315.171 102.306,318.941 Q107.243,322.712 113.962,322.712 Q120.544,322.712 125.481,318.941 Q130.417,315.171 133.708,308.657 Q136.999,302.143 138.645,293.436 Q140.29,284.728 140.29,274.718 Q140.29,264.708 138.576,255.932 Q136.862,247.156 133.571,240.711 Q130.28,234.266 125.343,230.495 Q120.407,226.724 113.962,226.724 z" clip-path="url(#Clip_19)" filter="url(#Shadow_20)" fill="rgba(0,0,0,0.75)"/>
      <path d="M143.307,274.718 Q143.307,285.825 141.319,295.15 Q139.33,304.475 135.559,311.194 Q131.788,317.913 126.372,321.684 Q120.955,325.455 113.962,325.455 Q106.968,325.455 101.552,321.684 Q96.135,317.913 92.364,311.194 Q88.593,304.475 86.605,295.15 Q84.617,285.825 84.617,274.718 Q84.617,263.611 86.468,254.286 Q88.319,244.962 92.022,238.242 Q95.724,231.523 101.209,227.752 Q106.694,223.981 113.962,223.981 Q120.955,223.981 126.372,227.752 Q131.788,231.523 135.559,238.242 Q139.33,244.962 141.319,254.286 Q143.307,263.611 143.307,274.718 z M140.29,274.718 Q140.29,264.708 138.576,255.932 Q136.862,247.156 133.571,240.711 Q130.28,234.266 125.343,230.495 Q120.407,226.724 113.962,226.724 Q107.243,226.724 102.306,230.495 Q97.37,234.266 94.079,240.711 Q90.788,247.156 89.211,255.932 Q87.634,264.708 87.634,274.718 Q87.634,284.728 89.211,293.436 Q90.788,302.143 94.079,308.657 Q97.37,315.171 102.306,318.941 Q107.243,322.712 113.962,322.712 Q120.544,322.712 125.481,318.941 Q130.417,315.171 133.708,308.657 Q136.999,302.143 138.645,293.436 Q140.29,284.728 140.29,274.718 z" fill="#FFFFFF"/>
    </g>
    <g>
      <path d="M168.401,226.175 L209.128,319.559 L209.402,319.559 L209.402,226.175 L212.419,226.175 L212.419,323.261 L207.62,323.261 L166.756,229.741 L166.482,229.741 L166.482,323.261 L163.465,323.261 L163.465,226.175 L168.401,226.175 z" clip-path="url(#Clip_21)" filter="url(#Shadow_22)" fill="rgba(0,0,0,0.75)"/>
      <path d="M207.62,323.261 L166.756,229.741 L166.482,229.741 L166.482,323.261 L163.465,323.261 L163.465,226.175 L168.401,226.175 L209.128,319.559 L209.402,319.559 L209.402,226.175 L212.419,226.175 L212.419,323.261 z" fill="#FFFFFF"/>
    </g>
    <g>
      <path d="M254.243,226.175 Q260.962,226.175 266.927,229.124 Q272.892,232.072 277.348,238.105 Q281.805,244.139 284.342,253.258 Q286.879,262.377 286.879,274.718 Q286.879,287.06 284.273,296.247 Q281.668,305.435 277.28,311.4 Q272.892,317.365 266.858,320.313 Q260.825,323.261 254.106,323.261 L236.827,323.261 L236.827,226.175 L254.243,226.175 z M253.694,228.918 L239.844,228.918 L239.844,320.518 L253.694,320.518 Q260.002,320.518 265.487,317.776 Q270.972,315.033 275.086,309.411 Q279.2,303.789 281.531,295.15 Q283.862,286.511 283.862,274.718 Q283.862,262.925 281.531,254.286 Q279.2,245.647 275.086,240.025 Q270.972,234.403 265.487,231.66 Q260.002,228.918 253.694,228.918 z" clip-path="url(#Clip_23)" filter="url(#Shadow_24)" fill="rgba(0,0,0,0.75)"/>
      <path d="M286.879,274.718 Q286.879,287.06 284.273,296.247 Q281.668,305.435 277.28,311.4 Q272.892,317.365 266.858,320.313 Q260.825,323.261 254.106,323.261 L236.828,323.261 L236.828,226.175 L254.243,226.175 Q260.962,226.175 266.927,229.124 Q272.892,232.072 277.348,238.105 Q281.805,244.139 284.342,253.258 Q286.879,262.377 286.879,274.718 z M239.844,228.918 L239.844,320.518 L253.694,320.518 Q260.002,320.518 265.487,317.776 Q270.972,315.033 275.086,309.411 Q279.2,303.789 281.531,295.15 Q283.862,286.511 283.862,274.718 Q283.862,262.925 281.531,254.286 Q279.2,245.647 275.086,240.025 Q270.972,234.403 265.487,231.66 Q260.002,228.918 253.694,228.918 z" fill="#FFFFFF"/>
    </g>
    <g>
      <path d="M332.13,223.981 Q339.124,223.981 344.541,227.752 Q349.957,231.523 353.728,238.242 Q357.499,244.962 359.487,254.286 Q361.476,263.611 361.476,274.718 Q361.476,285.825 359.487,295.15 Q357.499,304.475 353.728,311.194 Q349.957,317.913 344.541,321.684 Q339.124,325.455 332.131,325.455 Q325.137,325.455 319.721,321.684 Q314.304,317.913 310.533,311.194 Q306.762,304.475 304.774,295.15 Q302.785,285.825 302.785,274.718 Q302.785,263.611 304.637,254.286 Q306.488,244.962 310.19,238.242 Q313.893,231.523 319.378,227.752 Q324.863,223.981 332.131,223.981 z M332.13,226.724 Q325.411,226.724 320.475,230.495 Q315.538,234.266 312.247,240.711 Q308.956,247.156 307.379,255.932 Q305.802,264.708 305.802,274.718 Q305.802,284.728 307.379,293.436 Q308.956,302.143 312.247,308.657 Q315.538,315.171 320.475,318.941 Q325.411,322.712 332.131,322.712 Q338.713,322.712 343.649,318.941 Q348.586,315.171 351.877,308.657 Q355.168,302.143 356.813,293.436 Q358.459,284.728 358.459,274.718 Q358.459,264.708 356.745,255.932 Q355.031,247.156 351.74,240.711 Q348.449,234.266 343.512,230.495 Q338.576,226.724 332.131,226.724 z" clip-path="url(#Clip_25)" filter="url(#Shadow_26)" fill="rgba(0,0,0,0.75)"/>
      <path d="M361.476,274.718 Q361.476,285.825 359.487,295.15 Q357.499,304.475 353.728,311.194 Q349.957,317.913 344.541,321.684 Q339.124,325.455 332.131,325.455 Q325.137,325.455 319.721,321.684 Q314.304,317.913 310.533,311.194 Q306.762,304.475 304.774,295.15 Q302.785,285.825 302.785,274.718 Q302.785,263.611 304.637,254.286 Q306.488,244.962 310.19,238.242 Q313.893,231.523 319.378,227.752 Q324.863,223.981 332.131,223.981 Q339.124,223.981 344.541,227.752 Q349.957,231.523 353.728,238.242 Q357.499,244.962 359.487,254.286 Q361.476,263.611 361.476,274.718 z M358.459,274.718 Q358.459,264.708 356.745,255.932 Q355.031,247.156 351.74,240.711 Q348.449,234.266 343.512,230.495 Q338.576,226.724 332.131,226.724 Q325.411,226.724 320.475,230.495 Q315.538,234.266 312.247,240.711 Q308.956,247.156 307.379,255.932 Q305.802,264.708 305.802,274.718 Q305.802,284.728 307.379,293.436 Q308.956,302.143 312.247,308.657 Q315.538,315.171 320.475,318.941 Q325.411,322.712 332.131,322.712 Q338.713,322.712 343.649,318.941 Q348.586,315.171 351.877,308.657 Q355.168,302.143 356.813,293.436 Q358.459,284.728 358.459,274.718 z" fill="#FFFFFF"/>
    </g>
    <g>
      <path d="M386.57,226.175 L427.296,319.559 L427.571,319.559 L427.571,226.175 L430.587,226.175 L430.587,323.261 L425.788,323.261 L384.924,229.741 L384.65,229.741 L384.65,323.261 L381.633,323.261 L381.633,226.175 L386.57,226.175 z" clip-path="url(#Clip_27)" filter="url(#Shadow_28)" fill="rgba(0,0,0,0.75)"/>
      <path d="M425.788,323.261 L384.924,229.741 L384.65,229.741 L384.65,323.261 L381.633,323.261 L381.633,226.175 L386.57,226.175 L427.296,319.559 L427.571,319.559 L427.571,226.175 L430.587,226.175 L430.587,323.261 z" fill="#FFFFFF"/>
    </g>
    <g>
      <path d="M236.752,151.704 Q239.844,151.704 241.541,153.514 Q243.238,155.324 243.389,158.19 Q243.54,159.925 245.01,161.396 Q246.481,162.866 249.045,162.866 Q251.308,162.866 253.307,161.735 Q255.305,160.604 257.04,158.794 L257.643,159.171 Q255.833,161.207 253.57,162.414 Q251.308,163.621 249.121,163.621 Q247.009,163.621 245.501,162.678 Q243.992,161.735 243.163,160.453 L243.012,160.453 Q242.258,163.319 240.221,166.562 Q238.185,169.805 235.357,172.52 Q232.528,175.235 229.135,177.045 Q225.741,178.855 222.196,178.855 Q218.953,178.855 217.294,176.97 Q215.634,175.084 215.634,171.917 Q215.634,170.257 216.464,168.07 Q217.294,165.883 218.764,163.658 Q220.235,161.433 222.234,159.284 Q224.232,157.134 226.57,155.438 Q228.908,153.741 231.51,152.722 Q234.112,151.704 236.752,151.704 z M236.073,152.609 Q234.489,152.609 232.679,153.627 Q230.869,154.646 229.021,156.305 Q227.174,157.964 225.514,160.151 Q223.855,162.338 222.535,164.676 Q221.215,167.014 220.461,169.352 Q219.707,171.69 219.707,173.727 Q219.707,175.688 220.461,176.819 Q221.215,177.95 222.724,177.95 Q224.76,177.95 226.759,176.857 Q228.757,175.763 230.605,173.991 Q232.453,172.218 234.037,169.956 Q235.621,167.693 236.79,165.28 Q237.959,162.866 238.637,160.566 Q239.316,158.266 239.316,156.38 Q239.316,154.796 238.524,153.703 Q237.732,152.609 236.073,152.609 z" clip-path="url(#Clip_29)" filter="url(#Shadow_30)" fill="rgba(0,0,0,0.75)"/>
      <path d="M257.643,159.171 Q255.833,161.207 253.57,162.414 Q251.308,163.621 249.121,163.621 Q247.009,163.621 245.501,162.678 Q243.992,161.735 243.163,160.453 L243.012,160.453 Q242.258,163.319 240.221,166.562 Q238.185,169.805 235.357,172.52 Q232.528,175.235 229.135,177.045 Q225.741,178.855 222.196,178.855 Q218.953,178.855 217.294,176.97 Q215.634,175.084 215.634,171.917 Q215.634,170.257 216.464,168.07 Q217.294,165.883 218.764,163.658 Q220.235,161.433 222.234,159.284 Q224.232,157.134 226.57,155.438 Q228.908,153.741 231.51,152.722 Q234.112,151.704 236.752,151.704 Q239.844,151.704 241.541,153.514 Q243.238,155.324 243.389,158.19 Q243.54,159.925 245.01,161.396 Q246.481,162.866 249.045,162.866 Q251.308,162.866 253.307,161.735 Q255.305,160.604 257.04,158.794 z M219.707,173.727 Q219.707,175.688 220.461,176.819 Q221.215,177.95 222.724,177.95 Q224.76,177.95 226.759,176.857 Q228.757,175.763 230.605,173.991 Q232.453,172.218 234.037,169.956 Q235.621,167.693 236.79,165.28 Q237.959,162.866 238.637,160.566 Q239.316,158.266 239.316,156.38 Q239.316,154.796 238.524,153.703 Q237.732,152.609 236.073,152.609 Q234.489,152.609 232.679,153.627 Q230.869,154.646 229.021,156.305 Q227.174,157.964 225.514,160.151 Q223.855,162.338 222.535,164.676 Q221.215,167.014 220.461,169.352 Q219.707,171.69 219.707,173.727 z" fill="#FFFFFF"/>
    </g>
    <g>
      <path d="M286.831,125.76 Q289.244,125.76 290.753,126.778 Q292.261,127.796 292.261,129.908 Q292.261,131.718 291.13,132.887 Q289.998,134.056 288.264,134.207 Q288.565,133.151 288.754,132.208 Q288.942,131.266 288.942,129.983 Q288.942,128.475 288.226,127.57 Q287.509,126.665 285.775,126.665 Q282.984,126.665 280.081,129.192 Q277.177,131.718 274.349,135.564 Q271.521,139.411 268.843,143.898 Q266.166,148.386 263.752,152.308 L280.797,152.308 L280.797,153.213 L263.3,153.213 Q256.059,165.582 250.328,174.406 Q244.596,183.23 239.316,188.886 Q234.037,194.543 228.758,197.182 Q223.478,199.822 217.068,199.822 Q214.805,199.822 212.731,199.256 Q210.657,198.691 209.073,197.559 Q207.489,196.428 206.509,194.731 Q205.528,193.034 205.528,190.772 Q205.528,187.83 207.376,185.756 Q209.224,183.682 213.598,183.682 L214.277,183.682 L214.277,184.286 Q212.014,184.436 210.431,186.02 Q208.847,187.604 208.847,190.395 Q208.847,194.316 211.034,196.617 Q213.221,198.917 217.445,198.917 Q221.517,198.917 225.213,197.069 Q228.908,195.221 232.34,191.978 Q235.772,188.735 239.052,184.361 Q242.333,179.987 245.614,174.896 Q248.895,169.805 252.213,164.262 Q255.532,158.718 259.001,153.213 L253.646,153.213 L253.646,152.308 L259.453,152.308 Q262.395,147.632 265.487,142.88 Q268.579,138.129 271.973,134.32 Q275.367,130.511 279.062,128.136 Q282.758,125.76 286.831,125.76 z" clip-path="url(#Clip_31)" filter="url(#Shadow_32)" fill="rgba(0,0,0,0.75)"/>
      <path d="M253.646,153.213 L253.646,152.308 L259.453,152.308 Q262.395,147.632 265.487,142.88 Q268.579,138.129 271.973,134.32 Q275.367,130.511 279.062,128.136 Q282.758,125.76 286.831,125.76 Q289.244,125.76 290.753,126.778 Q292.261,127.796 292.261,129.908 Q292.261,131.718 291.13,132.887 Q289.998,134.056 288.264,134.207 Q288.565,133.151 288.754,132.208 Q288.942,131.266 288.942,129.983 Q288.942,128.475 288.226,127.57 Q287.509,126.665 285.775,126.665 Q282.984,126.665 280.081,129.192 Q277.177,131.718 274.349,135.564 Q271.521,139.411 268.843,143.898 Q266.166,148.386 263.752,152.308 L280.797,152.308 L280.797,153.213 L263.3,153.213 Q256.059,165.582 250.328,174.406 Q244.596,183.23 239.316,188.886 Q234.037,194.543 228.758,197.182 Q223.478,199.822 217.068,199.822 Q214.805,199.822 212.731,199.256 Q210.657,198.691 209.073,197.559 Q207.489,196.428 206.509,194.731 Q205.528,193.034 205.528,190.772 Q205.528,187.83 207.376,185.756 Q209.224,183.682 213.598,183.682 L214.277,183.682 L214.277,184.286 Q212.014,184.436 210.431,186.02 Q208.847,187.604 208.847,190.395 Q208.847,194.316 211.034,196.617 Q213.221,198.917 217.445,198.917 Q221.517,198.917 225.213,197.069 Q228.908,195.221 232.34,191.978 Q235.772,188.735 239.052,184.361 Q242.333,179.987 245.614,174.896 Q248.895,169.805 252.213,164.262 Q255.532,158.718 259.001,153.213 z" fill="#FFFFFF"/>
    </g>
  </g>
</svg>
