<svg xmlns="http://www.w3.org/2000/svg" width="484.488" height="325.44" viewBox="0, 0, 484.488, 325.44"><defs><clipPath id="a"><path d="M-5.99-5.821h60.954v113.086H-5.99zm10.936 8H.01v97.086h3.016V5.744h.275l40.864 93.521h4.799V2.179h-3.017v93.383h-.274L4.946 2.179z"/></clipPath><filter id="b"><feGaussianBlur in="SourceAlpha" stdDeviation="2.5"/><feOffset dy="2" result="offsetblur"/><feFlood flood-color="#000"/><feComposite in2="offsetblur" operator="in"/></filter><clipPath id="c"><path d="M63.122-8.015h70.69v117.474h-70.69zM98.467 2.728q6.445 0 11.381 3.771 4.937 3.77 8.228 10.215 3.291 6.445 5.005 15.222 1.714 8.776 1.714 18.786 0 10.01-1.646 18.718-1.645 8.707-4.936 15.221-3.291 6.513-8.228 10.284-4.936 3.771-11.518 3.771-6.72 0-11.656-3.771-4.937-3.771-8.228-10.284-3.291-6.514-4.868-15.221-1.577-8.708-1.577-18.718t1.577-18.786q1.577-8.777 4.868-15.222 3.291-6.445 8.228-10.215 4.936-3.771 11.656-3.772zm0-2.743q-7.268 0-12.753 3.771t-9.188 10.49q-3.702 6.719-5.553 16.044t-1.851 20.432q0 11.107 1.988 20.432 1.988 9.324 5.759 16.044 3.771 6.719 9.188 10.49 5.416 3.771 12.41 3.771 6.993 0 12.41-3.771 5.416-3.771 9.187-10.49 3.771-6.72 5.759-16.044 1.989-9.325 1.989-20.432t-1.989-20.432q-1.988-9.325-5.759-16.044-3.771-6.719-9.187-10.49-5.417-3.771-12.41-3.771z"/></clipPath><filter id="d"><feGaussianBlur in="SourceAlpha" stdDeviation="2.5"/><feOffset dy="2" result="offsetblur"/><feFlood flood-color="#000"/><feComposite in2="offsetblur" operator="in"/></filter><clipPath id="e"><path d="M141.969-5.821h62.052v113.086h-62.052zm22.867 10.743q6.308 0 11.793 2.742 5.485 2.743 9.599 8.365t6.445 14.261q2.331 8.639 2.331 20.432t-2.331 20.432q-2.331 8.639-6.445 14.261-4.114 5.622-9.599 8.365-5.485 2.742-11.793 2.742h-13.85v-91.6h13.85zm.549-2.743h-17.416v97.086h17.278q6.72 0 12.753-2.949 6.034-2.948 10.422-8.913 4.388-5.965 6.993-15.152 2.606-9.188 2.606-21.529 0-12.342-2.537-21.46-2.537-9.119-6.994-15.153-4.456-6.034-10.421-8.982-5.965-2.948-12.684-2.948z"/></clipPath><filter id="f"><feGaussianBlur in="SourceAlpha" stdDeviation="2.5"/><feOffset dy="2" result="offsetblur"/><feFlood flood-color="#000"/><feComposite in2="offsetblur" operator="in"/></filter><clipPath id="g"><path d="M212.178-5.821h47.927v113.086h-47.927zm40.968 8h-34.968v97.086h35.927v-2.743h-32.91V50.31h30.031v-2.742h-30.031V4.922h31.951V2.179z"/></clipPath><filter id="h"><feGaussianBlur in="SourceAlpha" stdDeviation="2.5"/><feOffset dy="2" result="offsetblur"/><feFlood flood-color="#000"/><feComposite in2="offsetblur" operator="in"/></filter><clipPath id="i"><path d="M266.343-5.821h56.018v113.086h-56.018zm24.375 10.743q3.84 0 7.336 1.028 3.497 1.028 6.171 3.36 2.674 2.331 4.32 6.307 1.645 3.977 1.645 9.874 0 5.622-1.645 9.667-1.646 4.045-4.388 6.582-2.743 2.537-6.171 3.771-3.428 1.234-6.857 1.234H275.36V4.922h15.358zm3.017 44.566q3.291 0 6.719 1.302 3.428 1.303 6.308 4.183 2.88 2.879 4.731 7.542 1.851 4.662 1.851 11.244 0 6.034-1.508 10.353-1.509 4.32-4.251 7.062-2.743 2.743-6.514 4.045-3.771 1.303-8.296 1.303H275.36V49.488h18.375zm-2.606-47.309h-18.786v97.086h21.392q3.565 0 7.542-1.166 3.977-1.165 7.336-4.045 3.36-2.88 5.554-7.885 2.194-5.005 2.194-12.821 0-6.445-1.783-11.108-1.782-4.662-4.456-7.679-2.674-3.016-5.76-4.593-3.085-1.577-5.69-1.989v-.274q2.605-.823 5.21-2.468 2.606-1.646 4.663-4.388 2.057-2.743 3.359-6.582 1.303-3.84 1.303-9.051 0-6.582-2.057-10.97-2.057-4.388-5.211-7.062-3.154-2.674-7.062-3.839-3.908-1.166-7.748-1.166z"/></clipPath><filter id="j"><feGaussianBlur in="SourceAlpha" stdDeviation="2.5"/><feOffset dy="2" result="offsetblur"/><feFlood flood-color="#000"/><feComposite in2="offsetblur" operator="in"/></filter><clipPath id="k"><path d="M324.348-8.015h70.69v117.474h-70.69zm35.345 10.743q6.445 0 11.381 3.771 4.937 3.77 8.228 10.215 3.291 6.445 5.005 15.222 1.714 8.776 1.714 18.786 0 10.01-1.645 18.718-1.646 8.707-4.937 15.221-3.291 6.513-8.227 10.284-4.937 3.771-11.519 3.771-6.719 0-11.656-3.771-4.936-3.771-8.227-10.284-3.292-6.514-4.868-15.221-1.577-8.708-1.577-18.718t1.577-18.786q1.576-8.777 4.868-15.222 3.291-6.445 8.227-10.215 4.937-3.771 11.656-3.772zm0-2.743q-7.268 0-12.753 3.771t-9.187 10.49q-3.703 6.719-5.554 16.044-1.851 9.325-1.851 20.432t1.988 20.432q1.988 9.324 5.759 16.044 3.771 6.719 9.188 10.49 5.416 3.771 12.41 3.771 6.993 0 12.41-3.771 5.416-3.771 9.187-10.49 3.771-6.72 5.76-16.044 1.988-9.325 1.988-20.432T387.05 30.29q-1.989-9.325-5.76-16.044-3.771-6.719-9.187-10.49-5.417-3.771-12.41-3.771z"/></clipPath><filter id="l"><feGaussianBlur in="SourceAlpha" stdDeviation="2.5"/><feOffset dy="2" result="offsetblur"/><feFlood flood-color="#000"/><feComposite in2="offsetblur" operator="in"/></filter><clipPath id="m"><path d="M386.878-5.821h53.412v113.086h-53.412zm47.412 8h-41.412v2.743h19.197v94.343h3.017V4.922h19.198V2.179z"/></clipPath><filter id="n"><feGaussianBlur in="SourceAlpha" stdDeviation="2.5"/><feOffset dy="2" result="offsetblur"/><feFlood flood-color="#000"/><feComposite in2="offsetblur" operator="in"/></filter><clipPath id="o"><path d="M435.695-8.015h54.783v117.474h-54.783zm29.174 8q-4.388 0-8.365 1.577-3.976 1.577-6.993 4.662-3.017 3.086-4.8 7.679-1.782 4.594-1.782 10.628 0 5.622 1.714 9.873 1.714 4.251 4.457 7.473 2.742 3.223 6.376 5.622 3.634 2.4 7.473 4.32 3.291 1.645 6.582 3.839t5.965 5.143q2.674 2.948 4.32 6.787 1.645 3.84 1.645 8.777 0 5.347-1.577 9.53-1.576 4.182-4.113 6.993-2.537 2.811-5.897 4.32-3.359 1.508-7.062 1.508-5.211 0-10.284-2.742-5.074-2.743-8.365-8.228l-2.468 1.783q3.428 5.759 8.844 8.844 5.417 3.086 12.41 3.086 4.251 0 8.159-1.646 3.908-1.645 6.925-4.799 3.017-3.154 4.731-7.816 1.714-4.663 1.714-10.696 0-5.623-1.782-9.873-1.783-4.251-4.731-7.542-2.949-3.291-6.788-5.828-3.84-2.537-8.091-4.731-3.016-1.509-6.102-3.565-3.085-2.057-5.553-4.8-2.469-2.742-3.977-6.513t-1.508-8.845q0-5.759 1.645-9.942 1.646-4.182 4.32-6.856 2.674-2.674 6.033-3.977 3.36-1.302 6.788-1.302 4.937 0 8.982 1.919 4.045 1.92 7.062 6.994l2.194-1.783q-3.017-5.348-7.748-7.61-4.731-2.263-10.353-2.263z"/></clipPath><filter id="p"><feGaussianBlur in="SourceAlpha" stdDeviation="2.5"/><feOffset dy="2" result="offsetblur"/><feFlood flood-color="#000"/><feComposite in2="offsetblur" operator="in"/></filter><clipPath id="q"><path d="M43.101 218.175h43.402v113.086H43.101zm9.017 8h-3.017v97.086h31.402v-2.88H52.118v-94.206z"/></clipPath><filter id="r"><feGaussianBlur in="SourceAlpha" stdDeviation="2.5"/><feOffset dy="2" result="offsetblur"/><feFlood flood-color="#000"/><feComposite in2="offsetblur" operator="in"/></filter><clipPath id="s"><path d="M78.617 215.981h70.69v117.474h-70.69zm35.345 10.743q6.445 0 11.381 3.771 4.937 3.771 8.228 10.216 3.291 6.445 5.005 15.221t1.714 18.786q0 10.01-1.645 18.718-1.646 8.707-4.937 15.221-3.291 6.514-8.227 10.284-4.937 3.771-11.519 3.771-6.719 0-11.656-3.771-4.936-3.77-8.227-10.284-3.291-6.514-4.868-15.221-1.577-8.708-1.577-18.718t1.577-18.786q1.577-8.776 4.868-15.221 3.291-6.445 8.227-10.216 4.937-3.771 11.656-3.771zm0-2.743q-7.268 0-12.753 3.771t-9.187 10.49q-3.703 6.72-5.554 16.044-1.851 9.325-1.851 20.432t1.988 20.432q1.988 9.325 5.759 16.044 3.771 6.719 9.188 10.49 5.416 3.771 12.41 3.771 6.993 0 12.41-3.771 5.416-3.771 9.187-10.49 3.771-6.719 5.76-16.044 1.988-9.325 1.988-20.432t-1.988-20.432q-1.989-9.324-5.76-16.044-3.771-6.719-9.187-10.49-5.417-3.771-12.41-3.771z"/></clipPath><filter id="t"><feGaussianBlur in="SourceAlpha" stdDeviation="2.5"/><feOffset dy="2" result="offsetblur"/><feFlood flood-color="#000"/><feComposite in2="offsetblur" operator="in"/></filter><clipPath id="u"><path d="M157.465 218.175h60.954v113.086h-60.954zm10.936 8h-4.936v97.086h3.017v-93.52h.274l40.864 93.52h4.799v-97.086h-3.017v93.384h-.274l-40.727-93.384z"/></clipPath><filter id="v"><feGaussianBlur in="SourceAlpha" stdDeviation="2.5"/><feOffset dy="2" result="offsetblur"/><feFlood flood-color="#000"/><feComposite in2="offsetblur" operator="in"/></filter><clipPath id="w"><path d="M230.827 218.175h62.052v113.086h-62.052zm22.867 10.743q6.308 0 11.793 2.742 5.485 2.743 9.599 8.365t6.445 14.261q2.331 8.639 2.331 20.432t-2.331 20.432q-2.331 8.639-6.445 14.261-4.114 5.622-9.599 8.365-5.485 2.742-11.793 2.742h-13.85v-91.6h13.85zm.549-2.743h-17.416v97.086h17.279q6.719 0 12.752-2.948 6.034-2.948 10.422-8.913 4.388-5.965 6.993-15.153 2.606-9.187 2.606-21.529 0-12.341-2.537-21.46-2.537-9.119-6.994-15.153-4.456-6.033-10.421-8.981-5.965-2.949-12.684-2.949z"/></clipPath><filter id="x"><feGaussianBlur in="SourceAlpha" stdDeviation="2.5"/><feOffset dy="2" result="offsetblur"/><feFlood flood-color="#000"/><feComposite in2="offsetblur" operator="in"/></filter><clipPath id="y"><path d="M296.785 215.981h70.691v117.474h-70.691zm35.346 10.743q6.445 0 11.381 3.771 4.937 3.771 8.228 10.216 3.291 6.445 5.005 15.221t1.714 18.786q0 10.01-1.646 18.718-1.645 8.707-4.936 15.221-3.291 6.514-8.228 10.284-4.936 3.771-11.518 3.771-6.72 0-11.656-3.771-4.937-3.77-8.228-10.284-3.291-6.514-4.868-15.221-1.577-8.708-1.577-18.718t1.577-18.786q1.577-8.776 4.868-15.221 3.291-6.445 8.228-10.216 4.936-3.771 11.655-3.771zm0-2.743q-7.268 0-12.753 3.771t-9.188 10.49q-3.702 6.72-5.553 16.044-1.852 9.325-1.852 20.432t1.989 20.432q1.988 9.325 5.759 16.044 3.771 6.719 9.188 10.49 5.416 3.771 12.41 3.771 6.993 0 12.41-3.771 5.416-3.771 9.187-10.49 3.771-6.719 5.759-16.044 1.989-9.325 1.989-20.432t-1.989-20.432q-1.988-9.324-5.759-16.044-3.771-6.719-9.187-10.49-5.417-3.771-12.411-3.771z"/></clipPath><filter id="z"><feGaussianBlur in="SourceAlpha" stdDeviation="2.5"/><feOffset dy="2" result="offsetblur"/><feFlood flood-color="#000"/><feComposite in2="offsetblur" operator="in"/></filter><clipPath id="A"><path d="M375.633 218.175h60.954v113.086h-60.954zm10.937 8h-4.937v97.086h3.017v-93.52h.274l40.864 93.52h4.799v-97.086h-3.016v93.384h-.275l-40.726-93.384z"/></clipPath><filter id="B"><feGaussianBlur in="SourceAlpha" stdDeviation="2.5"/><feOffset dy="2" result="offsetblur"/><feFlood flood-color="#000"/><feComposite in2="offsetblur" operator="in"/></filter><clipPath id="C"><path d="M209.634 143.704h54.009v43.151h-54.009zm26.439 8.905q1.659 0 2.451 1.094.792 1.093.792 2.677 0 1.886-.679 4.186-.678 2.3-1.847 4.714-1.169 2.413-2.753 4.676-1.584 2.262-3.432 4.035-1.848 1.772-3.846 2.866-1.999 1.093-4.035 1.093-1.509 0-2.263-1.131t-.754-3.092q0-2.037.754-4.375t2.074-4.676q1.32-2.338 2.979-4.525 1.66-2.187 3.507-3.846 1.848-1.659 3.658-2.678 1.81-1.018 3.394-1.018zm.679-.905q-2.64 0-5.242 1.018-2.602 1.019-4.94 2.716-2.338 1.696-4.336 3.846-1.999 2.149-3.47 4.374-1.47 2.225-2.3 4.412-.83 2.187-.83 3.847 0 3.167 1.66 5.053 1.659 1.885 4.902 1.885 3.545 0 6.939-1.81 3.393-1.81 6.222-4.525 2.828-2.715 4.864-5.958 2.037-3.243 2.791-6.109h.151q.829 1.282 2.338 2.225 1.508.943 3.62.943 2.187 0 4.449-1.207 2.263-1.207 4.073-3.243l-.603-.377q-1.735 1.81-3.733 2.941-1.999 1.131-4.262 1.131-2.564 0-4.035-1.47-1.47-1.471-1.621-3.206-.151-2.866-1.848-4.676t-4.789-1.81z"/></clipPath><filter id="D"><feGaussianBlur in="SourceAlpha" stdDeviation="2.5"/><feOffset dy="2" result="offsetblur"/><feFlood flood-color="#000"/><feComposite in2="offsetblur" operator="in"/></filter><clipPath id="E"><path d="M199.528 117.76h98.733v90.062h-98.733zm87.303 8q-4.073 0-7.769 2.376-3.695 2.375-7.089 6.184-3.394 3.809-6.486 8.56-3.092 4.752-6.034 9.428h-5.807v.905h5.355q-3.469 5.505-6.788 11.049-3.318 5.543-6.599 10.634t-6.562 9.465q-3.28 4.374-6.712 7.617-3.432 3.243-7.127 5.091-3.696 1.848-7.768 1.848-4.224 0-6.411-2.3-2.187-2.301-2.187-6.222 0-2.791 1.584-4.375 1.583-1.584 3.846-1.734v-.604h-.679q-4.374 0-6.222 2.074-1.848 2.074-1.848 5.016 0 2.262.981 3.959.98 1.697 2.564 2.828 1.584 1.132 3.658 1.697 2.074.566 4.337.566 6.41 0 11.69-2.64 5.279-2.639 10.558-8.296 5.28-5.656 11.012-14.48 5.731-8.824 12.972-21.193h17.497v-.905h-17.045q2.414-3.922 5.091-8.41 2.678-4.487 5.506-8.334 2.828-3.846 5.732-6.372 2.903-2.527 5.694-2.527 1.734 0 2.451.905.716.905.716 2.413 0 1.283-.188 2.225-.189.943-.49 1.999 1.734-.151 2.866-1.32 1.131-1.169 1.131-2.979 0-2.112-1.508-3.13-1.509-1.018-3.922-1.018z"/></clipPath><filter id="F"><feGaussianBlur in="SourceAlpha" stdDeviation="2.5"/><feOffset dy="2" result="offsetblur"/><feFlood flood-color="#000"/><feComposite in2="offsetblur" operator="in"/></filter></defs><path d="M4.946 2.179l40.727 93.383h.274V2.179h3.017v97.086h-4.799L3.301 5.744h-.275v93.521H.01V2.179h4.936z" clip-path="url(#a)" filter="url(#b)" fill="rgba(0,0,0,0.75)"/><path d="M44.165 99.265L3.301 5.744h-.274v93.521H.01V2.179h4.936l40.727 93.383h.274V2.179h3.017v97.086z" fill="#FFF"/><path d="M98.467-.015q6.993 0 12.41 3.771 5.416 3.771 9.187 10.49 3.771 6.719 5.759 16.044 1.989 9.325 1.989 20.432t-1.989 20.432q-1.988 9.324-5.759 16.044-3.771 6.719-9.187 10.49-5.417 3.771-12.41 3.771-6.994 0-12.41-3.771-5.417-3.771-9.188-10.49-3.771-6.72-5.759-16.044-1.988-9.325-1.988-20.432t1.851-20.432q1.851-9.325 5.553-16.044 3.703-6.719 9.188-10.49Q91.199-.015 98.467-.015zm0 2.742q-6.72.001-11.656 3.772-4.937 3.77-8.228 10.215-3.291 6.445-4.868 15.222-1.577 8.776-1.577 18.786 0 10.01 1.577 18.718 1.577 8.707 4.868 15.221 3.291 6.513 8.228 10.284 4.936 3.771 11.656 3.771 6.582 0 11.518-3.771 4.937-3.771 8.228-10.284 3.291-6.514 4.936-15.221 1.646-8.708 1.646-18.718t-1.714-18.786q-1.714-8.777-5.005-15.222t-8.228-10.215q-4.936-3.771-11.381-3.771z" clip-path="url(#c)" filter="url(#d)" fill="rgba(0,0,0,0.75)"/><path d="M127.812 50.722q0 11.107-1.989 20.432-1.988 9.324-5.759 16.044-3.771 6.719-9.187 10.49-5.417 3.771-12.41 3.771-6.994 0-12.41-3.771-5.417-3.771-9.188-10.49-3.771-6.72-5.759-16.044-1.988-9.325-1.988-20.432t1.851-20.432q1.851-9.325 5.553-16.044 3.703-6.719 9.188-10.49Q91.199-.015 98.467-.015q6.993 0 12.41 3.771 5.416 3.771 9.187 10.49 3.771 6.719 5.759 16.044 1.989 9.325 1.989 20.432zm-3.017 0q0-10.01-1.714-18.786-1.714-8.777-5.005-15.222t-8.228-10.215q-4.936-3.771-11.381-3.771-6.72 0-11.656 3.771-4.937 3.77-8.228 10.215-3.291 6.445-4.868 15.222-1.577 8.776-1.577 18.786 0 10.01 1.577 18.718 1.577 8.707 4.868 15.221 3.291 6.513 8.228 10.284 4.936 3.771 11.656 3.771 6.582 0 11.518-3.771 4.937-3.771 8.228-10.284 3.291-6.514 4.936-15.221 1.646-8.708 1.646-18.718z" fill="#FFF"/><path d="M165.385 2.179q6.719 0 12.684 2.948 5.965 2.948 10.421 8.982 4.457 6.034 6.994 15.153 2.537 9.118 2.537 21.46 0 12.341-2.606 21.529-2.605 9.187-6.993 15.152T178 96.316q-6.033 2.949-12.753 2.949h-17.278V2.179h17.416zm-.549 2.743h-13.85v91.6h13.85q6.308 0 11.793-2.742 5.485-2.743 9.599-8.365t6.445-14.261q2.331-8.639 2.331-20.432t-2.331-20.432q-2.331-8.639-6.445-14.261-4.114-5.622-9.599-8.365-5.485-2.742-11.793-2.742z" clip-path="url(#e)" filter="url(#f)" fill="rgba(0,0,0,0.75)"/><path d="M198.021 50.722q0 12.341-2.606 21.529-2.605 9.187-6.993 15.152T178 96.316q-6.033 2.949-12.753 2.949h-17.278V2.179h17.416q6.719 0 12.684 2.948 5.965 2.948 10.421 8.982 4.457 6.034 6.994 15.153 2.537 9.118 2.537 21.46zm-47.035-45.8v91.6h13.85q6.308 0 11.793-2.742 5.485-2.743 9.599-8.365t6.445-14.261q2.331-8.639 2.331-20.432t-2.331-20.432q-2.331-8.639-6.445-14.261-4.114-5.622-9.599-8.365-5.485-2.742-11.793-2.742z" fill="#FFF"/><path d="M253.146 2.179v2.743h-31.951v42.646h30.031v2.742h-30.031v46.212h32.91v2.743h-35.927V2.179h34.968z" clip-path="url(#g)" filter="url(#h)" fill="rgba(0,0,0,0.75)"/><path d="M218.178 99.265V2.179h34.968v2.743h-31.951v42.646h30.031v2.742h-30.031v46.212h32.91v2.743z" fill="#FFF"/><path d="M291.129 2.179q3.84 0 7.748 1.166 3.908 1.165 7.062 3.839 3.154 2.674 5.211 7.062 2.057 4.388 2.057 10.97 0 5.211-1.303 9.051-1.302 3.839-3.359 6.582-2.057 2.742-4.663 4.388-2.605 1.645-5.21 2.468v.274q2.605.412 5.69 1.989 3.086 1.577 5.76 4.593 2.674 3.017 4.456 7.679 1.783 4.663 1.783 11.108 0 7.816-2.194 12.821t-5.554 7.885q-3.359 2.88-7.336 4.045-3.977 1.166-7.542 1.166h-21.392V2.179h18.786zm2.606 47.309H275.36v47.034h17.415q4.525 0 8.296-1.303 3.771-1.302 6.514-4.045 2.742-2.742 4.251-7.062 1.508-4.319 1.508-10.353 0-6.582-1.851-11.244-1.851-4.663-4.731-7.542-2.88-2.88-6.308-4.183-3.428-1.302-6.719-1.302zm-3.017-44.566H275.36v41.823h15.769q3.429 0 6.857-1.234 3.428-1.234 6.171-3.771 2.742-2.537 4.388-6.582 1.645-4.045 1.645-9.667 0-5.897-1.645-9.874-1.646-3.976-4.32-6.307-2.674-2.332-6.171-3.36-3.496-1.028-7.336-1.028z" clip-path="url(#i)" filter="url(#j)" fill="rgba(0,0,0,0.75)"/><path d="M316.361 73.348q0 7.816-2.194 12.821t-5.554 7.885q-3.359 2.88-7.336 4.045-3.977 1.166-7.542 1.166h-21.392V2.179h18.787q3.839 0 7.747 1.166 3.908 1.165 7.062 3.839 3.154 2.674 5.211 7.062 2.057 4.388 2.057 10.97 0 5.211-1.303 9.051-1.302 3.839-3.359 6.582-2.057 2.742-4.663 4.388-2.605 1.645-5.21 2.468v.274q2.605.412 5.69 1.989 3.086 1.577 5.76 4.593 2.674 3.017 4.456 7.679 1.783 4.663 1.783 11.108zm-6.171-47.857q0-5.897-1.645-9.874-1.646-3.976-4.32-6.307-2.674-2.332-6.171-3.36-3.496-1.028-7.336-1.028H275.36v41.823h15.77q3.428 0 6.856-1.234t6.171-3.771q2.742-2.537 4.388-6.582 1.645-4.045 1.645-9.667zm3.154 48.268q0-6.582-1.851-11.244-1.851-4.663-4.731-7.542-2.88-2.88-6.308-4.183-3.428-1.302-6.719-1.302H275.36v47.034h17.415q4.525 0 8.296-1.303 3.771-1.302 6.514-4.045 2.742-2.742 4.251-7.062 1.508-4.319 1.508-10.353z" fill="#FFF"/><path d="M359.693-.015q6.993 0 12.41 3.771 5.416 3.771 9.187 10.49 3.771 6.719 5.76 16.044 1.988 9.325 1.988 20.432t-1.988 20.432q-1.989 9.324-5.76 16.044-3.771 6.719-9.187 10.49-5.417 3.771-12.41 3.771-6.994 0-12.41-3.771-5.417-3.771-9.188-10.49-3.771-6.72-5.759-16.044-1.988-9.325-1.988-20.432t1.851-20.432q1.851-9.325 5.554-16.044 3.702-6.719 9.187-10.49 5.485-3.771 12.753-3.771zm0 2.742q-6.719.001-11.656 3.772-4.936 3.77-8.227 10.215-3.292 6.445-4.868 15.222-1.577 8.776-1.577 18.786 0 10.01 1.577 18.718 1.576 8.707 4.868 15.221 3.291 6.513 8.227 10.284 4.937 3.771 11.656 3.771 6.582 0 11.519-3.771 4.936-3.771 8.227-10.284 3.291-6.514 4.937-15.221 1.645-8.708 1.645-18.718t-1.714-18.786q-1.714-8.777-5.005-15.222t-8.228-10.215q-4.936-3.771-11.381-3.771z" clip-path="url(#k)" filter="url(#l)" fill="rgba(0,0,0,0.75)"/><path d="M389.038 50.722q0 11.107-1.988 20.432-1.989 9.324-5.76 16.044-3.771 6.719-9.187 10.49-5.417 3.771-12.41 3.771-6.994 0-12.41-3.771-5.417-3.771-9.188-10.49-3.771-6.72-5.759-16.044-1.988-9.325-1.988-20.432t1.851-20.432q1.851-9.325 5.554-16.044 3.702-6.719 9.187-10.49 5.485-3.771 12.753-3.771 6.993 0 12.41 3.771 5.416 3.771 9.187 10.49 3.771 6.719 5.76 16.044 1.988 9.325 1.988 20.432zm-3.017 0q0-10.01-1.714-18.786-1.714-8.777-5.005-15.222t-8.228-10.215q-4.936-3.771-11.381-3.771-6.719 0-11.656 3.771-4.936 3.77-8.227 10.215-3.292 6.445-4.868 15.222-1.577 8.776-1.577 18.786 0 10.01 1.577 18.718 1.576 8.707 4.868 15.221 3.291 6.513 8.227 10.284 4.937 3.771 11.656 3.771 6.582 0 11.519-3.771 4.936-3.771 8.227-10.284 3.291-6.514 4.937-15.221 1.645-8.708 1.645-18.718z" fill="#FFF"/><path d="M434.29 2.179v2.743h-19.198v94.343h-3.017V4.922h-19.197V2.179h41.412z" clip-path="url(#m)" filter="url(#n)" fill="rgba(0,0,0,0.75)"/><path d="M415.092 4.922v94.343h-3.017V4.922h-19.197V2.179h41.412v2.743z" fill="#FFF"/><path d="M464.869-.015q5.622 0 10.353 2.263 4.731 2.262 7.748 7.61l-2.194 1.783q-3.017-5.074-7.062-6.994-4.045-1.919-8.982-1.919-3.428 0-6.788 1.302-3.359 1.303-6.033 3.977-2.674 2.674-4.32 6.856-1.645 4.183-1.645 9.942 0 5.074 1.508 8.845 1.508 3.771 3.977 6.513 2.468 2.743 5.553 4.8 3.086 2.056 6.102 3.565 4.251 2.194 8.091 4.731 3.839 2.537 6.788 5.828 2.948 3.291 4.731 7.542 1.782 4.25 1.782 9.873 0 6.033-1.714 10.696-1.714 4.662-4.731 7.816t-6.925 4.799q-3.908 1.646-8.159 1.646-6.993 0-12.41-3.086-5.416-3.085-8.844-8.844l2.468-1.783q3.291 5.485 8.365 8.228 5.073 2.742 10.284 2.742 3.703 0 7.062-1.508 3.36-1.509 5.897-4.32 2.537-2.811 4.113-6.993 1.577-4.183 1.577-9.53 0-4.937-1.645-8.777-1.646-3.839-4.32-6.787-2.674-2.949-5.965-5.143t-6.582-3.839q-3.839-1.92-7.473-4.32-3.634-2.399-6.376-5.622-2.743-3.222-4.457-7.473-1.714-4.251-1.714-9.873 0-6.034 1.782-10.628 1.783-4.593 4.8-7.679 3.017-3.085 6.993-4.662 3.977-1.577 8.365-1.577z" clip-path="url(#o)" filter="url(#p)" fill="rgba(0,0,0,0.75)"/><path d="M484.478 76.502q0 6.033-1.714 10.696-1.714 4.662-4.731 7.816t-6.925 4.799q-3.908 1.646-8.159 1.646-6.993 0-12.41-3.086-5.416-3.085-8.844-8.844l2.468-1.783q3.291 5.485 8.365 8.228 5.073 2.742 10.284 2.742 3.703 0 7.062-1.508 3.36-1.509 5.897-4.32 2.537-2.811 4.113-6.993 1.577-4.183 1.577-9.53 0-4.937-1.645-8.777-1.646-3.839-4.32-6.787-2.674-2.949-5.965-5.143t-6.582-3.839q-3.839-1.92-7.473-4.32-3.634-2.399-6.376-5.622-2.743-3.222-4.457-7.473-1.714-4.251-1.714-9.873 0-6.034 1.782-10.628 1.783-4.593 4.8-7.679 3.017-3.085 6.993-4.662 3.977-1.577 8.365-1.577 5.622 0 10.353 2.263 4.731 2.262 7.748 7.61l-2.194 1.783q-3.017-5.074-7.062-6.994-4.045-1.919-8.982-1.919-3.428 0-6.788 1.302-3.359 1.303-6.033 3.977-2.674 2.674-4.32 6.856-1.645 4.183-1.645 9.942 0 5.074 1.508 8.845 1.508 3.771 3.977 6.513 2.468 2.743 5.553 4.8 3.086 2.056 6.102 3.565 4.251 2.194 8.091 4.731 3.839 2.537 6.788 5.828 2.948 3.291 4.731 7.542 1.782 4.25 1.782 9.873z" fill="#FFF"/><g><path d="M52.118 226.175v94.206h28.385v2.88H49.101v-97.086h3.017z" clip-path="url(#q)" filter="url(#r)" fill="rgba(0,0,0,0.75)"/><path d="M49.101 323.261v-97.086h3.017v94.206h28.385v2.88z" fill="#FFF"/></g><g><path d="M113.962 223.981q6.993 0 12.41 3.771 5.416 3.771 9.187 10.49 3.771 6.72 5.76 16.044 1.988 9.325 1.988 20.432t-1.988 20.432q-1.989 9.325-5.76 16.044-3.771 6.719-9.187 10.49-5.417 3.771-12.41 3.771-6.994 0-12.41-3.771-5.417-3.771-9.188-10.49-3.771-6.719-5.759-16.044-1.988-9.325-1.988-20.432t1.851-20.432q1.851-9.324 5.554-16.044 3.702-6.719 9.187-10.49 5.485-3.771 12.753-3.771zm0 2.743q-6.719 0-11.656 3.771-4.936 3.771-8.227 10.216-3.291 6.445-4.868 15.221-1.577 8.776-1.577 18.786 0 10.01 1.577 18.718 1.577 8.707 4.868 15.221 3.291 6.514 8.227 10.284 4.937 3.771 11.656 3.771 6.582 0 11.519-3.771 4.936-3.77 8.227-10.284 3.291-6.514 4.937-15.221 1.645-8.708 1.645-18.718t-1.714-18.786q-1.714-8.776-5.005-15.221t-8.228-10.216q-4.936-3.771-11.381-3.771z" clip-path="url(#s)" filter="url(#t)" fill="rgba(0,0,0,0.75)"/><path d="M143.307 274.718q0 11.107-1.988 20.432-1.989 9.325-5.76 16.044-3.771 6.719-9.187 10.49-5.417 3.771-12.41 3.771-6.994 0-12.41-3.771-5.417-3.771-9.188-10.49-3.771-6.719-5.759-16.044-1.988-9.325-1.988-20.432t1.851-20.432q1.851-9.324 5.554-16.044 3.702-6.719 9.187-10.49 5.485-3.771 12.753-3.771 6.993 0 12.41 3.771 5.416 3.771 9.187 10.49 3.771 6.72 5.76 16.044 1.988 9.325 1.988 20.432zm-3.017 0q0-10.01-1.714-18.786-1.714-8.776-5.005-15.221t-8.228-10.216q-4.936-3.771-11.381-3.771-6.719 0-11.656 3.771-4.936 3.771-8.227 10.216-3.291 6.445-4.868 15.221-1.577 8.776-1.577 18.786 0 10.01 1.577 18.718 1.577 8.707 4.868 15.221 3.291 6.514 8.227 10.284 4.937 3.771 11.656 3.771 6.582 0 11.519-3.771 4.936-3.77 8.227-10.284 3.291-6.514 4.937-15.221 1.645-8.708 1.645-18.718z" fill="#FFF"/></g><g><path d="M168.401 226.175l40.727 93.384h.274v-93.384h3.017v97.086h-4.799l-40.864-93.52h-.274v93.52h-3.017v-97.086h4.936z" clip-path="url(#u)" filter="url(#v)" fill="rgba(0,0,0,0.75)"/><path d="M207.62 323.261l-40.864-93.52h-.274v93.52h-3.017v-97.086h4.936l40.727 93.384h.274v-93.384h3.017v97.086z" fill="#FFF"/></g><g><path d="M254.243 226.175q6.719 0 12.684 2.949 5.965 2.948 10.421 8.981 4.457 6.034 6.994 15.153t2.537 21.46q0 12.342-2.606 21.529-2.605 9.188-6.993 15.153t-10.422 8.913q-6.033 2.948-12.752 2.948h-17.279v-97.086h17.416zm-.549 2.743h-13.85v91.6h13.85q6.308 0 11.793-2.742 5.485-2.743 9.599-8.365t6.445-14.261q2.331-8.639 2.331-20.432t-2.331-20.432q-2.331-8.639-6.445-14.261-4.114-5.622-9.599-8.365-5.485-2.742-11.793-2.742z" clip-path="url(#w)" filter="url(#x)" fill="rgba(0,0,0,0.75)"/><path d="M286.879 274.718q0 12.342-2.606 21.529-2.605 9.188-6.993 15.153t-10.422 8.913q-6.033 2.948-12.752 2.948h-17.278v-97.086h17.415q6.719 0 12.684 2.949 5.965 2.948 10.421 8.981 4.457 6.034 6.994 15.153t2.537 21.46zm-47.035-45.8v91.6h13.85q6.308 0 11.793-2.742 5.485-2.743 9.599-8.365t6.445-14.261q2.331-8.639 2.331-20.432t-2.331-20.432q-2.331-8.639-6.445-14.261-4.114-5.622-9.599-8.365-5.485-2.742-11.793-2.742z" fill="#FFF"/></g><g><path d="M332.13 223.981q6.994 0 12.411 3.771 5.416 3.771 9.187 10.49 3.771 6.72 5.759 16.044 1.989 9.325 1.989 20.432t-1.989 20.432q-1.988 9.325-5.759 16.044-3.771 6.719-9.187 10.49-5.417 3.771-12.41 3.771-6.994 0-12.41-3.771-5.417-3.771-9.188-10.49-3.771-6.719-5.759-16.044-1.989-9.325-1.989-20.432t1.852-20.432q1.851-9.324 5.553-16.044 3.703-6.719 9.188-10.49 5.485-3.771 12.753-3.771zm0 2.743q-6.719 0-11.655 3.771-4.937 3.771-8.228 10.216-3.291 6.445-4.868 15.221-1.577 8.776-1.577 18.786 0 10.01 1.577 18.718 1.577 8.707 4.868 15.221 3.291 6.514 8.228 10.284 4.936 3.771 11.656 3.771 6.582 0 11.518-3.771 4.937-3.77 8.228-10.284 3.291-6.514 4.936-15.221 1.646-8.708 1.646-18.718t-1.714-18.786q-1.714-8.776-5.005-15.221t-8.228-10.216q-4.936-3.771-11.381-3.771z" clip-path="url(#y)" filter="url(#z)" fill="rgba(0,0,0,0.75)"/><path d="M361.476 274.718q0 11.107-1.989 20.432-1.988 9.325-5.759 16.044-3.771 6.719-9.187 10.49-5.417 3.771-12.41 3.771-6.994 0-12.41-3.771-5.417-3.771-9.188-10.49-3.771-6.719-5.759-16.044-1.989-9.325-1.989-20.432t1.852-20.432q1.851-9.324 5.553-16.044 3.703-6.719 9.188-10.49 5.485-3.771 12.753-3.771 6.993 0 12.41 3.771 5.416 3.771 9.187 10.49 3.771 6.72 5.759 16.044 1.989 9.325 1.989 20.432zm-3.017 0q0-10.01-1.714-18.786-1.714-8.776-5.005-15.221t-8.228-10.216q-4.936-3.771-11.381-3.771-6.72 0-11.656 3.771-4.937 3.771-8.228 10.216-3.291 6.445-4.868 15.221-1.577 8.776-1.577 18.786 0 10.01 1.577 18.718 1.577 8.707 4.868 15.221 3.291 6.514 8.228 10.284 4.936 3.771 11.656 3.771 6.582 0 11.518-3.771 4.937-3.77 8.228-10.284 3.291-6.514 4.936-15.221 1.646-8.708 1.646-18.718z" fill="#FFF"/></g><g><path d="M386.57 226.175l40.726 93.384h.275v-93.384h3.016v97.086h-4.799l-40.864-93.52h-.274v93.52h-3.017v-97.086h4.937z" clip-path="url(#A)" filter="url(#B)" fill="rgba(0,0,0,0.75)"/><path d="M425.788 323.261l-40.864-93.52h-.274v93.52h-3.017v-97.086h4.937l40.726 93.384h.275v-93.384h3.016v97.086z" fill="#FFF"/></g><g><path d="M236.752 151.704q3.092 0 4.789 1.81 1.697 1.81 1.848 4.676.151 1.735 1.621 3.206 1.471 1.47 4.035 1.47 2.263 0 4.262-1.131 1.998-1.131 3.733-2.941l.603.377q-1.81 2.036-4.073 3.243-2.262 1.207-4.449 1.207-2.112 0-3.62-.943-1.509-.943-2.338-2.225h-.151q-.754 2.866-2.791 6.109-2.036 3.243-4.864 5.958-2.829 2.715-6.222 4.525-3.394 1.81-6.939 1.81-3.243 0-4.902-1.885-1.66-1.886-1.66-5.053 0-1.66.83-3.847.83-2.187 2.3-4.412 1.471-2.225 3.47-4.374 1.998-2.15 4.336-3.846 2.338-1.697 4.94-2.716 2.602-1.018 5.242-1.018zm-.679.905q-1.584 0-3.394 1.018-1.81 1.019-3.658 2.678-1.847 1.659-3.507 3.846-1.659 2.187-2.979 4.525-1.32 2.338-2.074 4.676-.754 2.338-.754 4.375 0 1.961.754 3.092t2.263 1.131q2.036 0 4.035-1.093 1.998-1.094 3.846-2.866 1.848-1.773 3.432-4.035 1.584-2.263 2.753-4.676 1.169-2.414 1.847-4.714.679-2.3.679-4.186 0-1.584-.792-2.677-.792-1.094-2.451-1.094z" clip-path="url(#C)" filter="url(#D)" fill="rgba(0,0,0,0.75)"/><path d="M257.643 159.171q-1.81 2.036-4.073 3.243-2.262 1.207-4.449 1.207-2.112 0-3.62-.943-1.509-.943-2.338-2.225h-.151q-.754 2.866-2.791 6.109-2.036 3.243-4.864 5.958-2.829 2.715-6.222 4.525-3.394 1.81-6.939 1.81-3.243 0-4.902-1.885-1.66-1.886-1.66-5.053 0-1.66.83-3.847.83-2.187 2.3-4.412 1.471-2.225 3.47-4.374 1.998-2.15 4.336-3.846 2.338-1.697 4.94-2.716 2.602-1.018 5.242-1.018 3.092 0 4.789 1.81 1.697 1.81 1.848 4.676.151 1.735 1.621 3.206 1.471 1.47 4.035 1.47 2.263 0 4.262-1.131 1.998-1.131 3.733-2.941zm-37.936 14.556q0 1.961.754 3.092t2.263 1.131q2.036 0 4.035-1.093 1.998-1.094 3.846-2.866 1.848-1.773 3.432-4.035 1.584-2.263 2.753-4.676 1.169-2.414 1.847-4.714.679-2.3.679-4.186 0-1.584-.792-2.677-.792-1.094-2.451-1.094-1.584 0-3.394 1.018-1.81 1.019-3.658 2.678-1.847 1.659-3.507 3.846-1.659 2.187-2.979 4.525-1.32 2.338-2.074 4.676-.754 2.338-.754 4.375z" fill="#FFF"/></g><g><path d="M286.831 125.76q2.413 0 3.922 1.018 1.508 1.018 1.508 3.13 0 1.81-1.131 2.979-1.132 1.169-2.866 1.32.301-1.056.49-1.999.188-.942.188-2.225 0-1.508-.716-2.413-.717-.905-2.451-.905-2.791 0-5.694 2.527-2.904 2.526-5.732 6.372-2.828 3.847-5.506 8.334-2.677 4.488-5.091 8.41h17.045v.905H263.3q-7.241 12.369-12.972 21.193-5.732 8.824-11.012 14.48-5.279 5.657-10.558 8.296-5.28 2.64-11.69 2.64-2.263 0-4.337-.566-2.074-.565-3.658-1.697-1.584-1.131-2.564-2.828-.981-1.697-.981-3.959 0-2.942 1.848-5.016t6.222-2.074h.679v.604q-2.263.15-3.846 1.734-1.584 1.584-1.584 4.375 0 3.921 2.187 6.222 2.187 2.3 6.411 2.3 4.072 0 7.768-1.848 3.695-1.848 7.127-5.091 3.432-3.243 6.712-7.617 3.281-4.374 6.562-9.465t6.599-10.634q3.319-5.544 6.788-11.049h-5.355v-.905h5.807q2.942-4.676 6.034-9.428 3.092-4.751 6.486-8.56 3.394-3.809 7.089-6.184 3.696-2.376 7.769-2.376z" clip-path="url(#E)" filter="url(#F)" fill="rgba(0,0,0,0.75)"/><path d="M253.646 153.213v-.905h5.807q2.942-4.676 6.034-9.428 3.092-4.751 6.486-8.56 3.394-3.809 7.089-6.184 3.696-2.376 7.769-2.376 2.413 0 3.922 1.018 1.508 1.018 1.508 3.13 0 1.81-1.131 2.979-1.132 1.169-2.866 1.32.301-1.056.49-1.999.188-.942.188-2.225 0-1.508-.716-2.413-.717-.905-2.451-.905-2.791 0-5.694 2.527-2.904 2.526-5.732 6.372-2.828 3.847-5.506 8.334-2.677 4.488-5.091 8.41h17.045v.905H263.3q-7.241 12.369-12.972 21.193-5.732 8.824-11.012 14.48-5.279 5.657-10.558 8.296-5.28 2.64-11.69 2.64-2.263 0-4.337-.566-2.074-.565-3.658-1.697-1.584-1.131-2.564-2.828-.981-1.697-.981-3.959 0-2.942 1.848-5.016t6.222-2.074h.679v.604q-2.263.15-3.846 1.734-1.584 1.584-1.584 4.375 0 3.921 2.187 6.222 2.187 2.3 6.411 2.3 4.072 0 7.768-1.848 3.695-1.848 7.127-5.091 3.432-3.243 6.712-7.617 3.281-4.374 6.562-9.465t6.599-10.634q3.319-5.544 6.788-11.049z" fill="#FFF"/></g></svg>